<svg width="28" height="28" viewBox="0 0 1024 1024" fill="none" xmlns="http://www.w3.org/2000/svg">
<path d="M872 512C872 760.528 760.528 872 512 872C263.472 872 152 760.528 152 512C152 263.472 263.472 152 512 152C760.528 152 872 263.472 872 512Z" fill="#33C641"/>
<path d="M544.526 304.653H444.376L426.806 357.781H482.432V469.69H544.526V304.653Z" fill="white"/>
<path fill-rule="evenodd" clip-rule="evenodd" d="M626.218 605.13C626.218 668.211 575.082 719.347 512.002 719.347C448.922 719.347 397.785 668.211 397.785 605.13C397.785 542.05 448.922 490.914 512.002 490.914C575.082 490.914 626.218 542.05 626.218 605.13ZM574.365 605.13C574.365 639.573 546.444 667.494 512.001 667.494C477.559 667.494 449.638 639.573 449.638 605.13C449.638 570.688 477.559 542.766 512.001 542.766C546.444 542.766 574.365 570.688 574.365 605.13Z" fill="white"/>
</svg>
