<svg width="107" height="27" viewBox="0 0 107 27" fill="none" xmlns="http://www.w3.org/2000/svg">
  <path fill-rule="evenodd" clip-rule="evenodd" d="M26.9177 13.4588C26.9177 22.7502 22.7502 26.9177 13.4588 26.9177C4.16745 26.9177 0 22.7502 0 13.4588C0 4.16745 4.16745 0 13.4588 0C22.7502 0 26.9177 4.16745 26.9177 13.4588ZM14.6749 5.70701H10.9307L10.2738 7.69325H12.3535V11.8771H14.6749V5.70701ZM17.729 16.9406C17.729 19.2989 15.8172 21.2107 13.4589 21.2107C11.1006 21.2107 9.18887 19.2989 9.18887 16.9406C9.18887 14.5823 11.1006 12.6705 13.4589 12.6705C15.8172 12.6705 17.729 14.5823 17.729 16.9406ZM15.7904 16.9406C15.7904 18.2282 14.7466 19.2721 13.4589 19.2721C12.1713 19.2721 11.1274 18.2282 11.1274 16.9406C11.1274 15.6529 12.1713 14.6091 13.4589 14.6091C14.7466 14.6091 15.7904 15.6529 15.7904 16.9406ZM42.0434 20.4379C43.2214 21.0861 44.5075 21.4102 45.9015 21.4102C47.2956 21.4102 48.5816 21.0861 49.7597 20.4379C50.9377 19.7896 51.8752 18.866 52.5722 17.6671C53.2693 16.4682 53.6178 15.0741 53.6178 13.4849C53.6178 11.8817 53.2693 10.4841 52.5722 9.29218C51.8752 8.10024 50.9377 7.18364 49.7597 6.54236C48.5816 5.90108 47.2956 5.58044 45.9015 5.58044C44.5075 5.58044 43.2214 5.90108 42.0434 6.54236C40.8654 7.18364 39.9279 8.10024 39.2309 9.29218C38.5338 10.4841 38.1853 11.8817 38.1853 13.4849C38.1853 15.0741 38.5338 16.4682 39.2309 17.6671C39.9279 18.866 40.8654 19.7896 42.0434 20.4379ZM48.5363 18.6186C47.7417 19.0716 46.8634 19.2982 45.9015 19.2982C44.9674 19.2982 44.0996 19.0716 43.298 18.6186C42.4964 18.1655 41.8587 17.5033 41.3847 16.632C40.9107 15.7607 40.6737 14.7186 40.6737 13.5058C40.6737 12.279 40.9037 11.2299 41.3638 10.3586C41.8238 9.48733 42.4511 8.82864 43.2458 8.38253C44.0404 7.93642 44.9256 7.71337 45.9015 7.71337C46.8773 7.71337 47.7591 7.93642 48.5467 8.38253C49.3344 8.82864 49.9617 9.48733 50.4288 10.3586C50.8958 11.2299 51.1293 12.279 51.1293 13.5058C51.1293 14.7186 50.8958 15.7607 50.4288 16.632C49.9617 17.5033 49.3309 18.1655 48.5363 18.6186ZM55.1393 11.6029H57.3559L57.3768 13.3594C57.6417 12.7739 58.0599 12.293 58.6315 11.9165C59.2031 11.5401 59.8722 11.3519 60.639 11.3519C61.6288 11.3519 62.3885 11.5576 62.9183 11.9688C63.448 12.3801 63.8035 12.9551 63.9847 13.694C64.166 14.4329 64.2566 15.3948 64.2566 16.5797V21.2011H61.9982V16.6425C61.9982 15.4296 61.8797 14.5548 61.6427 14.0181C61.4057 13.4814 60.9178 13.213 60.1789 13.213C59.7607 13.213 59.3355 13.342 58.9033 13.5999C58.4712 13.8578 58.1122 14.2307 57.8264 14.7186C57.5406 15.2066 57.3977 15.7781 57.3977 16.4334V21.2011H55.1393V11.6029ZM67.8901 20.7306C68.6569 21.1837 69.6118 21.4102 70.755 21.4102C71.6054 21.4102 72.3303 21.3266 72.9297 21.1593C73.5292 20.992 74.0032 20.7968 74.3517 20.5738L73.6616 18.9636C73.2992 19.1588 72.9019 19.3121 72.4697 19.4237C72.0375 19.5352 71.4869 19.591 70.8177 19.591C70.0091 19.591 69.3783 19.4028 68.9252 19.0264C68.4722 18.65 68.169 18.0366 68.0156 17.1862H74.9163C74.9581 16.7819 74.979 16.3915 74.979 16.0151C74.979 14.5374 74.6201 13.3908 73.9021 12.5753C73.1842 11.7597 72.0863 11.3519 70.6086 11.3519C69.6606 11.3519 68.8102 11.5576 68.0574 11.9688C67.3046 12.3801 66.7156 12.9691 66.2904 13.7358C65.8652 14.5026 65.6526 15.3948 65.6526 16.4125C65.6526 17.3186 65.8339 18.1516 66.1963 18.9113C66.5588 19.6711 67.1234 20.2775 67.8901 20.7306ZM72.7834 15.6178C72.7974 14.7535 72.6092 14.1436 72.2188 13.7881C71.8285 13.4326 71.2708 13.2548 70.5459 13.2548C69.0821 13.2548 68.2387 14.0425 68.0157 15.6178H72.7834ZM78.8426 15.8688L80.0973 14.3213L84.8023 21.2011H87.6671L81.6238 12.5857L86.9143 5.83139H84.1122L78.8426 12.6903V5.83139H76.5424V21.2011H78.8426V15.8688ZM92.43 21.4102C91.2868 21.4102 90.3319 21.1837 89.5651 20.7306C88.7984 20.2775 88.2338 19.6711 87.8713 18.9113C87.5089 18.1516 87.3276 17.3186 87.3276 16.4125C87.3276 15.3948 87.5402 14.5026 87.9654 13.7358C88.3906 12.9691 88.9796 12.3801 89.7324 11.9688C90.4852 11.5576 91.3356 11.3519 92.2836 11.3519C93.7613 11.3519 94.8591 11.7597 95.5771 12.5753C96.295 13.3908 96.654 14.5374 96.654 16.0151C96.654 16.3915 96.6331 16.7819 96.5913 17.1862H89.6906C89.8439 18.0366 90.1471 18.65 90.6002 19.0264C91.0533 19.4028 91.6841 19.591 92.4927 19.591C93.1618 19.591 93.7125 19.5352 94.1447 19.4237C94.5768 19.3121 94.9742 19.1588 95.3366 18.9636L96.0267 20.5738C95.6782 20.7968 95.2042 20.992 94.6047 21.1593C94.0053 21.3266 93.2803 21.4102 92.43 21.4102ZM93.8937 13.7881C94.284 14.1436 94.4723 14.7535 94.4583 15.6178H89.6906C89.9136 14.0425 90.757 13.2548 92.2208 13.2548C92.9457 13.2548 93.5034 13.4326 93.8937 13.7881ZM100.831 21.4939L96.8582 11.6029H99.4093L101.459 17.7089L101.919 19.1936L102.379 17.7089L104.533 11.6029H107L101.103 26.4707H98.7611L100.831 21.4939Z" fill="#33C641" />
</svg>
