<svg width="125" height="32" viewBox="0 0 125 32" fill="none" xmlns="http://www.w3.org/2000/svg">
<path fill-rule="evenodd" clip-rule="evenodd" d="M46.1252 25.5226C44.3408 25.5226 42.6947 25.1078 41.1869 24.278C39.679 23.4483 38.479 22.2661 37.5868 20.7315C36.6946 19.1969 36.2485 17.4126 36.2485 15.3783C36.2485 13.3263 36.6946 11.5374 37.5868 10.0118C38.479 8.4861 39.679 7.31287 41.1869 6.49205C42.6947 5.67122 44.3408 5.26081 46.1252 5.26081C47.9096 5.26081 49.5557 5.67122 51.0635 6.49205C52.5713 7.31287 53.7713 8.4861 54.6635 10.0118C55.5557 11.5374 56.0018 13.3263 56.0018 15.3783C56.0018 17.4126 55.5557 19.1969 54.6635 20.7315C53.7713 22.2661 52.5713 23.4483 51.0635 24.278C49.5557 25.1078 47.9096 25.5226 46.1252 25.5226ZM46.1252 22.8193C47.3564 22.8193 48.4806 22.5293 49.4977 21.9494C50.5148 21.3694 51.3222 20.5219 51.92 19.4066C52.5178 18.2914 52.8167 16.9575 52.8167 15.4051C52.8167 13.8348 52.5178 12.4921 51.92 11.3768C51.3222 10.2616 50.5193 9.41845 49.5111 8.84744C48.5029 8.27643 47.3743 7.99093 46.1252 7.99093C44.8761 7.99093 43.743 8.27643 42.7259 8.84744C41.7088 9.41845 40.9058 10.2616 40.317 11.3768C39.7281 12.4921 39.4337 13.8348 39.4337 15.4051C39.4337 16.9575 39.737 18.2914 40.3437 19.4066C40.9504 20.5219 41.7668 21.3694 42.7928 21.9494C43.8188 22.5293 44.9296 22.8193 46.1252 22.8193ZM60.7866 12.9695H57.9494V25.255H60.8402V19.1524C60.8402 18.3137 61.0231 17.5821 61.3889 16.9576C61.7547 16.333 62.2141 15.8557 62.7673 15.5256C63.3205 15.1955 63.8647 15.0304 64.4 15.0304C65.3458 15.0304 65.9703 15.3739 66.2736 16.0609C66.577 16.7479 66.7287 17.8676 66.7287 19.4201V25.255H69.6194V19.3398C69.6194 17.823 69.5034 16.5918 69.2714 15.6461C69.0395 14.7003 68.5844 13.9643 67.9064 13.4379C67.2283 12.9115 66.2558 12.6483 64.9889 12.6483C64.0075 12.6483 63.1509 12.8892 62.4193 13.371C61.6877 13.8527 61.1524 14.4684 60.8134 15.2178L60.7866 12.9695ZM77.9372 25.5227C76.474 25.5227 75.2517 25.2327 74.2703 24.6528C73.2888 24.0729 72.5662 23.2967 72.1022 22.3242C71.6383 21.3517 71.4063 20.2855 71.4063 19.1256C71.4063 17.823 71.6784 16.681 72.2227 15.6996C72.7669 14.7182 73.5208 13.9643 74.4844 13.4379C75.448 12.9115 76.5364 12.6483 77.7498 12.6483C79.6413 12.6483 81.0465 13.1702 81.9655 14.2141C82.8844 15.258 83.3439 16.7256 83.3439 18.6171C83.3439 19.0989 83.3172 19.5985 83.2636 20.116H74.4309C74.6271 21.2045 75.0152 21.9896 75.5952 22.4714C76.1751 22.9532 76.9825 23.1941 78.0175 23.1941C78.874 23.1941 79.5788 23.1227 80.132 22.9799C80.6852 22.8372 81.1937 22.6409 81.6577 22.3911L82.5409 24.4521C82.0948 24.7376 81.4881 24.9874 80.7209 25.2015C79.9536 25.4156 79.0257 25.5227 77.9372 25.5227ZM79.8109 15.7664C80.3105 16.2214 80.5514 17.0021 80.5335 18.1084H74.4309C74.7164 16.0921 75.796 15.0839 77.6696 15.0839C78.5975 15.0839 79.3112 15.3114 79.8109 15.7664ZM89.8952 16.449L88.2893 18.4297V25.255H85.345V5.58203H88.2893V14.3613L95.0343 5.58203H98.6209L91.8492 14.2274L99.5845 25.255H95.9176L89.8952 16.449ZM102.014 24.6528C102.995 25.2327 104.218 25.5227 105.681 25.5227C106.769 25.5227 107.697 25.4156 108.464 25.2015C109.232 24.9874 109.838 24.7376 110.285 24.4521L109.401 22.3911C108.937 22.6409 108.429 22.8372 107.876 22.9799C107.322 23.1227 106.618 23.1941 105.761 23.1941C104.726 23.1941 103.919 22.9532 103.339 22.4714C102.759 21.9896 102.371 21.2045 102.174 20.116H111.007C111.061 19.5985 111.088 19.0989 111.088 18.6171C111.088 16.7256 110.628 15.258 109.709 14.2141C108.79 13.1702 107.385 12.6483 105.493 12.6483C104.28 12.6483 103.192 12.9115 102.228 13.4379C101.264 13.9643 100.511 14.7182 99.9663 15.6996C99.422 16.681 99.1499 17.823 99.1499 19.1256C99.1499 20.2855 99.3819 21.3517 99.8458 22.3242C100.31 23.2967 101.032 24.0729 102.014 24.6528ZM108.277 18.1084C108.295 17.0021 108.054 16.2214 107.554 15.7664C107.055 15.3114 106.341 15.0839 105.413 15.0839C103.539 15.0839 102.46 16.0921 102.174 18.1084H108.277ZM111.349 12.9694L116.434 25.6297L113.784 32H116.782L124.33 12.9694H121.172L118.415 20.7851L117.826 22.6855L117.237 20.7851L114.614 12.9694H111.349Z" fill="#404040"/>
<path fill-rule="evenodd" clip-rule="evenodd" d="M15.5255 30.051C25.5533 30.051 30.051 25.5533 30.051 15.5255C30.051 5.49773 25.5533 1 15.5255 1C5.49773 1 1 5.49773 1 15.5255C1 25.5533 5.49773 30.051 15.5255 30.051ZM12.797 7.15934H16.8379V13.8184H14.3325V9.30299H12.0881L12.797 7.15934ZM15.5256 23.8917C18.0708 23.8917 20.1341 21.8284 20.1341 19.2832C20.1341 16.738 18.0708 14.6747 15.5256 14.6747C12.9804 14.6747 10.9171 16.738 10.9171 19.2832C10.9171 21.8284 12.9804 23.8917 15.5256 23.8917ZM15.5256 21.7995C16.9153 21.7995 18.0418 20.6729 18.0418 19.2832C18.0418 17.8935 16.9153 16.7669 15.5256 16.7669C14.1359 16.7669 13.0093 17.8935 13.0093 19.2832C13.0093 20.6729 14.1359 21.7995 15.5256 21.7995Z" fill="#404040"/>
</svg>
