<svg width="80" height="28" viewBox="0 0 231 48" fill="none" xmlns="http://www.w3.org/2000/svg">
<path fill-rule="evenodd" clip-rule="evenodd" d="M24.9196 4.60696C24 6.41184 24 8.77456 24 13.5V34.5C24 39.2254 24 41.5882 24.9196 43.393C25.7286 44.9807 27.0193 46.2714 28.607 47.0804C30.4118 48 32.7746 48 37.5 48H58.5C63.2254 48 65.5882 48 67.393 47.0804C68.9807 46.2714 70.2714 44.9807 71.0804 43.393C72 41.5882 72 39.2254 72 34.5V13.5C72 8.77456 72 6.41184 71.0804 4.60696C70.2714 3.01934 68.9807 1.72856 67.393 0.919633C65.5882 0 63.2254 0 58.5 0H37.5C32.7746 0 30.4118 0 28.607 0.919633C27.0193 1.72856 25.7286 3.01934 24.9196 4.60696ZM56.0313 31.2728C56.0313 27.0051 52.4495 23.5455 48.0313 23.5455C43.613 23.5455 40.0312 27.0051 40.0312 31.2728C40.0312 35.5404 43.613 39 48.0313 39C52.4495 39 56.0313 35.5404 56.0313 31.2728ZM43.6632 31.2726C43.6632 28.9424 45.6189 27.0534 48.0313 27.0534C50.4437 27.0534 52.3994 28.9424 52.3994 31.2726C52.3994 33.6028 50.4437 35.4918 48.0313 35.4918C45.6189 35.4918 43.6632 33.6028 43.6632 31.2726ZM50.6324 21.1361V9H43.0332L41.6999 12.9068H45.9208V21.1361H50.6324Z" fill="black"/>
<path fill-rule="evenodd" clip-rule="evenodd" d="M84 10H90.5154C95.9634 10 99.7673 11.2883 101.927 13.865C104.111 16.4417 105.203 19.5092 105.203 23.0675C105.203 25.5461 104.736 27.8405 103.804 29.951C102.872 32.0369 101.325 33.7424 99.1659 35.0676C97.0307 36.3929 94.2211 37.0553 90.7365 37.0553H84V10ZM91.1782 33.4111C94.5646 33.4111 97.0186 32.4541 98.5403 30.5399C100.086 28.6013 100.859 26.1718 100.859 23.2515C100.859 20.4049 100.086 18.0859 98.5403 16.2945C96.994 14.5031 94.5399 13.6074 91.1782 13.6074H88.1228V33.4111H91.1782ZM115.601 37.4235C113.588 37.4235 111.908 37.0306 110.558 36.2453C109.208 35.4359 108.214 34.3682 107.576 33.043C106.938 31.6933 106.619 30.2209 106.619 28.6258C106.619 26.8344 106.987 25.2639 107.723 23.9141C108.484 22.5645 109.527 21.5338 110.852 20.8221C112.177 20.0859 113.674 19.7178 115.343 19.7178C117.944 19.7178 119.871 20.4417 121.122 21.8896C122.398 23.3129 123.036 25.3252 123.036 27.9265C123.036 28.589 123 29.2761 122.926 29.9878H110.779C111.048 31.4848 111.576 32.5645 112.361 33.2271C113.171 33.8897 114.288 34.221 115.711 34.221C116.889 34.221 117.858 34.1228 118.619 33.9264C119.38 33.7301 120.079 33.4602 120.717 33.1166L121.932 35.9512C121.319 36.3436 120.484 36.6871 119.429 36.9817C118.374 37.2764 117.098 37.4235 115.601 37.4235ZM119.171 27.2271C119.196 25.7056 118.865 24.6381 118.177 24.0246C117.49 23.3866 116.509 23.0675 115.232 23.0675C112.656 23.0675 111.171 24.4541 110.779 27.2271H119.171ZM127.867 36.9817C129.143 37.2764 130.37 37.4235 131.548 37.4235C133.486 37.4235 135.082 36.9938 136.333 36.135C137.609 35.2762 138.247 34.0124 138.247 32.3436C138.247 31.1166 137.867 30.1105 137.106 29.3252C136.345 28.5399 135.18 27.8405 133.609 27.2271C132.946 26.9817 132.566 26.8467 132.468 26.8221C131.413 26.454 130.652 26.1228 130.186 25.8283C129.719 25.5093 129.487 25.0553 129.487 24.4663C129.487 23.4111 130.357 22.8835 132.1 22.8835C132.959 22.8835 133.732 23.0062 134.419 23.2516C135.131 23.4724 135.646 23.7424 135.965 24.0614L137.401 20.8958C136.885 20.5522 136.137 20.27 135.155 20.0491C134.198 19.8283 133.216 19.7178 132.21 19.7178C130.174 19.7178 128.542 20.1596 127.315 21.043C126.112 21.9019 125.511 23.1043 125.511 24.6503C125.511 26.0001 125.941 27.0921 126.799 27.9265C127.658 28.7363 128.824 29.4357 130.296 30.0246L131.695 30.54C132.701 30.9081 133.4 31.2271 133.793 31.497C134.186 31.7669 134.382 32.1473 134.382 32.6381C134.382 33.7424 133.437 34.2945 131.548 34.2945C129.658 34.2945 127.977 33.7792 126.505 32.7485L125.179 35.8776C125.719 36.2947 126.615 36.6629 127.867 36.9817ZM156.179 37.0553H151.504L148.081 31.5338L147.124 29.6565L144.915 32.0491V37.0553H141.087V10H144.878V24.8344L144.805 27.7056L151.246 20.1595H156.142L149.774 27.2271L156.179 37.0553ZM156.362 23.3987H159.344V37.0552H163.356V23.3987H167.258V20.1595H163.356V12.3926L159.344 13.276V20.1595H156.362V23.3987ZM176.894 37.4235C175.151 37.4235 173.605 37.0306 172.256 36.2453C170.906 35.4601 169.863 34.3927 169.127 33.043C168.391 31.6933 168.022 30.1964 168.022 28.5522C168.022 26.9326 168.379 25.4479 169.09 24.0982C169.826 22.7485 170.869 21.681 172.219 20.8958C173.569 20.1104 175.127 19.7178 176.894 19.7178C178.661 19.7178 180.207 20.1104 181.532 20.8958C182.882 21.681 183.912 22.7485 184.624 24.0982C185.36 25.4479 185.728 26.9326 185.728 28.5522C185.728 30.1964 185.36 31.6933 184.624 33.043C183.888 34.3927 182.845 35.4601 181.495 36.2453C180.17 37.0306 178.636 37.4235 176.894 37.4235ZM177.004 34.1841C178.427 34.1841 179.544 33.6565 180.354 32.6013C181.188 31.5461 181.606 30.2209 181.606 28.6258C181.606 27.0307 181.164 25.6933 180.28 24.6135C179.397 23.5093 178.231 22.9571 176.783 22.9571C175.385 22.9571 174.256 23.497 173.397 24.5768C172.562 25.6565 172.145 27.0062 172.145 28.6258C172.145 30.1964 172.6 31.5215 173.507 32.6013C174.415 33.6565 175.581 34.1841 177.004 34.1841ZM192.403 20.1596H188.575V46H192.44L192.403 34.5154C192.992 35.448 193.802 36.1718 194.832 36.6871C195.888 37.1782 197.127 37.4235 198.551 37.4235C200.072 37.4235 201.446 37.0553 202.673 36.3189C203.925 35.583 204.906 34.5399 205.618 33.1903C206.354 31.8406 206.722 30.2823 206.722 28.5154C206.722 25.6688 205.986 23.497 204.514 22C203.041 20.4786 201.115 19.7178 198.735 19.7178C195.863 19.7178 193.753 20.908 192.403 23.2884V20.1596ZM201.311 32.5645C200.452 33.5706 199.225 34.0737 197.63 34.0737C196.722 34.0737 195.888 33.8528 195.127 33.4111C194.366 32.9449 193.753 32.3068 193.287 31.497C192.845 30.6627 192.624 29.7179 192.624 28.6626V28.405C192.624 27.3498 192.845 26.4295 193.287 25.6442C193.753 24.8344 194.366 24.2209 195.127 23.8037C195.912 23.362 196.747 23.1412 197.63 23.1412C199.25 23.1412 200.477 23.6442 201.311 24.6503C202.17 25.632 202.599 26.9571 202.599 28.6258C202.599 30.2209 202.17 31.5338 201.311 32.5645Z" fill="black"/>
</svg>
