<svg width="185" height="39" viewBox="0 0 185 39" fill="none" xmlns="http://www.w3.org/2000/svg">
<path d="M23.08 27.0793C24.6481 27.0793 25.9193 25.8081 25.9193 24.24C25.9193 22.6719 24.6481 21.4007 23.08 21.4007C21.5119 21.4007 20.2407 22.6719 20.2407 24.24C20.2407 25.8081 21.5119 27.0793 23.08 27.0793Z" fill="black"/>
<path fill-rule="evenodd" clip-rule="evenodd" d="M8.07814 9.40102C7 11.517 7 14.287 7 19.8269V20.1731C7 25.713 7 28.483 8.07814 30.599C9.0265 32.4602 10.5398 33.9735 12.401 34.9219C14.517 36 17.287 36 22.8269 36H23.1731C28.713 36 31.483 36 33.599 34.9219C35.4602 33.9735 36.9735 32.4602 37.9219 30.599C39 28.483 39 25.713 39 20.1731V19.8269C39 14.287 39 11.517 37.9219 9.40102C36.9735 7.53976 35.4602 6.0265 33.599 5.07814C31.483 4 28.713 4 23.1731 4H22.8269C17.287 4 14.517 4 12.401 5.07814C10.5398 6.0265 9.0265 7.53976 8.07814 9.40102ZM20.0012 10.56H24.5608V18.0738H21.7338V12.9788H19.2012L20.0012 10.56ZM23.08 29.44C25.9519 29.44 28.28 27.1119 28.28 24.24C28.28 21.3681 25.9519 19.04 23.08 19.04C20.2081 19.04 17.88 21.3681 17.88 24.24C17.88 27.1119 20.2081 29.44 23.08 29.44Z" fill="black"/>
<path fill-rule="evenodd" clip-rule="evenodd" d="M57.6665 27.7794C56.1008 27.7794 54.6524 27.4192 53.3215 26.6987C52.0063 25.963 50.9572 24.9219 50.1743 23.5751C49.3915 22.2286 49 20.6628 49 18.8779C49 17.0773 49.3915 15.5115 50.1743 14.1806C50.9572 12.834 52.0063 11.8006 53.3215 11.0804C54.6524 10.3601 56.1008 10 57.6665 10C59.2323 10 60.6728 10.3601 61.988 11.0804C63.3189 11.8006 64.3758 12.834 65.1587 14.1806C65.9416 15.5115 66.333 17.0773 66.333 18.8779C66.333 20.6628 65.9416 22.2286 65.1587 23.5751C64.3758 24.9219 63.3189 25.963 61.988 26.6987C60.6728 27.4192 59.2323 27.7794 57.6665 27.7794ZM57.6665 25.4071C58.7469 25.4071 59.7333 25.1565 60.6258 24.6557C61.5183 24.1389 62.2229 23.3952 62.7396 22.4243C63.272 21.4379 63.5381 20.2636 63.5381 18.9014C63.5381 17.5235 63.272 16.3492 62.7396 15.3784C62.2229 14.392 61.5183 13.6482 60.6258 13.1472C59.749 12.6462 58.7625 12.3956 57.6665 12.3956C56.5705 12.3956 55.5762 12.6462 54.6837 13.1472C53.7912 13.6482 53.0866 14.392 52.5699 15.3784C52.0532 16.3492 51.7949 17.5235 51.7949 18.9014C51.7949 20.2636 52.0611 21.4379 52.5934 22.4243C53.1258 23.3952 53.8382 24.1389 54.7307 24.6557C55.6388 25.1565 56.6175 25.4071 57.6665 25.4071ZM68.0483 16.7641H70.5378L70.5613 18.737C70.8588 18.0793 71.3286 17.5392 71.9705 17.1164C72.6125 16.6936 73.3639 16.4823 74.2252 16.4823C75.3368 16.4823 76.1902 16.7171 76.7853 17.1869C77.3802 17.6409 77.7796 18.2829 77.983 19.1127C78.1866 19.9426 78.2883 21.023 78.2883 22.3538V27.5444H75.7518V22.4243C75.7518 21.0621 75.6186 20.0835 75.3524 19.4885C75.0863 18.8779 74.5383 18.5726 73.7085 18.5726C73.2389 18.5726 72.7611 18.7213 72.2759 19.0188C71.7904 19.3006 71.3833 19.7156 71.0545 20.2636C70.7414 20.8116 70.5848 21.4536 70.5848 22.1893V27.5444H68.0483V16.7641ZM82.3797 27.0277C83.2408 27.5288 84.3134 27.7794 85.5972 27.7794C86.5525 27.7794 87.3667 27.6853 88.0399 27.4973C88.7132 27.3095 89.2455 27.0902 89.637 26.8399L88.862 25.0312C88.4547 25.2505 88.0087 25.4227 87.5232 25.548C87.0377 25.6732 86.4193 25.736 85.6676 25.736C84.7597 25.736 84.0473 25.5247 83.5305 25.1017C83.0294 24.679 82.6928 23.9901 82.5206 23.035H90.271C90.3182 22.5808 90.3415 22.1425 90.3415 21.7197C90.3415 20.06 89.9344 18.7761 89.1203 17.8679C88.3217 16.9442 87.0925 16.4823 85.433 16.4823C84.3683 16.4823 83.4129 16.7171 82.5675 17.1869C81.7221 17.6409 81.0565 18.2985 80.5713 19.1597C80.1015 20.0209 79.8665 21.023 79.8665 22.166C79.8665 23.1836 80.0702 24.1233 80.4773 24.9844C80.8844 25.8298 81.5184 26.511 82.3797 27.0277ZM87.2414 19.2302C87.6797 19.6216 87.8911 20.3027 87.8754 21.2735H82.5206C82.7712 19.5042 83.7183 18.6195 85.3625 18.6195C86.1767 18.6195 86.8031 18.8231 87.2414 19.2302ZM96.1011 19.8173L94.6918 21.5553V27.5444H92.1082V10.2818H94.6918V17.9854L100.611 10.2818H103.758L97.8155 17.8679L104.603 27.5444H101.385L96.1011 19.8173ZM106.734 27.0277C107.595 27.5288 108.668 27.7794 109.952 27.7794C110.907 27.7794 111.721 27.6853 112.394 27.4973C113.067 27.3095 113.6 27.0902 113.991 26.8399L113.216 25.0312C112.809 25.2505 112.363 25.4227 111.877 25.548C111.392 25.6732 110.774 25.736 110.022 25.736C109.114 25.736 108.402 25.5247 107.885 25.1017C107.384 24.679 107.047 23.9901 106.875 23.035H114.625C114.672 22.5808 114.696 22.1425 114.696 21.7197C114.696 20.06 114.289 18.7761 113.475 17.8679C112.676 16.9442 111.447 16.4823 109.787 16.4823C108.723 16.4823 107.767 16.7171 106.922 17.1869C106.076 17.6409 105.411 18.2985 104.926 19.1597C104.456 20.0209 104.221 21.023 104.221 22.166C104.221 23.1836 104.424 24.1233 104.832 24.9844C105.239 25.8298 105.873 26.511 106.734 27.0277ZM111.596 19.2302C112.034 19.6216 112.245 20.3027 112.23 21.2735H106.875C107.125 19.5042 108.073 18.6195 109.717 18.6195C110.531 18.6195 111.157 18.8231 111.596 19.2302ZM119.398 27.8731L114.936 16.7641H117.801L120.103 23.6223L120.62 25.2898L121.136 23.6223L123.556 16.7641H126.327L119.704 33.4629H117.073L119.398 27.8731ZM132.955 27.2859C133.878 27.6149 134.81 27.7794 135.75 27.7794C136.814 27.7794 137.761 27.5913 138.591 27.2155C139.437 26.8399 140.094 26.284 140.564 25.548C141.05 24.8122 141.292 23.9196 141.292 22.8706C141.292 22.1973 141.151 21.5788 140.869 21.0152C140.588 20.4515 140.22 19.9661 139.766 19.559C139.437 19.2458 139.085 18.9796 138.709 18.7605C138.333 18.5256 137.793 18.2124 137.088 17.821C136.352 17.4139 135.765 17.0694 135.327 16.7876C134.904 16.5058 134.552 16.1769 134.27 15.8012C133.988 15.4097 133.847 14.9713 133.847 14.4859C133.847 13.797 134.066 13.2803 134.505 12.9358C134.959 12.5757 135.577 12.3956 136.36 12.3956C136.971 12.3956 137.542 12.5131 138.075 12.7479C138.623 12.9671 139.045 13.2333 139.343 13.5465L140.588 11.4092C139.46 10.4854 138.09 10.0235 136.478 10.0235C134.974 10.0235 133.729 10.4228 132.743 11.2213C131.757 12.0042 131.263 13.1394 131.263 14.6268C131.263 16.4275 132.023 17.8366 133.542 18.8544C133.87 19.0736 134.481 19.4024 135.374 19.8408C136.125 20.2166 136.705 20.5376 137.112 20.8038C137.519 21.0543 137.863 21.3753 138.145 21.7667C138.427 22.1581 138.568 22.62 138.568 23.1524C138.568 23.8412 138.302 24.3815 137.769 24.773C137.253 25.1645 136.579 25.3602 135.75 25.3602C135.108 25.3602 134.434 25.2037 133.729 24.8903C133.041 24.5617 132.532 24.2483 132.203 23.9509L130.958 26.1823C131.365 26.5894 132.031 26.9573 132.955 27.2859ZM146.633 27.7794C145.145 27.7794 144.12 27.3408 143.556 26.4641C143.008 25.5872 142.734 24.366 142.734 22.8001V16.7641H145.271V22.1661C145.271 23.0586 145.318 23.7552 145.412 24.2563C145.521 24.7418 145.725 25.1017 146.022 25.3366C146.335 25.5716 146.797 25.6889 147.408 25.6889C147.846 25.6889 148.269 25.5636 148.676 25.3133C149.083 25.0628 149.412 24.7262 149.663 24.3032C149.929 23.8649 150.062 23.3873 150.062 22.8706V16.7641H152.575V27.5445H150.508L150.226 25.9707C149.835 26.5815 149.342 27.0354 148.747 27.3331C148.167 27.6305 147.463 27.7794 146.633 27.7794ZM157.71 16.7641H155.08V27.5444H157.71V16.7641ZM155.151 14.2511C155.479 14.5798 155.886 14.7443 156.372 14.7443C156.857 14.7443 157.257 14.5798 157.57 14.2511C157.899 13.9222 158.063 13.5151 158.063 13.0298C158.063 12.5913 157.899 12.2156 157.57 11.9024C157.241 11.5893 156.841 11.4327 156.372 11.4327C155.886 11.4327 155.479 11.5893 155.151 11.9024C154.822 12.2156 154.657 12.5913 154.657 13.0298C154.657 13.5151 154.822 13.9222 155.151 14.2511ZM161.105 18.8309H159.203V16.7641H161.105V12.3721L163.665 11.8085V16.7641H166.155V18.8309H163.665V27.5444H161.105V18.8309ZM169.038 27.0277C169.899 27.5288 170.972 27.7794 172.256 27.7794C173.211 27.7794 174.025 27.6853 174.698 27.4973C175.372 27.3095 175.904 27.0902 176.296 26.8399L175.521 25.0312C175.113 25.2505 174.667 25.4227 174.182 25.548C173.697 25.6732 173.078 25.736 172.326 25.736C171.418 25.736 170.706 25.5247 170.189 25.1017C169.688 24.679 169.351 23.9901 169.179 23.035H176.93C176.977 22.5808 177 22.1425 177 21.7197C177 20.06 176.593 18.7761 175.779 17.8679C174.98 16.9442 173.751 16.4823 172.091 16.4823C171.027 16.4823 170.072 16.7171 169.226 17.1869C168.381 17.6409 167.715 18.2985 167.23 19.1597C166.76 20.0209 166.525 21.023 166.525 22.166C166.525 23.1836 166.729 24.1233 167.136 24.9844C167.543 25.8298 168.177 26.511 169.038 27.0277ZM173.9 19.2302C174.338 19.6216 174.55 20.3027 174.534 21.2735H169.179C169.43 19.5042 170.377 18.6195 172.021 18.6195C172.835 18.6195 173.462 18.8231 173.9 19.2302Z" fill="black"/>
</svg>
