<svg width="256" height="182" viewBox="0 0 256 182" fill="none" xmlns="http://www.w3.org/2000/svg">
<path fill-rule="evenodd" clip-rule="evenodd" d="M42.6687 162.608C38.2118 162.608 34.1004 161.571 30.3343 159.499C26.5683 157.426 23.5711 154.474 21.3426 150.641C19.1142 146.808 18 142.351 18 137.27C18 132.145 19.1142 127.677 21.3426 123.866C23.5711 120.056 26.5683 117.125 30.3343 115.075C34.1004 113.025 38.2118 112 42.6687 112C47.1256 112 51.237 113.025 55.003 115.075C58.7691 117.125 61.7663 120.056 63.9947 123.866C66.2232 127.677 67.3374 132.145 67.3374 137.27C67.3374 142.351 66.2232 146.808 63.9947 150.641C61.7663 154.474 58.7691 157.426 55.003 159.499C51.237 161.571 47.1256 162.608 42.6687 162.608ZM42.6685 155.855C45.7437 155.855 48.5515 155.131 51.0919 153.683C53.6323 152.234 55.649 150.117 57.1421 147.332C58.6352 144.546 59.3817 141.215 59.3817 137.337C59.3817 133.415 58.6352 130.061 57.1421 127.276C55.649 124.49 53.6435 122.384 51.1253 120.958C48.6072 119.532 45.7883 118.819 42.6685 118.819C39.5487 118.819 36.7186 119.532 34.1782 120.958C31.6377 122.384 29.6322 124.49 28.1614 127.276C26.6906 130.061 25.9553 133.415 25.9553 137.337C25.9553 141.215 26.7129 144.546 28.2283 147.332C29.7436 150.117 31.7826 152.234 34.3453 153.683C36.908 155.131 39.6824 155.855 42.6685 155.855ZM79.2883 131.254H72.2019V161.939H79.422V146.697C79.422 144.602 79.8788 142.775 80.7924 141.215C81.7061 139.655 82.8537 138.463 84.2354 137.638C85.617 136.814 86.9763 136.401 88.3134 136.401C90.6755 136.401 92.2354 137.259 92.9931 138.975C93.7508 140.691 94.1296 143.488 94.1296 147.365V161.939H101.35V147.165C101.35 143.376 101.06 140.301 100.481 137.939C99.9012 135.577 98.7647 133.738 97.0711 132.424C95.3775 131.109 92.9485 130.451 89.7841 130.451C87.3329 130.451 85.1936 131.053 83.3663 132.256C81.539 133.46 80.2019 134.997 79.3551 136.869L79.2883 131.254ZM122.125 162.608C118.47 162.608 115.417 161.883 112.966 160.435C110.515 158.986 108.71 157.048 107.551 154.619C106.392 152.19 105.813 149.527 105.813 146.63C105.813 143.376 106.492 140.524 107.852 138.073C109.211 135.621 111.094 133.738 113.501 132.424C115.908 131.109 118.626 130.451 121.657 130.451C126.381 130.451 129.891 131.755 132.186 134.362C134.482 136.97 135.629 140.635 135.629 145.36C135.629 146.563 135.562 147.811 135.429 149.103H113.367C113.857 151.822 114.827 153.783 116.275 154.986C117.724 156.19 119.74 156.791 122.325 156.791C124.465 156.791 126.225 156.613 127.607 156.257C128.988 155.9 130.259 155.41 131.417 154.786L133.624 159.933C132.509 160.647 130.994 161.271 129.078 161.805C127.161 162.34 124.844 162.608 122.125 162.608ZM126.805 138.24C128.052 139.376 128.654 141.326 128.61 144.089H113.367C114.08 139.053 116.777 136.535 121.456 136.535C123.774 136.535 125.557 137.103 126.805 138.24ZM151.992 139.944L147.981 144.892V161.939H140.627V112.802H147.981V134.73L164.828 112.802H173.786L156.872 134.396L176.193 161.939H167.034L151.992 139.944ZM182.261 160.435C184.712 161.883 187.765 162.608 191.419 162.608C194.138 162.608 196.456 162.34 198.372 161.805C200.289 161.271 201.804 160.647 202.918 159.933L200.712 154.786C199.553 155.41 198.283 155.9 196.901 156.257C195.52 156.613 193.759 156.791 191.62 156.791C189.035 156.791 187.018 156.19 185.57 154.986C184.121 153.783 183.152 151.822 182.662 149.103H204.723C204.857 147.811 204.924 146.563 204.924 145.36C204.924 140.635 203.776 136.97 201.481 134.362C199.185 131.755 195.676 130.451 190.951 130.451C187.921 130.451 185.202 131.109 182.795 132.424C180.389 133.738 178.506 135.621 177.146 138.073C175.787 140.524 175.107 143.376 175.107 146.63C175.107 149.527 175.687 152.19 176.845 154.619C178.004 157.048 179.809 158.986 182.261 160.435ZM197.904 144.089C197.949 141.326 197.347 139.376 196.099 138.24C194.851 137.103 193.068 136.535 190.751 136.535C186.071 136.535 183.375 139.053 182.662 144.089H197.904ZM205.576 131.254L218.278 162.875L211.66 178.786H219.147L238 131.254H230.111L223.225 150.775L221.755 155.521L220.284 150.775L213.732 131.254H205.576Z" fill="black"/>
<path d="M128.24 71.2378C132.944 71.2378 136.758 67.4242 136.758 62.72C136.758 58.0157 132.944 54.2022 128.24 54.2022C123.536 54.2022 119.722 58.0157 119.722 62.72C119.722 67.4242 123.536 71.2378 128.24 71.2378Z" fill="black"/>
<path fill-rule="evenodd" clip-rule="evenodd" d="M83.2344 18.2031C80 24.551 80 32.8609 80 49.4807V50.5193C80 67.1391 80 75.449 83.2344 81.7969C86.0795 87.3807 90.6193 91.9205 96.2031 94.7656C102.551 98 110.861 98 127.481 98H128.519C145.139 98 153.449 98 159.797 94.7656C165.381 91.9205 169.92 87.3807 172.766 81.7969C176 75.449 176 67.1391 176 50.5193V49.4807C176 32.8609 176 24.551 172.766 18.2031C169.92 12.6193 165.381 8.07951 159.797 5.23443C153.449 2 145.139 2 128.519 2H127.481C110.861 2 102.551 2 96.2031 5.23443C90.6193 8.07951 86.0795 12.6193 83.2344 18.2031ZM119.004 21.68H132.682V44.2213H124.201V28.9364H116.604L119.004 21.68ZM128.24 78.32C136.856 78.32 143.84 71.3356 143.84 62.72C143.84 54.1044 136.856 47.12 128.24 47.12C119.624 47.12 112.64 54.1044 112.64 62.72C112.64 71.3356 119.624 78.32 128.24 78.32Z" fill="black"/>
</svg>
