<svg width="256" height="66" viewBox="0 0 256 66" fill="none" xmlns="http://www.w3.org/2000/svg">
<path fill-rule="evenodd" clip-rule="evenodd" d="M103.468 50.8346C100.312 50.8346 97.4005 50.1008 94.7338 48.6334C92.0671 47.1659 89.9448 45.0752 88.3669 42.3611C86.789 39.6471 86 36.4913 86 32.8936C86 29.2644 86.789 26.1007 88.3669 23.4024C89.9448 20.7042 92.0671 18.6292 94.7338 17.1775C97.4005 15.7258 100.312 15 103.468 15C106.623 15 109.535 15.7258 112.201 17.1775C114.868 18.6292 116.99 20.7042 118.568 23.4024C120.146 26.1007 120.935 29.2644 120.935 32.8936C120.935 36.4913 120.146 39.6471 118.568 42.3611C116.99 45.0752 114.868 47.1659 112.201 48.6334C109.535 50.1008 106.623 50.8346 103.468 50.8346ZM103.468 46.0534C105.645 46.0534 107.633 45.5406 109.432 44.515C111.231 43.4893 112.659 41.9903 113.716 40.0179C114.773 38.0455 115.302 35.6865 115.302 32.9409C115.302 30.1638 114.773 27.789 113.716 25.8166C112.659 23.8442 111.239 22.3531 109.456 21.3432C107.673 20.3333 105.677 19.8284 103.468 19.8284C101.258 19.8284 99.2545 20.3333 97.4556 21.3432C95.6568 22.3531 94.2367 23.8442 93.1952 25.8166C92.1538 27.789 91.6331 30.1638 91.6331 32.9409C91.6331 35.6865 92.1696 38.0455 93.2426 40.0179C94.3156 41.9903 95.7594 43.4893 97.574 44.515C99.3886 45.5406 101.353 46.0534 103.468 46.0534ZM129.397 28.6333H124.38V50.3612H129.492V39.5682C129.492 38.085 129.816 36.7911 130.462 35.6866C131.109 34.582 131.922 33.7378 132.9 33.154C133.879 32.5702 134.841 32.2783 135.788 32.2783C137.461 32.2783 138.565 32.8857 139.102 34.1008C139.638 35.3158 139.906 37.296 139.906 40.0416V50.3612H145.019V39.8996C145.019 37.2171 144.814 35.0396 144.403 33.367C143.993 31.6944 143.188 30.3926 141.989 29.4617C140.79 28.5307 139.07 28.0652 136.829 28.0652C135.094 28.0652 133.579 28.4912 132.285 29.3433C130.991 30.1954 130.044 31.2842 129.445 32.6096L129.397 28.6333ZM159.729 50.8346C157.142 50.8346 154.98 50.3218 153.244 49.2961C151.508 48.2705 150.23 46.8977 149.41 45.1778C148.589 43.4578 148.179 41.5722 148.179 39.5209C148.179 37.2171 148.66 35.1974 149.623 33.4617C150.585 31.726 151.919 30.3926 153.623 29.4617C155.327 28.5307 157.252 28.0652 159.398 28.0652C162.743 28.0652 165.228 28.9883 166.854 30.8345C168.479 32.6806 169.292 35.2763 169.292 38.6215C169.292 39.4736 169.244 40.3572 169.15 41.2724H153.528C153.875 43.1975 154.562 44.586 155.587 45.4381C156.613 46.2902 158.041 46.7162 159.871 46.7162C161.386 46.7162 162.633 46.59 163.611 46.3375C164.589 46.0851 165.489 45.7379 166.309 45.2961L167.871 48.9411C167.083 49.446 166.01 49.8878 164.653 50.2665C163.296 50.6452 161.654 50.8346 159.729 50.8346ZM163.043 33.5799C163.927 34.3847 164.353 35.7653 164.321 37.722H153.528C154.033 34.1559 155.942 32.3728 159.256 32.3728C160.897 32.3728 162.159 32.7752 163.043 33.5799ZM180.878 34.7871L178.038 38.2901V50.3612H172.831V15.5681H178.038V31.0948L189.967 15.5681H196.31L184.334 30.8581L198.014 50.3612H191.529L180.878 34.7871ZM202.311 49.2961C204.047 50.3218 206.208 50.8346 208.796 50.8346C210.721 50.8346 212.362 50.6452 213.719 50.2665C215.076 49.8878 216.149 49.446 216.938 48.9411L215.376 45.2961C214.555 45.7379 213.656 46.0851 212.678 46.3375C211.699 46.59 210.453 46.7162 208.938 46.7162C207.108 46.7162 205.68 46.2902 204.654 45.4381C203.628 44.586 202.942 43.1975 202.595 41.2724H218.216C218.311 40.3572 218.358 39.4736 218.358 38.6215C218.358 35.2763 217.546 32.6806 215.92 30.8345C214.295 28.9883 211.81 28.0652 208.465 28.0652C206.319 28.0652 204.394 28.5307 202.689 29.4617C200.985 30.3926 199.652 31.726 198.689 33.4617C197.727 35.1974 197.246 37.2171 197.246 39.5209C197.246 41.5722 197.656 43.4578 198.476 45.1778C199.297 46.8977 200.575 48.2705 202.311 49.2961ZM213.388 37.722C213.419 35.7653 212.993 34.3847 212.11 33.5799C211.226 32.7752 209.964 32.3728 208.323 32.3728C205.009 32.3728 203.1 34.1559 202.595 37.722H213.388ZM218.82 28.6332L227.814 51.0239L223.128 62.2902H228.43L241.779 28.6332H236.193L231.317 42.4558L230.276 45.8167L229.235 42.4558L224.596 28.6332H218.82Z" fill="black"/>
<path d="M42.14 45.3887C44.8842 45.3887 47.1087 43.1641 47.1087 40.42C47.1087 37.6758 44.8842 35.4513 42.14 35.4513C39.3959 35.4513 37.1713 37.6758 37.1713 40.42C37.1713 43.1641 39.3959 45.3887 42.14 45.3887Z" fill="black"/>
<path fill-rule="evenodd" clip-rule="evenodd" d="M15.8867 14.4518C14 18.1547 14 23.0022 14 32.6971V33.3029C14 42.9978 14 47.8453 15.8867 51.5482C17.5464 54.8054 20.1946 57.4536 23.4518 59.1133C27.1547 61 32.0022 61 41.6971 61H42.3029C51.9978 61 56.8453 61 60.5482 59.1133C63.8054 57.4536 66.4536 54.8054 68.1133 51.5482C70 47.8453 70 42.9978 70 33.3029V32.6971C70 23.0022 70 18.1547 68.1133 14.4518C66.4536 11.1946 63.8054 8.54638 60.5482 6.88675C56.8453 5 51.9978 5 42.3029 5H41.6971C32.0022 5 27.1547 5 23.4518 6.88675C20.1946 8.54638 17.5464 11.1946 15.8867 14.4518ZM36.752 16.48H44.7313V29.6291H39.7841V20.7129H35.3522L36.752 16.48ZM42.14 49.52C47.1658 49.52 51.24 45.4458 51.24 40.42C51.24 35.3942 47.1658 31.32 42.14 31.32C37.1142 31.32 33.04 35.3942 33.04 40.42C33.04 45.4458 37.1142 49.52 42.14 49.52Z" fill="black"/>
</svg>
