<svg width="231" height="48" viewBox="0 0 231 48" fill="none" xmlns="http://www.w3.org/2000/svg">
<path d="M63.12 34.6189C65.4721 34.6189 67.3789 32.7121 67.3789 30.36C67.3789 28.0079 65.4721 26.1011 63.12 26.1011C60.7679 26.1011 58.8611 28.0079 58.8611 30.36C58.8611 32.7121 60.7679 34.6189 63.12 34.6189Z" fill="black"/>
<path fill-rule="evenodd" clip-rule="evenodd" d="M40.6172 8.10153C39 11.2755 39 15.4304 39 23.7403V24.2597C39 32.5696 39 36.7245 40.6172 39.8985C42.0398 42.6904 44.3096 44.9602 47.1015 46.3828C50.2755 48 54.4304 48 62.7403 48H63.2597C71.5696 48 75.7245 48 78.8985 46.3828C81.6904 44.9602 83.9602 42.6904 85.3828 39.8985C87 36.7245 87 32.5696 87 24.2597V23.7403C87 15.4304 87 11.2755 85.3828 8.10153C83.9602 5.30964 81.6904 3.03976 78.8985 1.61721C75.7245 0 71.5696 0 63.2597 0H62.7403C54.4304 0 50.2755 0 47.1015 1.61721C44.3096 3.03976 42.0398 5.30964 40.6172 8.10153ZM58.5018 9.83999H65.3411V21.1106H61.1006V13.4682H57.3019L58.5018 9.83999ZM63.12 38.16C67.4278 38.16 70.92 34.6678 70.92 30.36C70.92 26.0522 67.4278 22.56 63.12 22.56C58.8122 22.56 55.32 26.0522 55.32 30.36C55.32 34.6678 58.8122 38.16 63.12 38.16Z" fill="black"/>
<path fill-rule="evenodd" clip-rule="evenodd" d="M108.715 41.9999C106.81 41.9999 104.921 41.6665 103.048 40.9995C101.175 40.3331 99.8259 39.5872 99 38.7619L101.524 34.2377C102.191 34.8408 103.222 35.4761 104.619 36.1424C106.048 36.7777 107.413 37.0951 108.715 37.0951C110.397 37.0951 111.762 36.6982 112.81 35.9046C113.889 35.1109 114.429 34.0154 114.429 32.6187C114.429 31.5394 114.143 30.6029 113.572 29.8094C113 29.0157 112.302 28.3649 111.476 27.857C110.651 27.3173 109.476 26.6665 107.953 25.9046C106.143 25.0157 104.905 24.349 104.238 23.9046C101.159 21.8411 99.6192 18.984 99.6192 15.3333C99.6192 12.3174 100.619 10.0158 102.619 8.42853C104.619 6.80951 107.143 6 110.191 6C113.461 6 116.238 6.93651 118.524 8.80947L116 13.1428C115.397 12.5079 114.54 11.9682 113.429 11.5237C112.35 11.0476 111.191 10.8095 109.952 10.8095C108.365 10.8095 107.111 11.1745 106.191 11.9047C105.302 12.6031 104.857 13.6507 104.857 15.0475C104.857 16.0317 105.143 16.9205 105.715 17.7142C106.286 18.4761 107 19.1428 107.857 19.7142C108.746 20.2856 109.937 20.984 111.429 21.8094C112.858 22.603 113.952 23.238 114.714 23.7142C115.476 24.1586 116.191 24.6982 116.857 25.3332C117.778 26.1586 118.524 27.1427 119.095 28.2855C119.667 29.4284 119.952 30.6823 119.952 32.0474C119.952 34.1744 119.46 35.984 118.476 37.4758C117.524 38.9681 116.191 40.0952 114.477 40.8567C112.794 41.6187 110.873 41.9999 108.715 41.9999ZM130.781 42C127.765 42 125.685 41.1107 124.543 39.3333C123.432 37.5553 122.876 35.0793 122.876 31.9046V19.6666H128.019V30.6191C128.019 32.4287 128.114 33.841 128.304 34.857C128.527 35.8413 128.94 36.571 129.543 37.0473C130.177 37.5237 131.114 37.7615 132.352 37.7615C133.241 37.7615 134.098 37.5075 134.923 37.0001C135.749 36.4921 136.416 35.8096 136.924 34.952C137.463 34.0633 137.733 33.0951 137.733 32.0474V19.6666H142.828V41.5237H138.638L138.066 38.3329C137.273 39.5712 136.273 40.4916 135.067 41.0952C133.892 41.6982 132.463 42 130.781 42ZM153.24 19.6665H147.908V41.5236H153.24V19.6665ZM148.05 14.5714C148.717 15.238 149.542 15.5713 150.526 15.5713C151.511 15.5713 152.32 15.238 152.955 14.5714C153.622 13.9047 153.955 13.0793 153.955 12.0952C153.955 11.2063 153.622 10.4444 152.955 9.8095C152.288 9.17457 151.478 8.8571 150.526 8.8571C149.542 8.8571 148.717 9.17457 148.05 9.8095C147.383 10.4444 147.05 11.2063 147.05 12.0952C147.05 13.0793 147.383 13.9047 148.05 14.5714ZM160.123 23.857H156.266V19.6666H160.123V10.7619L165.313 9.61903V19.6666H170.361V23.857H165.313V41.5237H160.123V23.857ZM176.207 40.4759C177.953 41.4919 180.128 41.9999 182.731 41.9999C184.668 41.9999 186.318 41.8093 187.684 41.428C189.049 41.0473 190.128 40.6027 190.922 40.0952L189.35 36.4281C188.525 36.8727 187.62 37.2218 186.636 37.4758C185.652 37.7298 184.398 37.8571 182.874 37.8571C181.033 37.8571 179.588 37.4285 178.541 36.571C177.525 35.7139 176.842 34.3172 176.493 32.3808H192.207C192.303 31.4599 192.35 30.5712 192.35 29.7141C192.35 26.349 191.525 23.7459 189.874 21.9046C188.255 20.0316 185.763 19.0951 182.398 19.0951C180.239 19.0951 178.303 19.5713 176.588 20.5237C174.874 21.4443 173.525 22.7776 172.541 24.5237C171.588 26.2697 171.112 28.3014 171.112 30.619C171.112 32.6821 171.525 34.5873 172.35 36.3331C173.176 38.0471 174.461 39.4283 176.207 40.4759ZM186.064 24.6665C186.953 25.4602 187.382 26.8411 187.35 28.8093H176.493C177.001 25.2221 178.922 23.4284 182.255 23.4284C183.906 23.4284 185.176 23.8411 186.064 24.6665Z" fill="black"/>
</svg>
