<svg width="185" height="39" viewBox="0 0 185 39" fill="none" xmlns="http://www.w3.org/2000/svg">
<path fill-rule="evenodd" clip-rule="evenodd" d="M4.61309 7.0713C4 8.27456 4 9.8497 4 13V27C4 30.1503 4 31.7254 4.61309 32.9287C5.15238 33.9871 6.01289 34.8476 7.0713 35.3869C8.27456 36 9.8497 36 13 36H27C30.1503 36 31.7254 36 32.9287 35.3869C33.9871 34.8476 34.8476 33.9871 35.3869 32.9287C36 31.7254 36 30.1503 36 27V13C36 9.8497 36 8.27456 35.3869 7.0713C34.8476 6.01289 33.9871 5.15238 32.9287 4.61309C31.7254 4 30.1503 4 27 4H13C9.8497 4 8.27456 4 7.0713 4.61309C6.01289 5.15238 5.15238 6.01289 4.61309 7.0713ZM25.3542 24.8485C25.3542 22.0034 22.9663 19.697 20.0208 19.697C17.0753 19.697 14.6875 22.0034 14.6875 24.8485C14.6875 27.6936 17.0753 30 20.0208 30C22.9663 30 25.3542 27.6936 25.3542 24.8485ZM17.1088 24.8484C17.1088 23.2949 18.4126 22.0356 20.0209 22.0356C21.6291 22.0356 22.9329 23.2949 22.9329 24.8484C22.9329 26.4019 21.6291 27.6612 20.0209 27.6612C18.4126 27.6612 17.1088 26.4019 17.1088 24.8484ZM21.755 18.0907V10H16.6888L15.8 12.6045H18.6139V18.0907H21.755Z" fill="black"/>
<path fill-rule="evenodd" clip-rule="evenodd" d="M49.3874 27.1552C48.0527 27.1552 46.8182 26.8481 45.6837 26.2342C44.5626 25.6069 43.6683 24.7194 43.001 23.5716C42.3337 22.4238 42 21.0891 42 19.5676C42 18.0327 42.3337 16.698 43.001 15.5636C43.6683 14.4157 44.5626 13.5349 45.6837 12.9209C46.8182 12.307 48.0527 12 49.3874 12C50.7221 12 51.95 12.307 53.0711 12.9209C54.2055 13.5349 55.1064 14.4157 55.7738 15.5636C56.4411 16.698 56.7748 18.0327 56.7748 19.5676C56.7748 21.0891 56.4411 22.4238 55.7738 23.5716C55.1064 24.7194 54.2055 25.6069 53.0711 26.2342C51.95 26.8481 50.7221 27.1552 49.3874 27.1552ZM49.3874 25.1331C50.3083 25.1331 51.1491 24.9196 51.9099 24.4925C52.6707 24.0521 53.2713 23.4181 53.7117 22.5906C54.1655 21.7498 54.3924 20.7488 54.3924 19.5876C54.3924 18.4131 54.1655 17.4121 53.7117 16.5846C53.2713 15.7437 52.6707 15.1098 51.9099 14.6827C51.1625 14.2556 50.3216 14.0421 49.3874 14.0421C48.4531 14.0421 47.6056 14.2556 46.8448 14.6827C46.0841 15.1098 45.4835 15.7437 45.043 16.5846C44.6026 17.4121 44.3824 18.4131 44.3824 19.5876C44.3824 20.7488 44.6093 21.7498 45.0631 22.5906C45.5169 23.4181 46.1241 24.0521 46.8849 24.4925C47.659 24.9196 48.4932 25.1331 49.3874 25.1331ZM58.3369 17.7658H60.4589L60.4789 19.4474C60.7326 18.8869 61.1331 18.4264 61.6802 18.0661C62.2275 17.7057 62.8681 17.5255 63.6022 17.5255C64.5498 17.5255 65.2772 17.7257 65.7843 18.1261C66.2916 18.5132 66.6319 19.0604 66.8053 19.7678C66.9789 20.4751 67.0655 21.396 67.0655 22.5305V26.9549H64.9035V22.5906C64.9035 21.4294 64.7901 20.5953 64.5632 20.0881C64.3362 19.5676 63.8691 19.3073 63.1617 19.3073C62.7612 19.3073 62.3544 19.4341 61.9405 19.6877C61.5268 19.9279 61.1797 20.2816 60.8994 20.7488C60.6326 21.2159 60.4992 21.7631 60.4992 22.3904V26.9549H58.3369V17.7658ZM70.6531 26.5144C71.3873 26.9415 72.3015 27.1552 73.3959 27.1552C74.2101 27.1552 74.904 27.0752 75.4779 26.9149C76.0519 26.7547 76.5058 26.5678 76.8395 26.3544L76.1787 24.8128C75.8316 24.9997 75.4514 25.1465 75.0374 25.2532C74.6238 25.36 74.0967 25.4134 73.4559 25.4134C72.6817 25.4134 72.0747 25.2332 71.6341 24.8729C71.2071 24.5125 70.92 23.9253 70.7734 23.1111H77.38C77.42 22.724 77.44 22.3504 77.44 21.99C77.44 20.5752 77.0929 19.4808 76.399 18.7067C75.7182 17.9192 74.6706 17.5255 73.2557 17.5255C72.3481 17.5255 71.5341 17.7257 70.8134 18.1261C70.0926 18.5132 69.5253 19.0737 69.1116 19.8078C68.7111 20.5419 68.5111 21.396 68.5111 22.3704C68.5111 23.2379 68.6845 24.0387 69.0316 24.7728C69.3785 25.4935 69.919 26.0742 70.6531 26.5144ZM74.7972 19.8679C75.1711 20.2015 75.3511 20.7821 75.3379 21.6096H70.7734C70.9868 20.1014 71.7944 19.3473 73.1957 19.3473C73.8898 19.3473 74.4235 19.5209 74.7972 19.8679ZM82.4497 20.3684L81.2484 21.8498V26.9549H79.0461V12.2402H81.2484V18.8068L86.2935 12.2402H88.976L83.911 18.7067L89.6968 26.9549H86.954L82.4497 20.3684ZM91.6132 26.5144C92.3474 26.9415 93.2616 27.1552 94.356 27.1552C95.1702 27.1552 95.8641 27.0752 96.438 26.9149C97.012 26.7547 97.4659 26.5678 97.7995 26.3544L97.1388 24.8128C96.7917 24.9997 96.4114 25.1465 95.9975 25.2532C95.5839 25.36 95.0568 25.4134 94.416 25.4134C93.6418 25.4134 93.0347 25.2332 92.5942 24.8729C92.1671 24.5125 91.8803 23.9253 91.7335 23.1111H98.3401C98.3801 22.724 98.4001 22.3504 98.4001 21.99C98.4001 20.5752 98.053 19.4808 97.359 18.7067C96.6783 17.9192 95.6307 17.5255 94.2157 17.5255C93.3084 17.5255 92.4942 17.7257 91.7735 18.1261C91.0527 18.5132 90.4854 19.0737 90.0717 19.8078C89.6712 20.5419 89.4712 21.396 89.4712 22.3704C89.4712 23.2379 89.6446 24.0387 89.9917 24.7728C90.3385 25.4935 90.8793 26.0742 91.6132 26.5144ZM95.7575 19.8679C96.1312 20.2015 96.3112 20.7821 96.298 21.6096H91.7335C91.9469 20.1014 92.7545 19.3473 94.1558 19.3473C94.8499 19.3473 95.3836 19.5209 95.7575 19.8679ZM102.509 27.2352L98.7048 17.7657H101.147L103.109 23.6116L103.55 25.033L103.99 23.6116L106.052 17.7657H108.414L102.769 32H100.527L102.509 27.2352ZM116.807 12.2402H113.263V26.9549H116.927C118.822 26.9549 120.35 26.5947 121.511 25.8739C122.686 25.1532 123.527 24.2256 124.034 23.0911C124.541 21.9432 124.795 20.6954 124.795 19.3473C124.795 17.4121 124.201 15.7437 123.013 14.3423C121.839 12.9409 119.77 12.2402 116.807 12.2402ZM121.171 23.4114C120.344 24.4524 119.009 24.9729 117.167 24.9729H115.505V14.2022H117.167C118.995 14.2022 120.33 14.6893 121.171 15.6637C122.012 16.638 122.432 17.8992 122.432 19.4474C122.432 21.0357 122.012 22.357 121.171 23.4114ZM130.45 27.1552C129.355 27.1552 128.441 26.9415 127.707 26.5144C126.973 26.0742 126.432 25.4935 126.086 24.7728C125.738 24.0387 125.565 23.2379 125.565 22.3704C125.565 21.396 125.765 20.5419 126.166 19.8078C126.579 19.0737 127.147 18.5132 127.867 18.1261C128.588 17.7257 129.402 17.5255 130.31 17.5255C131.725 17.5255 132.772 17.9192 133.453 18.7067C134.147 19.4808 134.494 20.5752 134.494 21.99C134.494 22.3504 134.474 22.724 134.434 23.1111H127.827C127.974 23.9253 128.261 24.5125 128.688 24.8729C129.129 25.2332 129.736 25.4134 130.51 25.4134C131.151 25.4134 131.678 25.36 132.091 25.2532C132.505 25.1465 132.886 24.9997 133.233 24.8128L133.893 26.3544C133.56 26.5678 133.106 26.7547 132.532 26.9149C131.958 27.0752 131.264 27.1552 130.45 27.1552ZM132.392 21.6096C132.405 20.7821 132.225 20.2015 131.851 19.8679C131.477 19.5209 130.944 19.3473 130.25 19.3473C128.848 19.3473 128.041 20.1014 127.827 21.6096H132.392ZM137.121 26.9149C137.815 27.0752 138.483 27.1552 139.123 27.1552C140.178 27.1552 141.045 26.9215 141.726 26.4544C142.42 25.9873 142.767 25.3 142.767 24.3924C142.767 23.7251 142.56 23.1778 142.146 22.7508C141.732 22.3236 141.099 21.9433 140.244 21.6096C139.884 21.4761 139.677 21.4027 139.624 21.3894C139.05 21.1892 138.636 21.009 138.382 20.8489C138.129 20.6753 138.002 20.4284 138.002 20.1081C138.002 19.5342 138.476 19.2472 139.423 19.2472C139.89 19.2472 140.311 19.314 140.685 19.4474C141.072 19.5676 141.352 19.7144 141.526 19.8879L142.306 18.1662C142.026 17.9793 141.619 17.8258 141.085 17.7057C140.565 17.5856 140.031 17.5255 139.483 17.5255C138.376 17.5255 137.488 17.7658 136.821 18.2462C136.167 18.7134 135.84 19.3674 135.84 20.2082C135.84 20.9423 136.073 21.5362 136.541 21.99C137.008 22.4304 137.642 22.8108 138.442 23.1311L139.203 23.4114C139.75 23.6116 140.131 23.7851 140.344 23.9319C140.558 24.0787 140.665 24.2856 140.665 24.5526C140.665 25.1532 140.151 25.4534 139.123 25.4534C138.095 25.4534 137.181 25.1732 136.38 24.6126L135.66 26.3144C135.953 26.5413 136.44 26.7415 137.121 26.9149ZM152.52 26.9549H149.977L148.115 23.9519L147.594 22.9309L146.393 24.2322V26.9549H144.311V12.2402H146.373V20.3083L146.333 21.8699L149.837 17.7658H152.5L149.036 21.6096L152.52 26.9549ZM152.619 19.5275H154.241V26.9549H156.423V19.5275H158.545V17.7657H156.423V13.5415L154.241 14.022V17.7657H152.619V19.5275ZM163.786 27.1552C162.838 27.1552 161.997 26.9415 161.263 26.5144C160.529 26.0873 159.962 25.5068 159.562 24.7728C159.161 24.0387 158.961 23.2246 158.961 22.3303C158.961 21.4494 159.154 20.642 159.542 19.9079C159.942 19.1738 160.509 18.5933 161.243 18.1662C161.977 17.7391 162.825 17.5255 163.786 17.5255C164.747 17.5255 165.588 17.7391 166.308 18.1662C167.042 18.5933 167.603 19.1738 167.99 19.9079C168.39 20.642 168.59 21.4494 168.59 22.3303C168.59 23.2246 168.39 24.0387 167.99 24.7728C167.59 25.5068 167.022 26.0873 166.288 26.5144C165.568 26.9415 164.733 27.1552 163.786 27.1552ZM163.846 25.3934C164.62 25.3934 165.227 25.1064 165.668 24.5325C166.121 23.9586 166.348 23.2379 166.348 22.3704C166.348 21.5028 166.108 20.7754 165.628 20.1882C165.147 19.5876 164.513 19.2873 163.726 19.2873C162.965 19.2873 162.351 19.5809 161.884 20.1682C161.43 20.7554 161.203 21.4895 161.203 22.3704C161.203 23.2246 161.45 23.9453 161.944 24.5325C162.438 25.1064 163.072 25.3934 163.846 25.3934ZM172.221 17.7658H170.139V31.8197H172.241L172.221 25.5736C172.541 26.0808 172.982 26.4744 173.542 26.7547C174.116 27.0218 174.79 27.1552 175.564 27.1552C176.392 27.1552 177.139 26.9549 177.806 26.5544C178.487 26.1542 179.021 25.5869 179.408 24.8529C179.808 24.1188 180.009 23.2713 180.009 22.3103C180.009 20.7621 179.608 19.5809 178.807 18.7668C178.007 17.9393 176.959 17.5255 175.664 17.5255C174.103 17.5255 172.955 18.1728 172.221 19.4675V17.7658ZM177.066 24.5125C176.599 25.0597 175.931 25.3333 175.064 25.3333C174.57 25.3333 174.116 25.2132 173.702 24.973C173.289 24.7194 172.955 24.3724 172.701 23.9319C172.461 23.4781 172.341 22.9643 172.341 22.3904V22.2502C172.341 21.6764 172.461 21.1758 172.701 20.7488C172.955 20.3083 173.289 19.9746 173.702 19.7477C174.129 19.5075 174.583 19.3874 175.064 19.3874C175.945 19.3874 176.612 19.661 177.066 20.2082C177.533 20.7421 177.766 21.4628 177.766 22.3704C177.766 23.2379 177.533 23.9519 177.066 24.5125Z" fill="black"/>
</svg>
