<svg width="24" height="24" viewBox="0 0 24 24" xmlns="http://www.w3.org/2000/svg">
    <path d="M12 0C5.383 0 0 5.383 0 12C0 18.617 5.383 24 12 24C18.617 24 24 18.617 24 12C24 5.383 18.617 0 12 0ZM12 22C9.307 22 6.864 20.925 5.064 19.187C5.362 17.278 6.74 16.54 8.5 15.954C9.683 15.56 10.194 14.517 10.419 13.673C8.997 13.059 8 11.647 8 10V9C8 6.791 9.791 5 12 5C14.209 5 16 6.791 16 9V10C16 11.647 15.003 13.059 13.581 13.673C13.808 14.519 14.322 15.562 15.5 15.954C17.262 16.541 18.641 17.256 18.937 19.187C17.137 20.925 14.693 22 12 22Z" fill-rule="evenodd"/>
</svg>
