<svg xmlns="http://www.w3.org/2000/svg" style="fill: none" fill="none" viewBox="0 0 24 24" stroke="currentColor">
    <path d="M21 12.9177C21 14.0996 20.7672 15.2699 20.3149 16.3619C19.8626 17.4538 19.1997 18.446 18.364 19.2817C17.5282 20.1174 16.5361 20.7803 15.4442 21.2326C14.3522 21.6849 13.1819 21.9177 12 21.9177C10.8181 21.9177 9.64778 21.6849 8.55585 21.2326C7.46392 20.7803 6.47177 20.1174 5.63604 19.2817C4.80031 18.446 4.13738 17.4538 3.68508 16.3619C3.23279 15.2699 3 14.0996 3 12.9177C3 10.5308 3.94821 8.24159 5.63604 6.55376C7.32387 4.86594 9.61305 3.91772 12 3.91772C14.3869 3.91772 16.6761 4.86594 18.364 6.55376C20.0518 8.24159 21 10.5308 21 12.9177Z" stroke-width="2" stroke-linecap="round" stroke-linejoin="round"/>
    <path d="M9.93697 10.8205L15.5356 9.46446L14.1214 15.1213L8.46456 16.5355L9.93697 10.8205Z" stroke-width="2" stroke-linecap="round" stroke-linejoin="round"/>
</svg>
