<svg width="22" height="22" viewBox="0 0 22 22" xmlns="http://www.w3.org/2000/svg">
    <path d="M21.4885 9.3728C20.8045 8.40961 20.0404 7.5058 19.2046 6.67096L15.5193 10.3562C15.5548 10.5647 15.576 10.7754 15.5826 10.9868C15.5826 12.2021 15.0998 13.3677 14.2404 14.2271C13.381 15.0865 12.2154 15.5693 11.0001 15.5693C10.7887 15.5627 10.578 15.5416 10.3695 15.506L7.38446 18.4911C8.52884 18.975 9.75759 19.2279 11.0001 19.2353C16.2314 19.2353 20.078 14.5959 21.4894 12.5998C21.8218 12.1274 22.0002 11.5638 22 10.9862C21.9998 10.4085 21.8212 9.84503 21.4885 9.3728Z" fill-rule="evenodd"/>
    <path d="M11.0001 2.73828C5.76868 2.73828 1.92671 7.37761 0.510718 9.37375C0.17837 9.84597 0 10.4093 0 10.9868C0 11.5642 0.17837 12.1276 0.510718 12.5998C1.7201 14.3238 3.2008 15.8404 4.89526 17.0907L7.7584 14.2275C7.33282 13.802 6.99522 13.2968 6.76488 12.7408C6.53453 12.1848 6.41595 11.5889 6.41591 10.9871C6.41582 9.77168 6.89857 8.606 7.75795 7.7465C8.61732 6.887 9.78294 6.40409 10.9984 6.404C12.2138 6.40392 13.3795 6.88666 14.239 7.74604L7.75932 14.2275L17.1076 4.87923C15.3472 3.54183 13.2103 2.79275 11.0001 2.73828Z" fill-rule="evenodd"/>
    <path d="M0.918747 21.9848C0.737508 21.9847 0.56035 21.9309 0.409669 21.8302C0.258987 21.7295 0.141547 21.5864 0.0721953 21.419C0.00284366 21.2515 -0.0153058 21.0673 0.0200414 20.8895C0.0553886 20.7117 0.142645 20.5485 0.270781 20.4203L20.4338 0.257273C20.6066 0.0903246 20.8382 -0.00205353 21.0785 3.46461e-05C21.3188 0.00212282 21.5486 0.0985102 21.7186 0.268437C21.8885 0.438364 21.9849 0.668233 21.987 0.908537C21.9891 1.14884 21.8967 1.38035 21.7297 1.5532L1.56671 21.7162C1.39488 21.8881 1.1618 21.9847 0.918747 21.9848Z" fill-rule="evenodd"/>
</svg>
