<svg width="22" height="23" viewBox="0 0 22 23" xmlns="http://www.w3.org/2000/svg">
    <path d="M21.625 8.21901L11.625 0.219009C11.4476 0.0770056 11.2272 -0.000366211 11 -0.000366211C10.7728 -0.000366211 10.5524 0.0770056 10.375 0.219009L0.375 8.21901C0.257932 8.31274 0.163444 8.4316 0.098531 8.56679C0.0336184 8.70198 -5.61965e-05 8.85004 7.03962e-08 9.00001V22C7.03962e-08 22.2652 0.105357 22.5196 0.292893 22.7071C0.48043 22.8947 0.734784 23 1 23H8V15H14V23H21C21.2652 23 21.5196 22.8947 21.7071 22.7071C21.8946 22.5196 22 22.2652 22 22V9.00001C22.0001 8.85004 21.9664 8.70198 21.9015 8.56679C21.8366 8.4316 21.7421 8.31274 21.625 8.21901Z" fill-rule="evenodd"/>
</svg>
