<svg width="22" height="24" viewBox="0 0 22 24" xmlns="http://www.w3.org/2000/svg">
    <path d="M19 10V8C19 5.87827 18.1571 3.84344 16.6569 2.34315C15.1566 0.842855 13.1217 0 11 0C8.87827 0 6.84344 0.842855 5.34315 2.34315C3.84285 3.84344 3 5.87827 3 8V10C2.97544 10.61 2.82539 11.2083 2.55922 11.7577C2.29305 12.3071 1.91647 12.7957 1.453 13.193C0.620196 13.9026 0.0985839 14.9103 0 16C0 18.5 4.112 20 11 20C17.888 20 22 18.5 22 16C21.9014 14.9103 21.3798 13.9026 20.547 13.193C20.0835 12.7957 19.707 12.3071 19.4408 11.7577C19.1746 11.2083 19.0246 10.61 19 10Z" fill-rule="evenodd"/>
    <path d="M8.14502 21.9C8.33561 22.508 8.71532 23.0393 9.22883 23.4164C9.74235 23.7936 10.3629 23.997 11 23.997C11.6372 23.997 12.2577 23.7936 12.7712 23.4164C13.2847 23.0393 13.6644 22.508 13.855 21.9C12.961 21.966 12.011 22 11 22C9.98902 22 9.03902 21.968 8.14502 21.9Z" fill-rule="evenodd"/>
</svg>
