<svg width="16" height="16" viewBox="0 0 16 16" fill="none" xmlns="http://www.w3.org/2000/svg">
<path fill-rule="evenodd" clip-rule="evenodd" d="M2 1H11V15H2L2 1ZM1 1C1 0.447715 1.44772 0 2 0H11C11.5523 0 12 0.447715 12 1V15C12 15.5523 11.5523 16 11 16H2C1.44771 16 1 15.5523 1 15V1ZM3 2.25C3 2.11193 3.11193 2 3.25 2H9.75C9.88807 2 10 2.11193 10 2.25V6.75C10 6.88807 9.88807 7 9.75 7H3.25C3.11193 7 3 6.88807 3 6.75V2.25ZM4 8.5C4 8.77614 3.77614 9 3.5 9C3.22386 9 3 8.77614 3 8.5C3 8.22386 3.22386 8 3.5 8C3.77614 8 4 8.22386 4 8.5ZM5.5 9C5.77614 9 6 8.77614 6 8.5C6 8.22386 5.77614 8 5.5 8C5.22386 8 5 8.22386 5 8.5C5 8.77614 5.22386 9 5.5 9ZM8 8.5C8 8.77614 7.77614 9 7.5 9C7.22386 9 7 8.77614 7 8.5C7 8.22386 7.22386 8 7.5 8C7.77614 8 8 8.22386 8 8.5ZM9.5 9C9.77614 9 10 8.77614 10 8.5C10 8.22386 9.77614 8 9.5 8C9.22386 8 9 8.22386 9 8.5C9 8.77614 9.22386 9 9.5 9Z" />
</svg>
