<svg width="177" height="256" viewBox="0 0 177 256" fill="none" xmlns="http://www.w3.org/2000/svg">
<path d="M89.4 163.396C97.2404 163.396 103.596 157.04 103.596 149.2C103.596 141.36 97.2404 135.004 89.4 135.004C81.5596 135.004 75.2037 141.36 75.2037 149.2C75.2037 157.04 81.5596 163.396 89.4 163.396Z" fill="black"/>
<path fill-rule="evenodd" clip-rule="evenodd" d="M14.3907 75.0051C9 85.585 9 99.4348 9 127.134V128.866C9 156.565 9 170.415 14.3907 180.995C19.1325 190.301 26.6988 197.867 36.0051 202.609C46.585 208 60.4348 208 88.1345 208H89.8655C117.565 208 131.415 208 141.995 202.609C151.301 197.867 158.867 190.301 163.609 180.995C169 170.415 169 156.565 169 128.866V127.134C169 99.4348 169 85.585 163.609 75.0051C158.867 65.6988 151.301 58.1325 141.995 53.3907C131.415 48 117.565 48 89.8655 48H88.1345C60.4348 48 46.585 48 36.0051 53.3907C26.6988 58.1325 19.1325 65.6988 14.3907 75.0051ZM74.0058 80.8H96.8038V118.369H82.6688V92.894H70.0062L74.0058 80.8ZM89.4 175.2C103.759 175.2 115.4 163.559 115.4 149.2C115.4 134.841 103.759 123.2 89.4 123.2C75.0406 123.2 63.4 134.841 63.4 149.2C63.4 163.559 75.0406 175.2 89.4 175.2Z" fill="black"/>
</svg>
