<svg width="18" height="24" viewBox="0 0 18 24" fill="none" xmlns="http://www.w3.org/2000/svg">
<path fill-rule="evenodd" clip-rule="evenodd" d="M3.5 1.5H14.5C15.0523 1.5 15.5 1.94772 15.5 2.5V21.5C15.5 22.0523 15.0523 22.5 14.5 22.5H3.5C2.94772 22.5 2.5 22.0523 2.5 21.5V2.5C2.5 1.94772 2.94772 1.5 3.5 1.5ZM1 2.5C1 1.11929 2.11929 0 3.5 0H14.5C15.8807 0 17 1.11929 17 2.5V21.5C17 22.8807 15.8807 24 14.5 24H3.5C2.11929 24 1 22.8807 1 21.5V2.5ZM5 9V4H13V9H5ZM3.5 3.5C3.5 2.94772 3.94772 2.5 4.5 2.5H13.5C14.0523 2.5 14.5 2.94772 14.5 3.5V9.5C14.5 10.0523 14.0523 10.5 13.5 10.5H4.5C3.94772 10.5 3.5 10.0523 3.5 9.5V3.5Z" fill="black"/>
</svg>
