<svg width="18" height="24" viewBox="0 0 18 24" fill="none" xmlns="http://www.w3.org/2000/svg">
<path fill-rule="evenodd" clip-rule="evenodd" d="M3 1.2H15C15.4418 1.2 15.8 1.55817 15.8 2V22C15.8 22.4418 15.4418 22.8 15 22.8H3C2.55817 22.8 2.2 22.4418 2.2 22V2C2.2 1.55817 2.55817 1.2 3 1.2ZM1 2C1 0.89543 1.89543 0 3 0H15C16.1046 0 17 0.895431 17 2V22C17 23.1046 16.1046 24 15 24H3C1.89543 24 1 23.1046 1 22V2ZM4.2 9.8V3.2H13.8V9.8H4.2ZM3 2.5C3 2.22386 3.22386 2 3.5 2H14.5C14.7761 2 15 2.22386 15 2.5V10.5C15 10.7761 14.7761 11 14.5 11H3.5C3.22386 11 3 10.7761 3 10.5V2.5Z" />
</svg>
