<svg width="360" height="280" viewBox="0 0 360 280" fill="none" xmlns="http://www.w3.org/2000/svg">
<path d="M348.814 141.623L346.014 149.543H280.193V141.623H348.814Z" fill="#E0DFE1"/>
<path d="M205.969 161.376V129.786H269.145V161.376H205.969Z" fill="#C8C6C9"/>
<path d="M249.453 137.418H297.218V153.748H249.453V137.418Z" fill="#E0DFE1"/>
<path d="M236.835 127H275.528C276.674 127 277.773 127.455 278.583 128.265C279.393 129.075 279.848 130.174 279.848 131.32V159.846C279.848 160.992 279.393 162.091 278.583 162.901C277.773 163.711 276.674 164.166 275.528 164.166H236.835V127Z" fill="#E0DFE1"/>
<path d="M219.4 133.278H226.38V140.258H219.4V133.278ZM219.4 150.904H226.38V157.884H219.4V150.904Z" fill="#838484"/>
<path d="M191.974 144.377V146.177H150.4V144.377H191.974Z" fill="#FCC838"/>
<path d="M157.372 137.035L158.644 138.309L151.673 145.277L158.821 152.426L157.549 153.698L149.127 145.277L157.372 137.035Z" fill="#FCC838"/>
<path d="M17.375 105C17.375 102.998 18.998 101.375 21 101.375H139C141.002 101.375 142.625 102.998 142.625 105V181.625H17.375V105Z" fill="white" stroke="#BEBDC0" stroke-width="0.75"/>
<rect x="20.375" y="104.375" width="119.25" height="74.25" rx="0.625" fill="#00B812" fill-opacity="0.5" stroke="#7A7F80" stroke-width="0.75"/>
<rect x="11.375" y="181.625" width="137.25" height="7.5" rx="3.625" fill="white" stroke="#BEBDC0" stroke-width="0.75"/>
</svg>
