<svg width="360" height="280" viewBox="0 0 360 280" fill="none" xmlns="http://www.w3.org/2000/svg">
<path d="M149.127 149.543L151.927 141.623L217.748 141.623L217.748 149.543L149.127 149.543Z" fill="#E0DFE1"/>
<path d="M291.972 129.79L291.972 161.38L228.796 161.38L228.796 129.79L291.972 129.79Z" fill="#C8C6C9"/>
<path d="M248.488 153.748L200.723 153.748L200.723 137.418L248.488 137.418L248.488 153.748Z" fill="#E0DFE1"/>
<path d="M261.106 164.166L222.413 164.166C221.267 164.166 220.168 163.711 219.358 162.901C218.548 162.091 218.093 160.992 218.093 159.846L218.093 131.32C218.093 130.174 218.548 129.075 219.358 128.265C220.168 127.455 221.267 127 222.413 127L261.106 127L261.106 164.166Z" fill="#E0DFE1"/>
<path d="M278.541 157.888L271.561 157.888L271.561 150.908L278.541 150.908L278.541 157.888ZM278.541 140.262L271.561 140.262L271.561 133.282L278.541 133.282L278.541 140.262Z" fill="#838484"/>
<path d="M305.967 146.789L305.967 144.989L347.541 144.989L347.541 146.789L305.967 146.789Z" fill="#FCC838"/>
<path d="M340.569 154.131L339.297 152.857L346.268 145.889L339.12 138.74L340.392 137.468L348.814 145.889L340.569 154.131Z" fill="#FCC838"/>
<path d="M17.375 105C17.375 102.998 18.998 101.375 21 101.375H139C141.002 101.375 142.625 102.998 142.625 105V181.625H17.375V105Z" fill="white" stroke="#BEBDC0" stroke-width="0.75"/>
<rect x="20.375" y="104.375" width="119.25" height="74.25" rx="0.625" fill="#00B812" fill-opacity="0.5" stroke="#7A7F80" stroke-width="0.75"/>
<rect x="11.375" y="181.625" width="137.25" height="7.5" rx="3.625" fill="white" stroke="#BEBDC0" stroke-width="0.75"/>
</svg>
