<svg width="360" height="280" viewBox="0 0 360 280" fill="none" xmlns="http://www.w3.org/2000/svg">
<path d="M161.593 101.429C119.187 101.429 84.8101 135.806 84.8101 178.212C84.8101 220.618 119.187 254.995 161.593 254.995C203.999 254.995 238.376 220.618 238.376 178.212C238.376 135.806 203.999 101.429 161.593 101.429V101.429ZM161.593 105.306C201.858 105.306 234.499 137.947 234.499 178.212C234.499 218.476 201.858 251.117 161.593 251.117C121.328 251.117 88.6871 218.477 88.6871 178.212C88.6871 137.947 121.328 105.306 161.593 105.306V105.306Z" fill="#D8D9DA"/>
<path d="M46.3848 149.198V161.212C46.3998 207.498 66.1368 234.344 100.171 246.037C113.021 250.453 127.355 252.469 142.487 252.561C152.486 252.618 162.473 251.872 172.353 250.33C231.248 241.186 273.406 204.879 274.281 162.39L274.295 161.1V150.212H278.172V161.102C278.132 206.334 234.139 244.661 172.948 254.161C162.864 255.735 152.67 256.497 142.464 256.439C126.94 256.344 112.201 254.27 98.9108 249.704C63.6878 237.602 42.9408 209.741 42.5138 162.646L42.5078 161.213V149.198H46.3848V149.198Z" fill="#D8D9DA"/>
<path d="M270.077 115.232H282.328V138.181H270.077V115.232Z" fill="#BEBDC0"/>
<path d="M272.206 132.532H280.2V155.916H272.206V132.532Z" fill="#D8D9DA"/>
<path d="M269.11 126.355H283.294V147.413H269.11V126.355Z" fill="#D8D9DA"/>
<path d="M161.593 217.724C183.413 217.724 201.102 200.035 201.102 178.215C201.102 156.395 183.413 138.706 161.593 138.706C139.773 138.706 122.084 156.395 122.084 178.215C122.084 200.035 139.773 217.724 161.593 217.724Z" fill="#00B812" fill-opacity="0.5"/>
<path d="M38.3198 115.248H50.5708V138.197H38.3198V115.248Z" fill="#BEBDC0"/>
<path d="M40.4473 132.548H48.4413V155.932H40.4473V132.548Z" fill="#D8D9DA"/>
<path d="M37.3521 126.371H51.536V147.429H37.3521V126.371Z" fill="#D8D9DA"/>
<path fill-rule="evenodd" clip-rule="evenodd" d="M146.032 176.345C146.525 175.858 147.19 175.585 147.883 175.585C148.575 175.585 149.24 175.858 149.733 176.345L157.338 183.869L175.393 165.996C175.886 165.509 176.551 165.235 177.243 165.235C177.936 165.235 178.601 165.509 179.094 165.996C179.336 166.235 179.529 166.52 179.66 166.833C179.791 167.147 179.859 167.484 179.859 167.824C179.859 168.165 179.791 168.502 179.66 168.816C179.529 169.129 179.336 169.414 179.094 169.653L157.331 191.183L146.032 180.003C145.79 179.764 145.597 179.479 145.466 179.165C145.334 178.851 145.267 178.514 145.267 178.174C145.267 177.834 145.334 177.497 145.466 177.183C145.597 176.869 145.79 176.584 146.032 176.345V176.345Z" fill="white"/>
<path fill-rule="evenodd" clip-rule="evenodd" d="M249.128 11H302.872C304.655 11 305.302 11.1857 305.954 11.5343C306.606 11.8829 307.117 12.3945 307.466 13.0463C307.814 13.6982 308 14.3447 308 16.1278V109.872C308 111.655 307.814 112.302 307.466 112.954C307.117 113.606 306.606 114.117 305.954 114.466C305.302 114.814 304.655 115 302.872 115H249.128C247.345 115 246.698 114.814 246.046 114.466C245.394 114.117 244.883 113.606 244.534 112.954C244.186 112.302 244 111.655 244 109.872V16.1278C244 14.3447 244.186 13.6982 244.534 13.0463C244.883 12.3945 245.394 11.8829 246.046 11.5343C246.698 11.1857 247.345 11 249.128 11Z" fill="#525254"/>
<path d="M255.6 66.9993C258.472 66.9993 260.8 64.6711 260.8 61.7993C260.8 58.9274 258.472 56.5993 255.6 56.5993C252.728 56.5993 250.4 58.9274 250.4 61.7993C250.4 64.6711 252.728 66.9993 255.6 66.9993Z" fill="#39393B"/>
<path d="M269.2 66.9993C272.072 66.9993 274.4 64.6711 274.4 61.7993C274.4 58.9274 272.072 56.5993 269.2 56.5993C266.328 56.5993 264 58.9274 264 61.7993C264 64.6711 266.328 66.9993 269.2 66.9993Z" fill="#39393B"/>
<path d="M282.8 66.9993C285.672 66.9993 288 64.6711 288 61.7993C288 58.9274 285.672 56.5993 282.8 56.5993C279.928 56.5993 277.6 58.9274 277.6 61.7993C277.6 64.6711 279.928 66.9993 282.8 66.9993Z" fill="#39393B"/>
<path d="M296.4 66.9993C299.272 66.9993 301.6 64.6711 301.6 61.7993C301.6 58.9274 299.272 56.5993 296.4 56.5993C293.528 56.5993 291.2 58.9274 291.2 61.7993C291.2 64.6711 293.528 66.9993 296.4 66.9993Z" fill="#39393B"/>
<path fill-rule="evenodd" clip-rule="evenodd" d="M299.921 18.0003C300.186 18.001 300.301 18.0082 300.409 18.066C300.463 18.0949 300.505 18.1374 300.534 18.1914C300.596 18.3072 300.6 18.4302 300.6 18.7386V50.0619C300.6 50.3703 300.596 50.4933 300.534 50.6091C300.505 50.6632 300.463 50.7056 300.409 50.7345C300.293 50.7964 300.17 50.8003 299.862 50.8003H251.738C251.43 50.8003 251.307 50.7964 251.191 50.7345C251.137 50.7056 251.095 50.6632 251.066 50.6091C251.004 50.4933 251 50.3703 251 50.0619L251 18.6793C251.001 18.4139 251.008 18.2995 251.066 18.1914C251.095 18.1374 251.137 18.0949 251.191 18.066C251.307 18.0041 251.43 18.0003 251.738 18.0003L299.921 18.0003Z" fill="#202021" stroke="black" stroke-width="1.5"/>
<path fill-rule="evenodd" clip-rule="evenodd" d="M270.263 33.8563C270.433 33.6873 270.664 33.5926 270.904 33.5926C271.144 33.5926 271.375 33.6873 271.545 33.8563L274.185 36.4661L280.454 30.2627C280.625 30.0944 280.855 30 281.095 30C281.335 30 281.565 30.0944 281.736 30.2627C281.82 30.3456 281.886 30.4442 281.931 30.5529C281.977 30.6615 282 30.778 282 30.8957C282 31.0134 281.977 31.1299 281.931 31.2385C281.886 31.3472 281.82 31.4458 281.736 31.5287L274.185 39.0005L270.263 35.1202C270.179 35.0374 270.113 34.9389 270.068 34.8304C270.023 34.722 270 34.6057 270 34.4883C270 34.3708 270.023 34.2546 270.068 34.1461C270.113 34.0377 270.179 33.9392 270.263 33.8563V33.8563Z" fill="#00B812"/>
</svg>
