<svg width="360" height="280" viewBox="0 0 360 280" fill="none" xmlns="http://www.w3.org/2000/svg">
<path fill-rule="evenodd" clip-rule="evenodd" d="M50.4097 26H117.59C119.819 26 120.627 26.2321 121.442 26.6678C122.257 27.1036 122.896 27.7431 123.332 28.5579C123.768 29.3727 124 30.1809 124 32.4097V149.59C124 151.819 123.768 152.627 123.332 153.442C122.896 154.257 122.257 154.896 121.442 155.332C120.627 155.768 119.819 156 117.59 156H50.4097C48.1809 156 47.3727 155.768 46.5579 155.332C45.7431 154.896 45.1036 154.257 44.6678 153.442C44.2321 152.627 44 151.819 44 149.59V32.4097C44 30.1809 44.2321 29.3727 44.6678 28.5579C45.1036 27.7431 45.7431 27.1036 46.5579 26.6678C47.3727 26.2321 48.1809 26 50.4097 26Z" fill="#525254"/>
<path d="M58.4981 95.9925C62.0879 95.9925 64.9981 93.0823 64.9981 89.4925C64.9981 85.9027 62.0879 82.9926 58.4981 82.9926C54.9082 82.9926 51.998 85.9027 51.998 89.4925C51.998 93.0823 54.9082 95.9925 58.4981 95.9925Z" fill="#39393B"/>
<path d="M75.5 95.9925C79.0899 95.9925 82 93.0823 82 89.4925C82 85.9027 79.0899 82.9926 75.5 82.9926C71.9101 82.9926 69 85.9027 69 89.4925C69 93.0823 71.9101 95.9925 75.5 95.9925Z" fill="#39393B"/>
<path d="M92.5019 95.9925C96.0918 95.9925 99.0019 93.0823 99.0019 89.4925C99.0019 85.9027 96.0918 82.9926 92.5019 82.9926C88.9121 82.9926 86.002 85.9027 86.002 89.4925C86.002 93.0823 88.9121 95.9925 92.5019 95.9925Z" fill="#39393B"/>
<path d="M109.499 95.9925C113.089 95.9925 115.999 93.0823 115.999 89.4925C115.999 85.9027 113.089 82.9926 109.499 82.9926C105.909 82.9926 102.999 85.9027 102.999 89.4925C102.999 93.0823 105.909 95.9925 109.499 95.9925Z" fill="#39393B"/>
<path fill-rule="evenodd" clip-rule="evenodd" d="M114.15 35.0039C114.482 35.0047 114.625 35.0137 114.76 35.0859C114.828 35.1221 114.881 35.1752 114.917 35.2427C114.994 35.3874 114.999 35.5413 114.999 35.9267V75.0809C114.999 75.4663 114.994 75.6202 114.917 75.7648C114.881 75.8324 114.828 75.8855 114.76 75.9216C114.615 75.999 114.462 76.0038 114.076 76.0038H53.9219C53.5365 76.0038 53.3827 75.999 53.238 75.9216C53.1704 75.8855 53.1173 75.8324 53.0812 75.7648C53.0038 75.6202 52.999 75.4663 52.999 75.0809L52.9991 35.8526C53 35.5208 53.009 35.3778 53.0812 35.2427C53.1173 35.1752 53.1704 35.1221 53.238 35.0859C53.3827 35.0086 53.5365 35.0038 53.9219 35.0038L114.15 35.0039Z" fill="#202021" stroke="black" stroke-width="1.5"/>
<path d="M92.8212 100.642C98.2452 100.642 102.642 96.2452 102.642 90.8212C102.642 85.3971 98.2452 81 92.8212 81C87.3971 81 83 85.3971 83 90.8212C83 96.2452 87.3971 100.642 92.8212 100.642Z" fill="#00B812" fill-opacity="0.5"/>
<path d="M115 119.699C110.511 115.21 106.451 105.752 106.451 105.752L105.961 103.461C105.961 103.461 104.287 99.8189 103.041 98.3459C101.935 96.1586 100.967 93.8873 99.8361 91.717C99.1633 90.4251 98.4512 89.0625 97.6918 87.8274C96.9324 86.5918 95.7982 85.5112 94.3911 85.1639C93.0219 84.8252 91.2803 85.0076 89.9936 85.5846C88.6599 86.1839 86.7293 87.2451 86.555 90.8709C86.2812 96.7096 87.9701 100.469 90.2887 105.855L92.4524 109.146C92.4524 109.146 97.6733 128.648 99.5527 134.551" fill="white"/>
<path d="M115 119.699C110.511 115.21 106.451 105.752 106.451 105.752L105.961 103.461C105.961 103.461 104.287 99.8189 103.041 98.3459C101.935 96.1586 100.967 93.8873 99.8361 91.717C99.1633 90.4251 98.4512 89.0625 97.6918 87.8274C96.9324 86.5918 95.7982 85.5112 94.3911 85.1639C93.0219 84.8252 91.2803 85.0076 89.9936 85.5846C88.6599 86.1839 86.7293 87.2451 86.555 90.8709C86.2812 96.7096 87.9701 100.469 90.2887 105.855L92.4524 109.146C92.4524 109.146 97.6733 128.648 99.5527 134.551" stroke="#D8D9DA" stroke-width="1.661"/>
<path d="M89.8032 95.4782C89.8141 95.238 90.0055 95.048 90.1879 94.8917C92.1901 93.1883 95.7692 92.3133 98.3973 92.3702" stroke="#D8D9DA" stroke-width="1.107"/>
<path d="M97.1676 101.878C97.7589 101.789 98.0327 101.726 98.623 101.636C98.9286 101.591 99.5582 101.541 99.8401 101.416C100.296 101.227 100.675 100.89 100.917 100.46M89.4434 95.1395C88.6858 93.6751 88.1983 92.0878 88.0024 90.4538C87.9585 90.0872 88.1004 89.7254 88.3678 89.4707L88.4288 89.4125C90.2286 87.6977 92.7362 86.9405 95.1843 87.3725V87.3725C95.2693 87.3875 95.3438 87.4383 95.3888 87.512L98.5586 92.7058C98.4406 93.5216 97.7722 94.336 97.0833 94.7871C95.2816 95.9672 93.0852 96.5376 90.9537 96.2297C90.605 96.1993 90.2701 96.0785 89.982 95.8796C89.7526 95.6733 89.5691 95.4212 89.4434 95.1395ZM92.7626 102.35C94.3753 101.045 96.1722 99.7929 98.2374 99.5839C98.8448 99.5223 99.4805 99.5498 100.034 99.2945L92.7626 102.35Z" stroke="#D8D9DA" stroke-width="1.107"/>
<path d="M58.1788 100.642C52.7548 100.642 48.3577 96.2452 48.3577 90.8212C48.3577 85.3971 52.7548 81 58.1788 81C63.6029 81 68 85.3971 68 90.8212C68 96.2452 63.6029 100.642 58.1788 100.642Z" fill="#00B812" fill-opacity="0.5"/>
<path d="M36.0001 119.699C40.4891 115.21 44.5492 105.752 44.5492 105.752L45.0386 103.461C45.0386 103.461 46.7134 99.8189 47.9589 98.3459C49.0647 96.1586 50.0326 93.8873 51.1639 91.717C51.8367 90.4251 52.5488 89.0625 53.3082 87.8274C54.0676 86.5918 55.2018 85.5112 56.6089 85.1639C57.9781 84.8252 59.7197 85.0076 61.0064 85.5846C62.3401 86.1839 64.2707 87.2451 64.445 90.8709C64.7188 96.7096 63.0299 100.469 60.7113 105.855L58.5476 109.146C58.5476 109.146 53.3267 128.648 51.4473 134.551" fill="white"/>
<path d="M36.0001 119.699C40.4891 115.21 44.5492 105.752 44.5492 105.752L45.0386 103.461C45.0386 103.461 46.7134 99.8189 47.9589 98.3459C49.0647 96.1586 50.0326 93.8873 51.1639 91.717C51.8367 90.4251 52.5488 89.0625 53.3082 87.8274C54.0676 86.5918 55.2018 85.5112 56.6089 85.1639C57.9781 84.8252 59.7197 85.0076 61.0064 85.5846C62.3401 86.1839 64.2707 87.2451 64.445 90.8709C64.7188 96.7096 63.0299 100.469 60.7113 105.855L58.5476 109.146C58.5476 109.146 53.3267 128.648 51.4473 134.551" stroke="#D8D9DA" stroke-width="1.661"/>
<path d="M61.1968 95.4782C61.1859 95.238 60.9945 95.048 60.8121 94.8917C58.8099 93.1883 55.2308 92.3133 52.6027 92.3702" stroke="#D8D9DA" stroke-width="1.107"/>
<path d="M53.8324 101.878C53.2411 101.789 52.9673 101.726 52.377 101.636C52.0714 101.591 51.4418 101.541 51.1599 101.416C50.7041 101.227 50.325 100.89 50.083 100.46M61.5566 95.1395C62.3142 93.6751 62.8017 92.0878 62.9976 90.4538C63.0415 90.0872 62.8996 89.7254 62.6322 89.4707L62.5712 89.4125C60.7714 87.6977 58.2638 86.9405 55.8157 87.3725V87.3725C55.7307 87.3875 55.6562 87.4383 55.6112 87.512L52.4414 92.7058C52.5594 93.5216 53.2278 94.336 53.9167 94.7871C55.7184 95.9672 57.9148 96.5376 60.0463 96.2297C60.395 96.1993 60.7299 96.0785 61.018 95.8796C61.2474 95.6733 61.4309 95.4212 61.5566 95.1395ZM58.2374 102.35C56.6247 101.045 54.8278 99.7929 52.7626 99.5839C52.1552 99.5223 51.5195 99.5498 50.9656 99.2945L58.2374 102.35Z" stroke="#D8D9DA" stroke-width="1.107"/>
<path fill-rule="evenodd" clip-rule="evenodd" d="M250.41 26H317.59C319.819 26 320.627 26.2321 321.442 26.6678C322.257 27.1036 322.896 27.7431 323.332 28.5579C323.768 29.3727 324 30.1809 324 32.4097V149.59C324 151.819 323.768 152.627 323.332 153.442C322.896 154.257 322.257 154.896 321.442 155.332C320.627 155.768 319.819 156 317.59 156H250.41C248.181 156 247.373 155.768 246.558 155.332C245.743 154.896 245.104 154.257 244.668 153.442C244.232 152.627 244 151.819 244 149.59V32.4097C244 30.1809 244.232 29.3727 244.668 28.5579C245.104 27.7431 245.743 27.1036 246.558 26.6678C247.373 26.2321 248.181 26 250.41 26Z" fill="#525254"/>
<path d="M258.498 95.9925C262.088 95.9925 264.998 93.0823 264.998 89.4925C264.998 85.9027 262.088 82.9926 258.498 82.9926C254.908 82.9926 251.998 85.9027 251.998 89.4925C251.998 93.0823 254.908 95.9925 258.498 95.9925Z" fill="#39393B"/>
<path d="M275.5 95.9925C279.09 95.9925 282 93.0823 282 89.4925C282 85.9027 279.09 82.9926 275.5 82.9926C271.91 82.9926 269 85.9027 269 89.4925C269 93.0823 271.91 95.9925 275.5 95.9925Z" fill="#39393B"/>
<path d="M292.502 95.9925C296.092 95.9925 299.002 93.0823 299.002 89.4925C299.002 85.9027 296.092 82.9926 292.502 82.9926C288.912 82.9926 286.002 85.9027 286.002 89.4925C286.002 93.0823 288.912 95.9925 292.502 95.9925Z" fill="#39393B"/>
<path d="M309.499 95.9925C313.089 95.9925 315.999 93.0823 315.999 89.4925C315.999 85.9027 313.089 82.9926 309.499 82.9926C305.909 82.9926 302.999 85.9027 302.999 89.4925C302.999 93.0823 305.909 95.9925 309.499 95.9925Z" fill="#39393B"/>
<path fill-rule="evenodd" clip-rule="evenodd" d="M314.15 35.0039C314.482 35.0047 314.625 35.0137 314.76 35.0859C314.828 35.1221 314.881 35.1752 314.917 35.2427C314.994 35.3874 314.999 35.5413 314.999 35.9267V75.0809C314.999 75.4663 314.994 75.6202 314.917 75.7648C314.881 75.8324 314.828 75.8855 314.76 75.9216C314.615 75.999 314.462 76.0038 314.076 76.0038H253.922C253.536 76.0038 253.383 75.999 253.238 75.9216C253.17 75.8855 253.117 75.8324 253.081 75.7648C253.004 75.6202 252.999 75.4663 252.999 75.0809L252.999 35.8526C253 35.5208 253.009 35.3778 253.081 35.2427C253.117 35.1752 253.17 35.1221 253.238 35.0859C253.383 35.0086 253.536 35.0038 253.922 35.0038L314.15 35.0039Z" fill="#202021" stroke="black" stroke-width="1.5"/>
<path d="M259.635 59V51.8906H262.125C262.988 51.8906 263.642 52.0566 264.088 52.3887C264.534 52.7174 264.757 53.2008 264.757 53.8389C264.757 54.1872 264.667 54.4948 264.488 54.7617C264.309 55.0254 264.06 55.2191 263.741 55.3428C264.106 55.4339 264.392 55.6178 264.601 55.8945C264.812 56.1712 264.918 56.5098 264.918 56.9102C264.918 57.5938 264.7 58.1113 264.264 58.4629C263.827 58.8145 263.206 58.9935 262.398 59H259.635ZM261.1 55.9043V57.8232H262.354C262.7 57.8232 262.968 57.7419 263.16 57.5791C263.355 57.4131 263.453 57.1852 263.453 56.8955C263.453 56.2445 263.116 55.9141 262.442 55.9043H261.1ZM261.1 54.8691H262.184C262.923 54.8561 263.292 54.5615 263.292 53.9854C263.292 53.6631 263.198 53.432 263.009 53.292C262.823 53.1488 262.529 53.0771 262.125 53.0771H261.1V54.8691ZM265.709 56.3096C265.709 55.7855 265.81 55.3184 266.012 54.9082C266.214 54.498 266.503 54.1807 266.881 53.9561C267.262 53.7314 267.703 53.6191 268.204 53.6191C268.917 53.6191 269.498 53.8372 269.947 54.2734C270.4 54.7096 270.652 55.3021 270.704 56.0508L270.714 56.4121C270.714 57.2227 270.488 57.8737 270.035 58.3652C269.583 58.8535 268.976 59.0977 268.214 59.0977C267.452 59.0977 266.843 58.8535 266.388 58.3652C265.935 57.877 265.709 57.2129 265.709 56.373V56.3096ZM267.12 56.4121C267.12 56.9134 267.215 57.2975 267.403 57.5645C267.592 57.8281 267.862 57.96 268.214 57.96C268.556 57.96 268.823 57.8298 269.015 57.5693C269.207 57.3057 269.303 56.8857 269.303 56.3096C269.303 55.818 269.207 55.4372 269.015 55.167C268.823 54.8968 268.552 54.7617 268.204 54.7617C267.859 54.7617 267.592 54.8968 267.403 55.167C267.215 55.4339 267.12 55.849 267.12 56.4121ZM271.363 56.3096C271.363 55.7855 271.464 55.3184 271.666 54.9082C271.868 54.498 272.158 54.1807 272.535 53.9561C272.916 53.7314 273.357 53.6191 273.858 53.6191C274.571 53.6191 275.152 53.8372 275.602 54.2734C276.054 54.7096 276.306 55.3021 276.358 56.0508L276.368 56.4121C276.368 57.2227 276.142 57.8737 275.689 58.3652C275.237 58.8535 274.63 59.0977 273.868 59.0977C273.106 59.0977 272.498 58.8535 272.042 58.3652C271.59 57.877 271.363 57.2129 271.363 56.373V56.3096ZM272.774 56.4121C272.774 56.9134 272.869 57.2975 273.058 57.5645C273.246 57.8281 273.517 57.96 273.868 57.96C274.21 57.96 274.477 57.8298 274.669 57.5693C274.861 57.3057 274.957 56.8857 274.957 56.3096C274.957 55.818 274.861 55.4372 274.669 55.167C274.477 54.8968 274.207 54.7617 273.858 54.7617C273.513 54.7617 273.246 54.8968 273.058 55.167C272.869 55.4339 272.774 55.849 272.774 56.4121ZM278.927 52.418V53.7168H279.83V54.752H278.927V57.3887C278.927 57.584 278.964 57.724 279.039 57.8086C279.114 57.8932 279.257 57.9355 279.469 57.9355C279.625 57.9355 279.763 57.9242 279.884 57.9014V58.9707C279.607 59.0553 279.322 59.0977 279.029 59.0977C278.04 59.0977 277.535 58.598 277.516 57.5986V54.752H276.744V53.7168H277.516V52.418H278.927ZM282.105 59H280.689V51.5H282.105V59ZM283.053 56.3096C283.053 55.7855 283.154 55.3184 283.355 54.9082C283.557 54.498 283.847 54.1807 284.225 53.9561C284.605 53.7314 285.047 53.6191 285.548 53.6191C286.261 53.6191 286.842 53.8372 287.291 54.2734C287.743 54.7096 287.996 55.3021 288.048 56.0508L288.058 56.4121C288.058 57.2227 287.831 57.8737 287.379 58.3652C286.926 58.8535 286.319 59.0977 285.558 59.0977C284.796 59.0977 284.187 58.8535 283.731 58.3652C283.279 57.877 283.053 57.2129 283.053 56.373V56.3096ZM284.464 56.4121C284.464 56.9134 284.558 57.2975 284.747 57.5645C284.936 57.8281 285.206 57.96 285.558 57.96C285.899 57.96 286.166 57.8298 286.358 57.5693C286.55 57.3057 286.646 56.8857 286.646 56.3096C286.646 55.818 286.55 55.4372 286.358 55.167C286.166 54.8968 285.896 54.7617 285.548 54.7617C285.203 54.7617 284.936 54.8968 284.747 55.167C284.558 55.4339 284.464 55.849 284.464 56.4121ZM291.988 59C291.923 58.873 291.876 58.7152 291.847 58.5264C291.505 58.9072 291.061 59.0977 290.514 59.0977C289.996 59.0977 289.566 58.9479 289.225 58.6484C288.886 58.349 288.717 57.9714 288.717 57.5156C288.717 56.9557 288.924 56.526 289.337 56.2266C289.754 55.9271 290.354 55.7757 291.139 55.7725H291.788V55.4697C291.788 55.2256 291.725 55.0303 291.598 54.8838C291.474 54.7373 291.277 54.6641 291.007 54.6641C290.769 54.6641 290.582 54.721 290.445 54.835C290.312 54.9489 290.245 55.1051 290.245 55.3037H288.834C288.834 54.9977 288.928 54.7145 289.117 54.4541C289.306 54.1937 289.573 53.9902 289.918 53.8438C290.263 53.694 290.65 53.6191 291.08 53.6191C291.731 53.6191 292.247 53.7835 292.628 54.1123C293.012 54.4378 293.204 54.8968 293.204 55.4893V57.7793C293.207 58.2806 293.277 58.6598 293.414 58.917V59H291.988ZM290.821 58.0186C291.03 58.0186 291.222 57.973 291.397 57.8818C291.573 57.7874 291.703 57.6621 291.788 57.5059V56.5977H291.261C290.554 56.5977 290.178 56.8418 290.133 57.3301L290.128 57.4131C290.128 57.5889 290.19 57.7337 290.313 57.8477C290.437 57.9616 290.606 58.0186 290.821 58.0186ZM294.068 56.3193C294.068 55.4958 294.252 54.8398 294.62 54.3516C294.991 53.8633 295.497 53.6191 296.139 53.6191C296.653 53.6191 297.078 53.8112 297.413 54.1953V51.5H298.829V59H297.555L297.486 58.4385C297.135 58.8779 296.682 59.0977 296.129 59.0977C295.507 59.0977 295.007 58.8535 294.63 58.3652C294.256 57.8737 294.068 57.1917 294.068 56.3193ZM295.479 56.4219C295.479 56.9167 295.566 57.2959 295.738 57.5596C295.911 57.8232 296.161 57.9551 296.49 57.9551C296.926 57.9551 297.234 57.7712 297.413 57.4033V55.3184C297.237 54.9505 296.933 54.7666 296.5 54.7666C295.82 54.7666 295.479 55.3184 295.479 56.4219ZM302.354 59.0977C301.58 59.0977 300.948 58.86 300.46 58.3848C299.975 57.9095 299.732 57.2764 299.732 56.4854V56.3486C299.732 55.818 299.835 55.3444 300.04 54.9277C300.245 54.5078 300.535 54.1855 300.909 53.9609C301.287 53.7331 301.716 53.6191 302.198 53.6191C302.921 53.6191 303.489 53.847 303.902 54.3027C304.319 54.7585 304.527 55.4046 304.527 56.2412V56.8174H301.163C301.209 57.1624 301.345 57.4391 301.573 57.6475C301.804 57.8558 302.096 57.96 302.447 57.96C302.991 57.96 303.416 57.763 303.722 57.3691L304.415 58.1455C304.203 58.445 303.917 58.6794 303.556 58.8486C303.194 59.0146 302.794 59.0977 302.354 59.0977ZM302.193 54.7617C301.913 54.7617 301.686 54.8561 301.51 55.0449C301.337 55.2337 301.227 55.5039 301.178 55.8555H303.141V55.7432C303.134 55.4307 303.049 55.1898 302.887 55.0205C302.724 54.848 302.493 54.7617 302.193 54.7617ZM308.302 55.04C308.11 55.014 307.94 55.001 307.794 55.001C307.26 55.001 306.91 55.1816 306.744 55.543V59H305.333V53.7168H306.666L306.705 54.3467C306.988 53.8617 307.381 53.6191 307.882 53.6191C308.038 53.6191 308.185 53.6403 308.321 53.6826L308.302 55.04Z" fill="white"/>
<path d="M286.297 228.642L286.335 253.005L281.484 253.013L281.446 228.65L286.297 228.642Z" fill="#D8D9DA"/>
<path d="M286.215 228.632L286.334 249.95L281.484 249.978L281.365 228.659L286.215 228.632ZM276.21 192.584H291.536V221.293H276.21V192.584Z" fill="#BEBDC0"/>
<path d="M278.871 214.226H288.872V243.479H278.871V214.226Z" fill="#D8D9DA"/>
<path d="M275 206.499H292.744V232.842H275V206.499Z" fill="#D8D9DA"/>
<path d="M283.847 184.453C282.937 178.015 282.817 170.683 283.48 162.453L283.552 161.598L284.882 161.713C284.172 169.913 284.238 177.211 285.079 183.608L285.169 184.266L283.847 184.453V184.453Z" fill="#FEC746"/>
<path d="M278.967 167.891L278.064 166.908L284.497 161L290.407 167.433L289.424 168.337L284.417 162.886L278.967 167.891Z" fill="#FEC746"/>
</svg>
