<svg width="64" height="104" viewBox="0 0 64 104" fill="none" xmlns="http://www.w3.org/2000/svg">
<path fill-rule="evenodd" clip-rule="evenodd" d="M5.12777 0L58.8722 0C60.6553 0 61.3018 0.185651 61.9537 0.534265C62.6055 0.88288 63.1171 1.39446 63.4657 2.04631C63.8144 2.69816 64 3.34473 64 5.12777V98.8722C64 100.655 63.8144 101.302 63.4657 101.954C63.1171 102.606 62.6055 103.117 61.9537 103.466C61.3018 103.814 60.6553 104 58.8722 104H5.12777C3.34473 104 2.69816 103.814 2.04631 103.466C1.39446 103.117 0.88288 102.606 0.534265 101.954C0.185651 101.302 0 100.655 0 98.8722L0 5.12777C0 3.34473 0.185651 2.69816 0.534265 2.04631C0.88288 1.39446 1.39446 0.88288 2.04631 0.534265C2.69816 0.185651 3.34473 0 5.12777 0Z" fill="#525254"/>
<path d="M11.5999 55.9993C14.4718 55.9993 16.7999 53.6712 16.7999 50.7993C16.7999 47.9274 14.4718 45.5993 11.5999 45.5993C8.72802 45.5993 6.3999 47.9274 6.3999 50.7993C6.3999 53.6712 8.72802 55.9993 11.5999 55.9993Z" fill="#39393B"/>
<path d="M25.2 55.9993C28.0719 55.9993 30.4 53.6712 30.4 50.7993C30.4 47.9274 28.0719 45.5993 25.2 45.5993C22.3281 45.5993 20 47.9274 20 50.7993C20 53.6712 22.3281 55.9993 25.2 55.9993Z" fill="#39393B"/>
<path d="M38.8001 55.9993C41.672 55.9993 44.0001 53.6712 44.0001 50.7993C44.0001 47.9274 41.672 45.5993 38.8001 45.5993C35.9282 45.5993 33.6001 47.9274 33.6001 50.7993C33.6001 53.6712 35.9282 55.9993 38.8001 55.9993Z" fill="#39393B"/>
<path d="M52.3999 55.9993C55.2718 55.9993 57.5999 53.6712 57.5999 50.7993C57.5999 47.9274 55.2718 45.5993 52.3999 45.5993C49.5281 45.5993 47.2 47.9274 47.2 50.7993C47.2 53.6712 49.5281 55.9993 52.3999 55.9993Z" fill="#39393B"/>
<path fill-rule="evenodd" clip-rule="evenodd" d="M56.1209 7.20051C56.3863 7.20121 56.5007 7.20839 56.6088 7.26617C56.6629 7.29509 56.7053 7.33753 56.7342 7.39161C56.7961 7.50736 56.7999 7.63042 56.7999 7.93877V39.2621C56.7999 39.5705 56.7961 39.6935 56.7342 39.8093C56.7053 39.8634 56.6629 39.9058 56.6088 39.9347C56.493 39.9966 56.37 40.0004 56.0616 40.0004H7.93828C7.62993 40.0004 7.50687 39.9966 7.39112 39.9347C7.33704 39.9058 7.2946 39.8634 7.26568 39.8093C7.20378 39.6935 7.19995 39.5705 7.19995 39.2621L7.20002 7.87952C7.20072 7.61404 7.20791 7.49964 7.26568 7.39161C7.2946 7.33753 7.33704 7.29509 7.39112 7.26617C7.50687 7.20427 7.62993 7.20044 7.93828 7.20044L56.1209 7.20051Z" fill="#202021" stroke="black" stroke-width="1.5"/>
</svg>
