<svg width="101" height="114" viewBox="0 0 101 114" fill="none" xmlns="http://www.w3.org/2000/svg">
<rect x="11" y="10" width="80" height="94" rx="4" fill="white"/>
<rect x="11.5" y="10.5" width="79" height="93" rx="3.5" stroke="#00B812" stroke-opacity="0.5"/>
<path d="M25.7422 20.8086H24.6406V23H23.6523V17.3125H25.6523C26.3086 17.3125 26.8151 17.4596 27.1719 17.7539C27.5286 18.0482 27.707 18.474 27.707 19.0312C27.707 19.4115 27.6146 19.7305 27.4297 19.9883C27.2474 20.2435 26.9922 20.4401 26.6641 20.5781L27.9414 22.9492V23H26.8828L25.7422 20.8086ZM24.6406 20.0156H25.6562C25.9896 20.0156 26.25 19.9323 26.4375 19.7656C26.625 19.5964 26.7188 19.3659 26.7188 19.0742C26.7188 18.7695 26.6315 18.5339 26.457 18.3672C26.2852 18.2005 26.0273 18.1146 25.6836 18.1094H24.6406V20.0156ZM31.9688 20.4609H29.6328V22.2109H32.3633V23H28.6445V17.3125H32.3359V18.1094H29.6328V19.6797H31.9688V20.4609ZM37.5078 21.1484C37.4505 21.7552 37.2266 22.2292 36.8359 22.5703C36.4453 22.9089 35.9258 23.0781 35.2773 23.0781C34.8242 23.0781 34.4245 22.9714 34.0781 22.7578C33.7344 22.5417 33.4688 22.2357 33.2812 21.8398C33.0938 21.444 32.9961 20.9844 32.9883 20.4609V19.9297C32.9883 19.3932 33.0833 18.9206 33.2734 18.5117C33.4635 18.1029 33.7357 17.7878 34.0898 17.5664C34.4466 17.3451 34.8581 17.2344 35.3242 17.2344C35.9518 17.2344 36.457 17.4049 36.8398 17.7461C37.2227 18.0872 37.4453 18.569 37.5078 19.1914H36.5234C36.4766 18.7826 36.3568 18.4883 36.1641 18.3086C35.974 18.1263 35.694 18.0352 35.3242 18.0352C34.8945 18.0352 34.5638 18.1927 34.332 18.5078C34.1029 18.8203 33.9857 19.2799 33.9805 19.8867V20.3906C33.9805 21.0052 34.0898 21.474 34.3086 21.7969C34.5299 22.1198 34.8529 22.2812 35.2773 22.2812C35.6654 22.2812 35.957 22.194 36.1523 22.0195C36.3477 21.8451 36.4714 21.5547 36.5234 21.1484H37.5078ZM42.9336 20.3047C42.9336 20.862 42.8372 21.3516 42.6445 21.7734C42.4518 22.1927 42.1758 22.5156 41.8164 22.7422C41.4596 22.9661 41.0482 23.0781 40.582 23.0781C40.1211 23.0781 39.7096 22.9661 39.3477 22.7422C38.9883 22.5156 38.7096 22.194 38.5117 21.7773C38.3164 21.3607 38.2174 20.8802 38.2148 20.3359V20.0156C38.2148 19.4609 38.3125 18.9714 38.5078 18.5469C38.7057 18.1224 38.9831 17.7982 39.3398 17.5742C39.6992 17.3477 40.1107 17.2344 40.5742 17.2344C41.0378 17.2344 41.4479 17.3464 41.8047 17.5703C42.1641 17.7917 42.4414 18.112 42.6367 18.5312C42.832 18.9479 42.931 19.4336 42.9336 19.9883V20.3047ZM41.9453 20.0078C41.9453 19.3776 41.8255 18.8945 41.5859 18.5586C41.349 18.2227 41.0117 18.0547 40.5742 18.0547C40.1471 18.0547 39.8125 18.2227 39.5703 18.5586C39.3307 18.8919 39.2083 19.3646 39.2031 19.9766V20.3047C39.2031 20.9297 39.3242 21.4128 39.5664 21.7539C39.8112 22.0951 40.1497 22.2656 40.582 22.2656C41.0195 22.2656 41.3555 22.099 41.5898 21.7656C41.8268 21.4323 41.9453 20.9453 41.9453 20.3047V20.0078ZM45.8359 21.7617L47.2812 17.3125H48.3672L46.3203 23H45.3633L43.3242 17.3125H44.4062L45.8359 21.7617ZM52.3359 20.4609H50V22.2109H52.7305V23H49.0117V17.3125H52.7031V18.1094H50V19.6797H52.3359V20.4609ZM55.3906 20.0078L56.6992 17.3125H57.793L55.8867 20.9062V23H54.8945V20.9062L52.9844 17.3125H54.082L55.3906 20.0078ZM63.375 21.5352C63.375 21.2852 63.2865 21.0924 63.1094 20.957C62.9349 20.8216 62.6185 20.6849 62.1602 20.5469C61.7018 20.4089 61.3372 20.2552 61.0664 20.0859C60.5482 19.7604 60.2891 19.3359 60.2891 18.8125C60.2891 18.3542 60.4753 17.9766 60.8477 17.6797C61.2227 17.3828 61.7083 17.2344 62.3047 17.2344C62.7005 17.2344 63.0534 17.3073 63.3633 17.4531C63.6732 17.599 63.9167 17.8073 64.0938 18.0781C64.2708 18.3464 64.3594 18.6445 64.3594 18.9727H63.375C63.375 18.6758 63.2812 18.444 63.0938 18.2773C62.9089 18.1081 62.6432 18.0234 62.2969 18.0234C61.974 18.0234 61.7227 18.0924 61.543 18.2305C61.3659 18.3685 61.2773 18.5612 61.2773 18.8086C61.2773 19.0169 61.3737 19.1914 61.5664 19.332C61.7591 19.4701 62.0768 19.6055 62.5195 19.7383C62.9622 19.8685 63.3177 20.0182 63.5859 20.1875C63.8542 20.3542 64.0508 20.5469 64.1758 20.7656C64.3008 20.9818 64.3633 21.2357 64.3633 21.5273C64.3633 22.0013 64.181 22.3789 63.8164 22.6602C63.4544 22.9388 62.9622 23.0781 62.3398 23.0781C61.9284 23.0781 61.5495 23.0026 61.2031 22.8516C60.8594 22.6979 60.5911 22.487 60.3984 22.2188C60.2083 21.9505 60.1133 21.638 60.1133 21.2812H61.1016C61.1016 21.6042 61.2083 21.8542 61.4219 22.0312C61.6354 22.2083 61.9414 22.2969 62.3398 22.2969C62.6836 22.2969 62.9414 22.2279 63.1133 22.0898C63.2878 21.9492 63.375 21.7643 63.375 21.5352ZM68.5547 20.4609H66.2188V22.2109H68.9492V23H65.2305V17.3125H68.9219V18.1094H66.2188V19.6797H68.5547V20.4609ZM73.0781 20.4609H70.7422V22.2109H73.4727V23H69.7539V17.3125H73.4453V18.1094H70.7422V19.6797H73.0781V20.4609ZM74.2773 23V17.3125H75.957C76.4596 17.3125 76.9049 17.4245 77.293 17.6484C77.6836 17.8724 77.9857 18.1901 78.1992 18.6016C78.4128 19.013 78.5195 19.4844 78.5195 20.0156V20.3008C78.5195 20.8398 78.4115 21.3138 78.1953 21.7227C77.9818 22.1315 77.6758 22.4466 77.2773 22.668C76.8815 22.8893 76.4271 23 75.9141 23H74.2773ZM75.2656 18.1094V22.2109H75.9102C76.4284 22.2109 76.8255 22.0495 77.1016 21.7266C77.3802 21.401 77.5221 20.9349 77.5273 20.3281V20.0117C77.5273 19.3945 77.3932 18.9232 77.125 18.5977C76.8568 18.2721 76.4674 18.1094 75.957 18.1094H75.2656Z" fill="#00B812"/>
<rect x="18" y="29" width="32" height="8" rx="2" fill="#EEEEEE"/>
<rect x="18" y="41" width="32" height="8" rx="2" fill="#EEEEEE"/>
<rect x="18" y="53" width="32" height="8" rx="2" fill="#EEEEEE"/>
<rect x="18" y="65" width="32" height="8" rx="2" fill="#EEEEEE"/>
<rect x="18" y="77" width="32" height="8" rx="2" fill="#EEEEEE"/>
<rect x="18" y="89" width="32" height="8" rx="2" fill="#EEEEEE"/>
<rect x="52" y="29" width="32" height="8" rx="2" fill="#EEEEEE"/>
<rect x="52" y="41" width="32" height="8" rx="2" fill="#EEEEEE"/>
<rect x="52" y="53" width="32" height="8" rx="2" fill="#EEEEEE"/>
<rect x="52" y="65" width="32" height="8" rx="2" fill="#EEEEEE"/>
<rect x="52" y="77" width="32" height="8" rx="2" fill="#EEEEEE"/>
<rect x="52" y="89" width="32" height="8" rx="2" fill="#EEEEEE"/>
<rect x="19" y="30" width="25" height="6" rx="1" fill="#00B812" fill-opacity="0.5"/>
<rect x="53" y="66" width="25" height="6" rx="1" fill="#00B812" fill-opacity="0.5"/>
<rect x="19" y="42" width="20" height="6" rx="1" fill="#00B812" fill-opacity="0.5"/>
<rect x="53" y="90" width="20" height="6" rx="1" fill="#00B812" fill-opacity="0.5"/>
<rect x="19" y="54" width="30" height="6" rx="1" fill="#00B812" fill-opacity="0.5"/>
<rect x="53" y="78" width="30" height="6" rx="1" fill="#00B812" fill-opacity="0.5"/>
<rect x="19" y="66" width="21" height="6" rx="1" fill="#00B812" fill-opacity="0.5"/>
<rect x="53" y="30" width="21" height="6" rx="1" fill="#00B812" fill-opacity="0.5"/>
<rect x="19" y="78" width="25" height="6" rx="1" fill="#00B812" fill-opacity="0.5"/>
<rect x="53" y="54" width="25" height="6" rx="1" fill="#00B812" fill-opacity="0.5"/>
<rect x="19" y="90" width="28" height="6" rx="1" fill="#00B812" fill-opacity="0.5"/>
<rect x="53" y="42" width="28" height="6" rx="1" fill="#00B812" fill-opacity="0.5"/>
</svg>
