<svg width="360" height="280" viewBox="0 0 360 280" fill="none" xmlns="http://www.w3.org/2000/svg">
<path fill-rule="evenodd" clip-rule="evenodd" d="M0 120.67C0 112.035 0 107.717 1.68055 104.419C3.1588 101.518 5.51757 99.1588 8.4188 97.6805C11.7171 96 16.0347 96 24.6701 96H63.0457C71.681 96 75.9987 96 79.297 97.6805C82.1982 99.1588 84.557 101.518 86.0352 104.419C87.7158 107.717 87.7158 112.035 87.7158 120.67V159.046C87.7158 167.681 87.7158 171.999 86.0352 175.297C84.557 178.198 82.1982 180.557 79.297 182.035C75.9987 183.716 71.681 183.716 63.0457 183.716H24.6701C16.0347 183.716 11.7171 183.716 8.4188 182.035C5.51757 180.557 3.1588 178.198 1.68055 175.297C0 171.999 0 167.681 0 159.046V120.67ZM43.915 139.027C51.989 139.027 58.5343 145.349 58.5343 153.148C58.5343 160.947 51.989 167.269 43.915 167.269C35.841 167.269 29.2957 160.947 29.2957 153.148C29.2957 145.349 35.841 139.027 43.915 139.027ZM43.9151 145.438C39.5066 145.438 35.9328 148.89 35.9328 153.148C35.9328 157.406 39.5066 160.858 43.9151 160.858C48.3236 160.858 51.8974 157.406 51.8974 153.148C51.8974 148.89 48.3236 145.438 43.9151 145.438ZM48.6684 112.447V134.624H40.0583V119.586H32.3451L34.7814 112.447H48.6684ZM124.059 161.9C128.338 164.255 133.009 165.432 138.073 165.432C143.136 165.432 147.808 164.255 152.086 161.9C156.365 159.546 159.771 156.191 162.302 151.836C164.834 147.481 166.1 142.418 166.1 136.645C166.1 130.822 164.834 125.746 162.302 121.416C159.771 117.087 156.365 113.757 152.086 111.428C147.808 109.099 143.136 107.934 138.073 107.934C133.009 107.934 128.338 109.099 124.059 111.428C119.78 113.757 116.375 117.087 113.843 121.416C111.311 125.746 110.045 130.822 110.045 136.645C110.045 142.418 111.311 147.481 113.843 151.836C116.375 156.191 119.78 159.546 124.059 161.9ZM147.643 155.292C144.757 156.938 141.566 157.761 138.072 157.761C134.68 157.761 131.528 156.938 128.616 155.292C125.704 153.647 123.388 151.241 121.666 148.077C119.944 144.912 119.084 141.127 119.084 136.721C119.084 132.265 119.919 128.455 121.59 125.29C123.261 122.125 125.54 119.733 128.426 118.112C131.312 116.492 134.528 115.682 138.072 115.682C141.617 115.682 144.82 116.492 147.681 118.112C150.542 119.733 152.82 122.125 154.517 125.29C156.213 128.455 157.061 132.265 157.061 136.721C157.061 141.127 156.213 144.912 154.517 148.077C152.82 151.241 150.529 153.647 147.643 155.292ZM171.627 129.81H179.678L179.754 136.19C180.716 134.063 182.235 132.316 184.312 130.949C186.388 129.582 188.818 128.898 191.603 128.898C195.198 128.898 197.958 129.645 199.882 131.139C201.807 132.633 203.098 134.721 203.756 137.405C204.414 140.089 204.744 143.583 204.744 147.887V164.673H196.54V148.115C196.54 143.71 196.11 140.532 195.249 138.583C194.388 136.633 192.616 135.658 189.932 135.658C188.413 135.658 186.869 136.127 185.299 137.063C183.729 138 182.425 139.355 181.387 141.127C180.349 142.899 179.83 144.975 179.83 147.355V164.673H171.627V129.81ZM217.942 162.964C220.727 164.61 224.195 165.433 228.347 165.433C231.436 165.433 234.069 165.129 236.247 164.521C238.424 163.914 240.146 163.205 241.412 162.395L238.905 156.546C237.589 157.255 236.146 157.812 234.576 158.217C233.006 158.622 231.006 158.825 228.575 158.825C225.638 158.825 223.347 158.141 221.701 156.774C220.056 155.407 218.954 153.179 218.397 150.09H243.463C243.615 148.621 243.69 147.203 243.69 145.836C243.69 140.469 242.387 136.304 239.779 133.342C237.171 130.379 233.183 128.898 227.816 128.898C224.372 128.898 221.284 129.645 218.549 131.139C215.815 132.633 213.675 134.772 212.131 137.557C210.587 140.342 209.814 143.583 209.814 147.279C209.814 150.571 210.473 153.596 211.789 156.356C213.106 159.116 215.157 161.319 217.942 162.964ZM235.715 144.393C235.766 141.253 235.082 139.038 233.664 137.747C232.247 136.456 230.221 135.81 227.588 135.81C222.271 135.81 219.208 138.671 218.397 144.393H235.715ZM257.724 145.304L262.281 139.684L279.371 164.673H289.777L267.826 133.379L287.043 108.846H276.865L257.724 133.759V108.846H249.369V164.673H257.724V145.304ZM307.077 165.433C302.925 165.433 299.456 164.61 296.671 162.964C293.886 161.319 291.835 159.116 290.519 156.356C289.202 153.596 288.544 150.571 288.544 147.279C288.544 143.583 289.316 140.342 290.861 137.557C292.405 134.772 294.544 132.633 297.279 131.139C300.013 129.645 303.102 128.898 306.545 128.898C311.913 128.898 315.901 130.379 318.508 133.342C321.116 136.304 322.42 140.469 322.42 145.836C322.42 147.203 322.344 148.621 322.192 150.09H297.127C297.684 153.179 298.785 155.407 300.431 156.774C302.077 158.141 304.368 158.825 307.305 158.825C309.736 158.825 311.736 158.622 313.306 158.217C314.875 157.812 316.318 157.255 317.635 156.546L320.142 162.395C318.876 163.205 317.154 163.914 314.977 164.521C312.799 165.129 310.166 165.433 307.077 165.433ZM312.394 137.747C313.812 139.038 314.495 141.253 314.445 144.393H297.127C297.937 138.671 301 135.81 306.317 135.81C308.951 135.81 310.976 136.456 312.394 137.747ZM337.593 165.736L323.162 129.809H332.428L339.872 151.988L341.543 157.381L343.214 151.988L351.037 129.809H360L338.581 183.814H330.074L337.593 165.736Z" fill="#00B812"/>
</svg>
