<svg width="360" height="280" viewBox="0 0 360 280" fill="none" xmlns="http://www.w3.org/2000/svg">
<path d="M316.17 99H127.17C126.594 99 126.043 99.2286 125.636 99.6356C125.229 100.043 125 100.594 125 101.17V232.312C125 232.888 125.229 233.439 125.636 233.846C126.043 234.253 126.594 234.482 127.17 234.482H316.17C316.746 234.482 317.297 234.253 317.704 233.846C318.111 233.439 318.34 232.888 318.34 232.312V101.17C318.34 100.594 318.111 100.043 317.704 99.6356C317.297 99.2286 316.746 99 316.17 99Z" fill="#7A7F80"/>
<path d="M127.17 99.482H316.17C317.102 99.482 317.857 100.238 317.857 101.17V232.312C317.857 233.244 317.102 234 316.17 234H127.17C126.948 234 126.729 233.957 126.524 233.872C126.319 233.787 126.133 233.663 125.976 233.506C125.819 233.349 125.695 233.163 125.61 232.958C125.525 232.753 125.482 232.534 125.482 232.312V101.17C125.482 100.238 126.238 99.482 127.17 99.482Z" fill="white"/>
<path d="M315.206 101.17H128.134C127.602 101.17 127.17 101.602 127.17 102.134V231.349C127.17 231.881 127.602 232.313 128.134 232.313H315.206C315.738 232.313 316.17 231.881 316.17 231.349V102.134C316.17 101.602 315.738 101.17 315.206 101.17Z" fill="#D8D9DA"/>
<path d="M130.063 109.848H313.277V229.419H130.063V109.848Z" fill="white"/>
<path d="M233.17 44H44.17C43.5945 44 43.0425 44.2286 42.6356 44.6356C42.2286 45.0425 42 45.5945 42 46.17V177.312C42 177.888 42.2286 178.439 42.6356 178.846C43.0425 179.253 43.5945 179.482 44.17 179.482H233.17C233.746 179.482 234.297 179.253 234.704 178.846C235.111 178.439 235.34 177.888 235.34 177.312V46.17C235.34 45.5945 235.111 45.0425 234.704 44.6356C234.297 44.2286 233.746 44 233.17 44Z" fill="#7A7F80"/>
<path d="M44.1699 44.482H233.17C234.102 44.482 234.857 45.238 234.857 46.17V177.312C234.857 178.244 234.102 179 233.17 179H44.1699C43.9482 179 43.7287 178.957 43.5238 178.872C43.319 178.787 43.1328 178.663 42.976 178.506C42.8193 178.349 42.6949 178.163 42.6102 177.958C42.5254 177.753 42.4818 177.534 42.4819 177.312V46.17C42.4819 45.238 43.2379 44.482 44.1699 44.482Z" fill="white"/>
<path d="M232.206 46.17H45.1339C44.6015 46.17 44.1699 46.6016 44.1699 47.134V176.349C44.1699 176.881 44.6015 177.313 45.1339 177.313H232.206C232.738 177.313 233.17 176.881 233.17 176.349V47.134C233.17 46.6016 232.738 46.17 232.206 46.17Z" fill="#00B812" fill-opacity="0.5"/>
<path d="M48.0271 51.955C48.8257 51.955 49.4731 51.3076 49.4731 50.509C49.4731 49.7104 48.8257 49.063 48.0271 49.063C47.2285 49.063 46.5811 49.7104 46.5811 50.509C46.5811 51.3076 47.2285 51.955 48.0271 51.955Z" fill="#00B812"/>
<path d="M53.8132 51.955C54.6118 51.955 55.2592 51.3076 55.2592 50.509C55.2592 49.7104 54.6118 49.063 53.8132 49.063C53.0146 49.063 52.3672 49.7104 52.3672 50.509C52.3672 51.3076 53.0146 51.955 53.8132 51.955Z" fill="#00B812"/>
<path d="M59.5979 51.955C60.3965 51.955 61.0439 51.3076 61.0439 50.509C61.0439 49.7104 60.3965 49.063 59.5979 49.063C58.7993 49.063 58.1519 49.7104 58.1519 50.509C58.1519 51.3076 58.7993 51.955 59.5979 51.955Z" fill="#00B812"/>
<path d="M47.063 54.848H230.277V174.419H47.063V54.848Z" fill="white"/>
</svg>
