<svg width="1283" height="1184" viewBox="0 0 1283 1184" fill="none" xmlns="http://www.w3.org/2000/svg">
<path d="M578.957 156.067H1249.59V1059.31H578.957V156.067Z" fill="white"/>
<path d="M1246.6 159.06V1056.34H581.935V159.06H1246.59H1246.6ZM1252.57 153.072H575.956V1062.33H1252.58V153.072H1252.57Z" fill="#A3A4A9"/>
<path d="M581.948 159.063H1246.6V212.117H581.948V159.063Z" fill="#D8D9DA"/>
<path d="M804.414 159.073L990.981 1056.32H643.802V159.073H804.414Z" fill="#D8D9DA"/>
<g clip-path="url(#clip0)">
<path fill-rule="evenodd" clip-rule="evenodd" d="M784.898 355.14H1049.99C1058.79 355.14 1061.98 356.056 1065.19 357.775C1068.41 359.495 1070.93 362.018 1072.65 365.233C1074.37 368.449 1075.28 371.638 1075.28 380.433V842.827C1075.28 851.622 1074.37 854.811 1072.65 858.027C1070.93 861.242 1068.41 863.765 1065.19 865.485C1061.98 867.204 1058.79 868.12 1049.99 868.12H784.898C776.103 868.12 772.914 867.204 769.698 865.485C766.483 863.765 763.96 861.242 762.24 858.027C760.521 854.811 759.605 851.622 759.605 842.827V380.433C759.605 371.638 760.521 368.449 762.24 365.233C763.96 362.018 766.483 359.495 769.698 357.775C772.914 356.056 776.103 355.14 784.898 355.14Z" fill="#525254"/>
<path d="M816.824 631.348C830.989 631.348 842.473 619.865 842.473 605.7C842.473 591.534 830.989 580.051 816.824 580.051C802.658 580.051 791.175 591.534 791.175 605.7C791.175 619.865 802.658 631.348 816.824 631.348Z" fill="#39393B"/>
<path d="M883.904 631.348C898.069 631.348 909.553 619.865 909.553 605.7C909.553 591.534 898.069 580.051 883.904 580.051C869.738 580.051 858.255 591.534 858.255 605.7C858.255 619.865 869.738 631.348 883.904 631.348Z" fill="#39393B"/>
<path d="M950.984 631.348C965.15 631.348 976.633 619.865 976.633 605.7C976.633 591.534 965.15 580.051 950.984 580.051C936.819 580.051 925.335 591.534 925.335 605.7C925.335 619.865 936.819 631.348 950.984 631.348Z" fill="#39393B"/>
<path d="M1018.06 631.348C1032.23 631.348 1043.71 619.865 1043.71 605.7C1043.71 591.534 1032.23 580.051 1018.06 580.051C1003.9 580.051 992.415 591.534 992.415 605.7C992.415 619.865 1003.9 631.348 1018.06 631.348Z" fill="#39393B"/>
<path fill-rule="evenodd" clip-rule="evenodd" d="M1036.42 391.306C1037.73 391.309 1038.3 391.345 1038.83 391.63C1039.1 391.772 1039.3 391.982 1039.45 392.248C1039.75 392.819 1039.77 393.426 1039.77 394.947V549.45C1039.77 550.971 1039.75 551.578 1039.45 552.149C1039.3 552.415 1039.1 552.625 1038.83 552.767C1038.26 553.073 1037.65 553.092 1036.13 553.092H798.762C797.241 553.092 796.634 553.073 796.063 552.767C795.796 552.625 795.587 552.415 795.444 552.149C795.139 551.578 795.12 550.971 795.12 549.45L795.12 394.655C795.124 393.346 795.159 392.781 795.444 392.248C795.587 391.982 795.796 391.772 796.063 391.63C796.634 391.324 797.241 391.305 798.762 391.305L1036.42 391.306Z" fill="#202021" stroke="black" stroke-width="1.5"/>
<path d="M749.74 345.275H848.39L966.77 942.108L749.74 966.77V345.275Z" fill="#D8D9DA" fill-opacity="0.05"/>
</g>
<path d="M1236.71 167.813V1045.15H591.999V167.813H1236.71V167.813ZM1246.67 157.84H582.035V1055.12H1246.69V157.84H1246.67Z" fill="white"/>
<path d="M3.53076 256.935L663.193 119.969L852.996 1034.06L193.323 1171.04L3.53076 256.935Z" fill="white"/>
<path d="M660.866 123.469L849.505 1031.7L195.712 1167.48L7.0732 259.261L660.856 123.469H660.866ZM665.493 116.386L659.643 117.599L5.85981 253.362L0 254.604L1.2134 260.474L189.852 1168.71L191.065 1174.56L196.925 1173.34L850.718 1037.55L856.578 1036.34L855.365 1030.48L666.726 122.256L665.503 116.386H665.493Z" fill="#A3A4A9"/>
<path opacity="0.4" d="M1206.39 425.027C1246.62 425.027 1279.23 392.418 1279.23 352.194C1279.23 311.969 1246.62 279.36 1206.39 279.36C1166.17 279.36 1133.56 311.969 1133.56 352.194C1133.56 392.418 1166.17 425.027 1206.39 425.027Z" fill="#F9C447"/>
<path opacity="0.4" d="M1213.78 976.44C1247.36 976.44 1274.58 949.22 1274.58 915.642C1274.58 882.065 1247.36 854.844 1213.78 854.844C1180.2 854.844 1152.98 882.065 1152.98 915.642C1152.98 949.22 1180.2 976.44 1213.78 976.44Z" fill="#F9C447"/>
<path opacity="0.4" d="M945.601 125.937C980.378 125.937 1008.57 97.7447 1008.57 62.9683C1008.57 28.1919 980.378 0 945.601 0C910.825 0 882.633 28.1919 882.633 62.9683C882.633 97.7447 910.825 125.937 945.601 125.937Z" fill="#F9C447"/>
<path opacity="0.4" d="M575.217 244.52C617.833 244.52 652.381 209.973 652.381 167.356C652.381 124.739 617.833 90.192 575.217 90.192C532.6 90.192 498.052 124.739 498.052 167.356C498.052 209.973 532.6 244.52 575.217 244.52Z" fill="#F9C447"/>
<path d="M575.219 219.584C604.063 219.584 627.445 196.202 627.445 167.359C627.445 138.516 604.063 115.134 575.219 115.134C546.376 115.134 522.994 138.516 522.994 167.359C522.994 196.202 546.376 219.584 575.219 219.584Z" fill="#F9C447"/>
<path d="M575.208 134.517L608.049 167.348L575.208 200.188L542.377 167.348L575.208 134.517Z" fill="white"/>
<path d="M1206.39 404.418C1235.23 404.418 1258.62 381.036 1258.62 352.192C1258.62 323.349 1235.23 299.967 1206.39 299.967C1177.55 299.967 1154.17 323.349 1154.17 352.192C1154.17 381.036 1177.55 404.418 1206.39 404.418Z" fill="#F9C447"/>
<path d="M1206.39 319.35L1239.23 352.191L1206.39 385.022L1173.56 352.191L1206.39 319.35Z" fill="white"/>
<path d="M946.36 101.173C967.461 101.173 984.567 84.0674 984.567 62.9662C984.567 41.865 967.461 24.7591 946.36 24.7591C925.259 24.7591 908.153 41.865 908.153 62.9662C908.153 84.0674 925.259 101.173 946.36 101.173Z" fill="#F9C447"/>
<path d="M946.36 38.9685L970.381 62.9799L946.35 87.0111L922.339 62.9898L946.36 38.9685Z" fill="white"/>
<path d="M685.054 776.589C706.155 776.589 723.261 759.483 723.261 738.382C723.261 717.28 706.155 700.175 685.054 700.175C663.952 700.175 646.846 717.28 646.846 738.382C646.846 759.483 663.952 776.589 685.054 776.589Z" fill="#F9C447"/>
<path d="M685.063 714.365L709.075 738.376L685.063 762.397L661.042 738.376L685.063 714.365Z" fill="white"/>
<path d="M1213.78 953.85C1234.88 953.85 1251.99 936.744 1251.99 915.643C1251.99 894.541 1234.88 877.436 1213.78 877.436C1192.68 877.436 1175.57 894.541 1175.57 915.643C1175.57 936.744 1192.68 953.85 1213.78 953.85Z" fill="#F9C447"/>
<path d="M1213.77 891.617L1237.79 915.628L1213.77 939.65L1189.76 915.628L1213.77 891.617Z" fill="white"/>
<path fill-rule="evenodd" clip-rule="evenodd" d="M416.229 632.075C442.78 625.979 469.076 641.827 474.965 667.473C480.853 693.118 464.102 718.849 437.552 724.945C411.001 731.041 384.704 715.193 378.816 689.548C372.928 663.902 389.678 638.171 416.229 632.075ZM421.069 653.155C406.572 656.483 397.426 670.533 400.641 684.536C403.856 698.539 418.215 707.192 432.712 703.864C447.209 700.535 456.354 686.485 453.14 672.483C449.925 658.48 435.566 649.827 421.069 653.155ZM411.792 541.078L428.536 614.007L400.222 620.508L388.869 571.056L363.504 576.88L366.126 551.563L411.792 541.078Z" fill="#D8D9DA"/>
<defs>
<clipPath id="clip0">
<rect width="315.68" height="512.98" fill="white" transform="translate(759.605 355.14)"/>
</clipPath>
</defs>
</svg>
