<svg width="48" height="48" viewBox="0 0 48 48" xmlns="http://www.w3.org/2000/svg">
<path d="M12.3184 40.5352C13.1445 41.168 14.1641 40.957 15.3594 40.0957L24.5 33.3809L33.6406 40.0957C34.8359 40.957 35.873 41.168 36.6992 40.5352C37.5078 39.9199 37.6836 38.9004 37.209 37.5117L33.6055 26.7715L42.834 20.1445C44.0117 19.3008 44.5215 18.3691 44.1875 17.3848C43.8535 16.418 42.9219 15.9434 41.4629 15.9609L30.1426 16.0312L26.6973 5.23828C26.2578 3.83203 25.5371 3.07617 24.5 3.07617C23.4805 3.07617 22.7598 3.83203 22.3027 5.23828L18.8574 16.0312L7.53711 15.9609C6.07812 15.9434 5.16406 16.418 4.83008 17.3848C4.49609 18.3691 4.98828 19.3008 6.18359 20.1445L15.4121 26.7715L11.791 37.5117C11.3164 38.9004 11.4922 39.9199 12.3184 40.5352ZM15.3945 36.2988C15.377 36.2637 15.377 36.2461 15.3945 36.1582L18.7344 26.7188C19.0332 25.8574 18.9277 25.3125 18.1367 24.7852L9.875 19.125C9.80469 19.0898 9.76953 19.0547 9.78711 19.002C9.82227 18.9668 9.85742 18.9492 9.94531 18.9492L19.9473 19.1777C20.8613 19.2129 21.3184 18.9141 21.582 18.0352L24.4121 8.4375C24.4297 8.33203 24.4648 8.31445 24.5 8.31445C24.5527 8.31445 24.5703 8.33203 24.6055 8.4375L27.418 18.0352C27.6816 18.9141 28.1562 19.2129 29.0527 19.1777L39.0547 18.9492C39.1602 18.9492 39.1953 18.9668 39.2129 19.002C39.2305 19.0547 39.2129 19.0723 39.125 19.125L30.8809 24.7852C30.0723 25.3301 29.9668 25.8574 30.2656 26.7188L33.6055 36.1582C33.6406 36.2461 33.6406 36.2637 33.6055 36.2988C33.5703 36.3516 33.5352 36.3164 33.4648 36.2812L25.5371 30.1641C24.8164 29.6016 24.1836 29.6016 23.4805 30.1641L15.5527 36.2812C15.4824 36.3164 15.4297 36.3516 15.3945 36.2988Z"/>
</svg>
