<svg width="360" height="280" viewBox="0 0 360 280" fill="none" xmlns="http://www.w3.org/2000/svg">
<path fill-rule="evenodd" clip-rule="evenodd" d="M146.41 26H213.59C215.819 26 216.627 26.2321 217.442 26.6678C218.257 27.1036 218.896 27.7431 219.332 28.5579C219.768 29.3727 220 30.1809 220 32.4097V149.59C220 151.819 219.768 152.627 219.332 153.442C218.896 154.257 218.257 154.896 217.442 155.332C216.627 155.768 215.819 156 213.59 156H146.41C144.181 156 143.373 155.768 142.558 155.332C141.743 154.896 141.104 154.257 140.668 153.442C140.232 152.627 140 151.819 140 149.59V32.4097C140 30.1809 140.232 29.3727 140.668 28.5579C141.104 27.7431 141.743 27.1036 142.558 26.6678C143.373 26.2321 144.181 26 146.41 26Z" fill="#525254"/>
<path d="M154.498 95.9925C158.088 95.9925 160.998 93.0824 160.998 89.4926C160.998 85.9027 158.088 82.9926 154.498 82.9926C150.908 82.9926 147.998 85.9027 147.998 89.4926C147.998 93.0824 150.908 95.9925 154.498 95.9925Z" fill="#39393B"/>
<path d="M171.5 95.9925C175.09 95.9925 178 93.0824 178 89.4926C178 85.9027 175.09 82.9926 171.5 82.9926C167.91 82.9926 165 85.9027 165 89.4926C165 93.0824 167.91 95.9925 171.5 95.9925Z" fill="#39393B"/>
<path d="M188.502 95.9925C192.092 95.9925 195.002 93.0824 195.002 89.4926C195.002 85.9027 192.092 82.9926 188.502 82.9926C184.912 82.9926 182.002 85.9027 182.002 89.4926C182.002 93.0824 184.912 95.9925 188.502 95.9925Z" fill="#39393B"/>
<path d="M205.499 95.9925C209.089 95.9925 211.999 93.0824 211.999 89.4926C211.999 85.9027 209.089 82.9926 205.499 82.9926C201.909 82.9926 198.999 85.9027 198.999 89.4926C198.999 93.0824 201.909 95.9925 205.499 95.9925Z" fill="#39393B"/>
<path fill-rule="evenodd" clip-rule="evenodd" d="M210.15 35.0039C210.482 35.0047 210.625 35.0137 210.76 35.0859C210.828 35.1221 210.881 35.1752 210.917 35.2427C210.994 35.3874 210.999 35.5413 210.999 35.9267V75.0809C210.999 75.4663 210.994 75.6202 210.917 75.7648C210.881 75.8324 210.828 75.8855 210.76 75.9216C210.615 75.999 210.462 76.0038 210.076 76.0038H149.922C149.536 76.0038 149.383 75.999 149.238 75.9216C149.17 75.8855 149.117 75.8324 149.081 75.7648C149.004 75.6202 148.999 75.4663 148.999 75.0809L148.999 35.8526C149 35.5208 149.009 35.3778 149.081 35.2427C149.117 35.1752 149.17 35.1221 149.238 35.0859C149.383 35.0086 149.536 35.0038 149.922 35.0038L210.15 35.0039Z" fill="#202021" stroke="black" stroke-width="1.5"/>
<path d="M188.821 100.642C194.245 100.642 198.642 96.2452 198.642 90.8212C198.642 85.3971 194.245 81 188.821 81C183.397 81 179 85.3971 179 90.8212C179 96.2452 183.397 100.642 188.821 100.642Z" fill="#00B812" fill-opacity="0.5"/>
<path d="M211 119.699C206.511 115.21 202.451 105.752 202.451 105.752L201.962 103.461C201.962 103.461 200.287 99.8189 199.041 98.346C197.936 96.1586 196.968 93.8874 195.836 91.7171C195.164 90.4251 194.451 89.0625 193.692 87.8274C192.933 86.5919 191.798 85.5112 190.391 85.1639C189.022 84.8252 187.281 85.0076 185.994 85.5846C184.66 86.1839 182.73 87.2452 182.555 90.8709C182.281 96.7096 183.97 100.469 186.289 105.855L188.453 109.146C188.453 109.146 193.674 128.648 195.553 134.551" fill="white"/>
<path d="M211 119.699C206.511 115.21 202.451 105.752 202.451 105.752L201.962 103.461C201.962 103.461 200.287 99.8189 199.041 98.346C197.936 96.1586 196.968 93.8874 195.836 91.7171C195.164 90.4251 194.451 89.0625 193.692 87.8274C192.933 86.5919 191.798 85.5112 190.391 85.1639C189.022 84.8252 187.281 85.0076 185.994 85.5846C184.66 86.1839 182.73 87.2452 182.555 90.8709C182.281 96.7096 183.97 100.469 186.289 105.855L188.453 109.146C188.453 109.146 193.674 128.648 195.553 134.551" stroke="#D8D9DA" stroke-width="1.661"/>
<path d="M185.803 95.4783C185.814 95.2381 186.006 95.0481 186.188 94.8918C188.19 93.1883 191.769 92.3133 194.397 92.3702" stroke="#D8D9DA" stroke-width="1.107"/>
<path d="M193.167 101.878C193.759 101.789 194.032 101.726 194.623 101.636C194.928 101.591 195.558 101.541 195.84 101.416C196.296 101.227 196.675 100.89 196.917 100.46M185.443 95.1395C184.686 93.6751 184.198 92.0878 184.002 90.4538C183.958 90.0872 184.1 89.7254 184.368 89.4707L184.429 89.4125C186.228 87.6977 188.736 86.9405 191.184 87.3725V87.3725C191.269 87.3875 191.344 87.4383 191.389 87.512L194.558 92.7058C194.44 93.5216 193.772 94.336 193.083 94.7871C191.281 95.9672 189.085 96.5376 186.953 96.2297C186.605 96.1993 186.27 96.0785 185.982 95.8796C185.752 95.6733 185.569 95.4212 185.443 95.1395ZM188.762 102.35C190.375 101.045 192.172 99.7929 194.237 99.5839C194.845 99.5223 195.48 99.5498 196.034 99.2945L188.762 102.35Z" stroke="#D8D9DA" stroke-width="1.107"/>
<path d="M154.179 100.642C148.755 100.642 144.358 96.2452 144.358 90.8212C144.358 85.3971 148.755 81 154.179 81C159.603 81 164 85.3971 164 90.8212C164 96.2452 159.603 100.642 154.179 100.642Z" fill="#00B812" fill-opacity="0.5"/>
<path d="M132 119.699C136.489 115.21 140.549 105.752 140.549 105.752L141.038 103.461C141.038 103.461 142.713 99.8189 143.959 98.346C145.064 96.1586 146.032 93.8874 147.164 91.7171C147.836 90.4251 148.549 89.0625 149.308 87.8274C150.067 86.5919 151.202 85.5112 152.609 85.1639C153.978 84.8252 155.719 85.0076 157.006 85.5846C158.34 86.1839 160.27 87.2452 160.445 90.8709C160.719 96.7096 159.03 100.469 156.711 105.855L154.547 109.146C154.547 109.146 149.326 128.648 147.447 134.551" fill="white"/>
<path d="M132 119.699C136.489 115.21 140.549 105.752 140.549 105.752L141.038 103.461C141.038 103.461 142.713 99.8189 143.959 98.346C145.064 96.1586 146.032 93.8874 147.164 91.7171C147.836 90.4251 148.549 89.0625 149.308 87.8274C150.067 86.5919 151.202 85.5112 152.609 85.1639C153.978 84.8252 155.719 85.0076 157.006 85.5846C158.34 86.1839 160.27 87.2452 160.445 90.8709C160.719 96.7096 159.03 100.469 156.711 105.855L154.547 109.146C154.547 109.146 149.326 128.648 147.447 134.551" stroke="#D8D9DA" stroke-width="1.661"/>
<path d="M157.197 95.4783C157.186 95.2381 156.994 95.0481 156.812 94.8918C154.81 93.1883 151.231 92.3133 148.603 92.3702" stroke="#D8D9DA" stroke-width="1.107"/>
<path d="M149.833 101.878C149.241 101.789 148.968 101.726 148.377 101.636C148.072 101.591 147.442 101.541 147.16 101.416C146.704 101.227 146.325 100.89 146.083 100.46M157.557 95.1395C158.314 93.6751 158.802 92.0878 158.998 90.4538C159.042 90.0872 158.9 89.7254 158.632 89.4707L158.571 89.4125C156.772 87.6977 154.264 86.9405 151.816 87.3725V87.3725C151.731 87.3875 151.656 87.4383 151.611 87.512L148.442 92.7058C148.56 93.5216 149.228 94.336 149.917 94.7871C151.719 95.9672 153.915 96.5376 156.047 96.2297C156.395 96.1993 156.73 96.0785 157.018 95.8796C157.248 95.6733 157.431 95.4212 157.557 95.1395ZM154.238 102.35C152.625 101.045 150.828 99.7929 148.763 99.5839C148.155 99.5223 147.52 99.5498 146.966 99.2945L154.238 102.35Z" stroke="#D8D9DA" stroke-width="1.107"/>
<path d="M182.297 228.642L182.335 253.005L177.484 253.013L177.446 228.65L182.297 228.642Z" fill="#D8D9DA"/>
<path d="M182.215 228.632L182.334 249.95L177.484 249.978L177.365 228.659L182.215 228.632ZM172.21 192.584H187.536V221.293H172.21V192.584Z" fill="#BEBDC0"/>
<path d="M174.871 214.226H184.872V243.479H174.871V214.226Z" fill="#D8D9DA"/>
<path d="M171 206.499H188.744V232.842H171V206.499Z" fill="#D8D9DA"/>
<path d="M179.847 184.453C178.937 178.015 178.817 170.683 179.48 162.453L179.552 161.598L180.882 161.713C180.172 169.913 180.238 177.211 181.079 183.608L181.169 184.266L179.847 184.453Z" fill="#FEC746"/>
<path d="M174.967 167.891L174.064 166.908L180.497 161L186.407 167.433L185.424 168.337L180.417 162.886L174.967 167.891Z" fill="#FEC746"/>
</svg>
