<svg width="360" height="280" viewBox="0 0 360 280" fill="none" xmlns="http://www.w3.org/2000/svg">
<path fill-rule="evenodd" clip-rule="evenodd" d="M139.692 62H220.308C222.983 62 223.953 62.2785 224.931 62.8014C225.908 63.3243 226.676 64.0917 227.199 65.0695C227.722 66.0472 228 67.0171 228 69.6917V210.308C228 212.983 227.722 213.953 227.199 214.931C226.676 215.908 225.908 216.676 224.931 217.199C223.953 217.722 222.983 218 220.308 218H139.692C137.017 218 136.047 217.722 135.069 217.199C134.092 216.676 133.324 215.908 132.801 214.931C132.278 213.953 132 212.983 132 210.308V69.6917C132 67.0171 132.278 66.0472 132.801 65.0695C133.324 64.0917 134.092 63.3243 135.069 62.8014C136.047 62.2785 137.017 62 139.692 62Z" fill="#525254"/>
<path d="M149.401 145.997C153.708 145.997 157.201 142.504 157.201 138.197C157.201 133.889 153.708 130.397 149.401 130.397C145.093 130.397 141.601 133.889 141.601 138.197C141.601 142.504 145.093 145.997 149.401 145.997Z" fill="#39393B"/>
<path d="M169.8 145.997C174.108 145.997 177.6 142.504 177.6 138.197C177.6 133.889 174.108 130.397 169.8 130.397C165.492 130.397 162 133.889 162 138.197C162 142.504 165.492 145.997 169.8 145.997Z" fill="#39393B"/>
<path d="M190.199 145.997C194.507 145.997 197.999 142.504 197.999 138.197C197.999 133.889 194.507 130.397 190.199 130.397C185.892 130.397 182.399 133.889 182.399 138.197C182.399 142.504 185.892 145.997 190.199 145.997Z" fill="#39393B"/>
<path d="M210.599 145.997C214.907 145.997 218.399 142.504 218.399 138.197C218.399 133.889 214.907 130.397 210.599 130.397C206.291 130.397 202.799 133.889 202.799 138.197C202.799 142.504 206.291 145.997 210.599 145.997Z" fill="#39393B"/>
<path fill-rule="evenodd" clip-rule="evenodd" d="M216.381 72.9995C216.78 73.0005 216.951 73.0113 217.113 73.098C217.194 73.1413 217.258 73.205 217.301 73.2861C217.394 73.4597 217.4 73.6443 217.4 74.1069V121.092C217.4 121.554 217.394 121.739 217.301 121.913C217.258 121.994 217.194 122.057 217.113 122.101C216.94 122.194 216.755 122.199 216.293 122.199H144.107C143.645 122.199 143.46 122.194 143.287 122.101C143.206 122.057 143.142 121.994 143.099 121.913C143.006 121.739 143 121.554 143 121.092L143 74.018C143.001 73.6198 143.012 73.4482 143.099 73.2861C143.142 73.205 143.206 73.1413 143.287 73.098C143.46 73.0051 143.645 72.9994 144.107 72.9994L216.381 72.9995Z" fill="#202021" stroke="black" stroke-width="1.5"/>
<path d="M212.049 150.098C218.151 150.098 223.098 145.151 223.098 139.049C223.098 132.947 218.151 128 212.049 128C205.947 128 201 132.947 201 139.049C201 145.151 205.947 150.098 212.049 150.098Z" fill="#00B812" fill-opacity="0.5"/>
<path d="M237 171.536C231.95 166.486 227.382 155.846 227.382 155.846L226.832 153.269C226.832 153.269 224.948 149.172 223.546 147.515C222.302 145.054 221.214 142.499 219.941 140.057C219.184 138.604 218.383 137.071 217.528 135.681C216.674 134.291 215.398 133.075 213.815 132.685C212.275 132.304 210.316 132.509 208.868 133.158C207.368 133.832 205.196 135.026 205 139.105C204.691 145.674 206.592 149.903 209.2 155.962L211.634 159.665C211.634 159.665 217.508 181.604 219.622 188.245" fill="white"/>
<path d="M237 171.536C231.95 166.486 227.382 155.846 227.382 155.846L226.832 153.269C226.832 153.269 224.948 149.172 223.546 147.515C222.302 145.054 221.214 142.499 219.941 140.057C219.184 138.604 218.383 137.071 217.528 135.681C216.674 134.291 215.398 133.075 213.815 132.685C212.275 132.304 210.316 132.509 208.868 133.158C207.368 133.832 205.196 135.026 205 139.105C204.691 145.674 206.592 149.903 209.2 155.962L211.634 159.665C211.634 159.665 217.508 181.604 219.622 188.245" stroke="#D8D9DA" stroke-width="1.661"/>
<path d="M208.654 144.289C208.666 144.019 208.881 143.805 209.087 143.629C211.339 141.713 215.366 140.729 218.322 140.793" stroke="#D8D9DA" stroke-width="1.107"/>
<path d="M216.939 151.487C217.604 151.387 217.912 151.316 218.576 151.215C218.92 151.164 219.628 151.108 219.945 150.968C220.458 150.755 220.884 150.376 221.157 149.893M208.249 143.907C207.396 142.259 206.848 140.473 206.628 138.635C206.578 138.223 206.738 137.816 207.039 137.529L207.107 137.464C209.132 135.535 211.953 134.683 214.707 135.169V135.169C214.803 135.186 214.887 135.243 214.937 135.326L218.503 141.169C218.371 142.087 217.619 143.003 216.844 143.51C214.817 144.838 212.346 145.479 209.948 145.133C209.556 145.099 209.179 144.963 208.855 144.739C208.597 144.507 208.39 144.224 208.249 143.907ZM211.983 152.018C213.797 150.55 215.819 149.142 218.142 148.907C218.825 148.837 219.541 148.868 220.164 148.581L211.983 152.018Z" stroke="#D8D9DA" stroke-width="1.107"/>
<path d="M186.951 150.098C180.849 150.098 175.902 145.151 175.902 139.049C175.902 132.947 180.849 128 186.951 128C193.053 128 198 132.947 198 139.049C198 145.151 193.053 150.098 186.951 150.098Z" fill="#00B812" fill-opacity="0.5"/>
<path d="M162 171.536C167.05 166.486 171.618 155.846 171.618 155.846L172.168 153.269C172.168 153.269 174.052 149.172 175.454 147.515C176.698 145.054 177.786 142.499 179.059 140.057C179.816 138.604 180.617 137.071 181.472 135.681C182.326 134.291 183.602 133.075 185.185 132.685C186.725 132.304 188.684 132.509 190.132 133.158C191.632 133.832 193.804 135.026 194 139.105C194.309 145.674 192.408 149.903 189.8 155.962L187.366 159.665C187.366 159.665 181.492 181.604 179.378 188.245" fill="white"/>
<path d="M162 171.536C167.05 166.486 171.618 155.846 171.618 155.846L172.168 153.269C172.168 153.269 174.052 149.172 175.454 147.515C176.698 145.054 177.786 142.499 179.059 140.057C179.816 138.604 180.617 137.071 181.472 135.681C182.326 134.291 183.602 133.075 185.185 132.685C186.725 132.304 188.684 132.509 190.132 133.158C191.632 133.832 193.804 135.026 194 139.105C194.309 145.674 192.408 149.903 189.8 155.962L187.366 159.665C187.366 159.665 181.492 181.604 179.378 188.245" stroke="#D8D9DA" stroke-width="1.661"/>
<path d="M190.346 144.289C190.334 144.019 190.119 143.805 189.913 143.629C187.661 141.713 183.634 140.729 180.678 140.793" stroke="#D8D9DA" stroke-width="1.107"/>
<path d="M182.061 151.487C181.396 151.387 181.088 151.316 180.424 151.215C180.08 151.164 179.372 151.108 179.055 150.968C178.542 150.755 178.116 150.376 177.843 149.893M190.751 143.907C191.604 142.259 192.152 140.473 192.372 138.635C192.422 138.223 192.262 137.816 191.961 137.529L191.893 137.464C189.868 135.535 187.047 134.683 184.293 135.169V135.169C184.197 135.186 184.113 135.243 184.063 135.326L180.497 141.169C180.629 142.087 181.381 143.003 182.156 143.51C184.183 144.838 186.654 145.479 189.052 145.133C189.444 145.099 189.821 144.963 190.145 144.739C190.403 144.507 190.61 144.224 190.751 143.907ZM187.017 152.018C185.203 150.55 183.181 149.142 180.858 148.907C180.175 148.837 179.459 148.868 178.836 148.581L187.017 152.018Z" stroke="#D8D9DA" stroke-width="1.107"/>
</svg>
