<svg width="360" height="280" viewBox="0 0 360 280" fill="none" xmlns="http://www.w3.org/2000/svg">
<g clip-path="url(#clip0)">
<path fill-rule="evenodd" clip-rule="evenodd" d="M146.41 26H213.59C215.819 26 216.627 26.2321 217.442 26.6678C218.257 27.1036 218.896 27.7431 219.332 28.5579C219.768 29.3727 220 30.1809 220 32.4097V149.59C220 151.819 219.768 152.627 219.332 153.442C218.896 154.257 218.257 154.896 217.442 155.332C216.627 155.768 215.819 156 213.59 156H146.41C144.181 156 143.373 155.768 142.558 155.332C141.743 154.896 141.104 154.257 140.668 153.442C140.232 152.627 140 151.819 140 149.59V32.4097C140 30.1809 140.232 29.3727 140.668 28.5579C141.104 27.7431 141.743 27.1036 142.558 26.6678C143.373 26.2321 144.181 26 146.41 26Z" fill="#525254"/>
<path d="M154.498 95.9925C158.088 95.9925 160.998 93.0824 160.998 89.4926C160.998 85.9027 158.088 82.9926 154.498 82.9926C150.908 82.9926 147.998 85.9027 147.998 89.4926C147.998 93.0824 150.908 95.9925 154.498 95.9925Z" fill="#39393B"/>
<path d="M171.5 95.9925C175.09 95.9925 178 93.0824 178 89.4926C178 85.9027 175.09 82.9926 171.5 82.9926C167.91 82.9926 165 85.9027 165 89.4926C165 93.0824 167.91 95.9925 171.5 95.9925Z" fill="#39393B"/>
<path d="M188.502 95.9925C192.092 95.9925 195.002 93.0824 195.002 89.4926C195.002 85.9027 192.092 82.9926 188.502 82.9926C184.912 82.9926 182.002 85.9027 182.002 89.4926C182.002 93.0824 184.912 95.9925 188.502 95.9925Z" fill="#39393B"/>
<path d="M205.499 95.9925C209.089 95.9925 211.999 93.0824 211.999 89.4926C211.999 85.9027 209.089 82.9926 205.499 82.9926C201.909 82.9926 198.999 85.9027 198.999 89.4926C198.999 93.0824 201.909 95.9925 205.499 95.9925Z" fill="#39393B"/>
<path fill-rule="evenodd" clip-rule="evenodd" d="M210.15 35.0039C210.482 35.0047 210.625 35.0137 210.76 35.0859C210.828 35.1221 210.881 35.1752 210.917 35.2427C210.994 35.3874 210.999 35.5413 210.999 35.9267V75.0809C210.999 75.4663 210.994 75.6202 210.917 75.7648C210.881 75.8324 210.828 75.8855 210.76 75.9216C210.615 75.999 210.462 76.0038 210.076 76.0038H149.922C149.536 76.0038 149.383 75.999 149.238 75.9216C149.17 75.8855 149.117 75.8324 149.081 75.7648C149.004 75.6202 148.999 75.4663 148.999 75.0809L148.999 35.8526C149 35.5208 149.009 35.3778 149.081 35.2427C149.117 35.1752 149.17 35.1221 149.238 35.0859C149.383 35.0086 149.536 35.0038 149.922 35.0038L210.15 35.0039Z" fill="#202021" stroke="black" stroke-width="1.5"/>
<path d="M181.73 84.46C193.179 84.46 202.46 75.1789 202.46 63.73C202.46 52.2811 193.179 43 181.73 43C170.281 43 161 52.2811 161 63.73C161 75.1789 170.281 84.46 181.73 84.46Z" fill="#00B812" fill-opacity="0.5"/>
<path d="M228.544 124.683C219.069 115.208 210.499 95.245 210.499 95.245L209.466 90.409C209.466 90.409 205.931 82.722 203.302 79.613C200.968 74.996 198.925 70.202 196.537 65.621C195.117 62.894 193.614 60.018 192.011 57.411C190.408 54.803 188.014 52.522 185.044 51.789C182.154 51.074 178.478 51.459 175.762 52.677C172.947 53.942 168.872 56.182 168.504 63.835C167.926 76.159 171.491 84.095 176.385 95.463L180.952 102.409C180.952 102.409 191.972 143.573 195.939 156.032" fill="white"/>
<path d="M228.544 124.683C219.069 115.208 210.499 95.245 210.499 95.245L209.466 90.409C209.466 90.409 205.931 82.722 203.302 79.613C200.968 74.996 198.925 70.202 196.537 65.621C195.117 62.894 193.614 60.018 192.011 57.411C190.408 54.803 188.014 52.522 185.044 51.789C182.154 51.074 178.478 51.459 175.762 52.677C172.947 53.942 168.872 56.182 168.504 63.835C167.926 76.159 171.491 84.095 176.385 95.463L180.952 102.409C180.952 102.409 191.972 143.573 195.939 156.032" stroke="#D8D9DA" stroke-width="1.661"/>
<path d="M175.36 73.56C175.383 73.053 175.787 72.652 176.172 72.322C180.398 68.7265 187.953 66.8796 193.5 66.9997" stroke="#D8D9DA" stroke-width="1.107"/>
<path d="M190.904 87.068C192.152 86.88 192.73 86.747 193.976 86.558C194.621 86.462 195.95 86.356 196.545 86.093C197.507 85.6938 198.307 84.9836 198.818 84.076M174.6 72.845C173.001 69.7539 171.972 66.4036 171.559 62.9546C171.466 62.1808 171.765 61.4171 172.33 60.8794L172.459 60.7567C176.257 57.1372 181.55 55.5388 186.718 56.4507V56.4507C186.897 56.4823 187.054 56.5896 187.149 56.7452L193.84 67.708C193.591 69.43 192.18 71.149 190.726 72.101C186.923 74.592 182.287 75.796 177.788 75.146C177.052 75.082 176.345 74.827 175.737 74.407C175.253 73.9717 174.865 73.4395 174.6 72.845ZM181.606 88.064C185.01 85.31 188.803 82.667 193.162 82.226C194.444 82.096 195.786 82.154 196.955 81.615L181.606 88.064Z" stroke="#D8D9DA" stroke-width="1.107"/>
</g>
<path d="M182.297 228.642L182.335 253.005L177.484 253.013L177.446 228.65L182.297 228.642Z" fill="#D8D9DA"/>
<path d="M182.215 228.632L182.334 249.95L177.484 249.978L177.365 228.659L182.215 228.632ZM172.21 192.584H187.536V221.293H172.21V192.584Z" fill="#BEBDC0"/>
<path d="M174.871 214.226H184.872V243.479H174.871V214.226Z" fill="#D8D9DA"/>
<path d="M171 206.499H188.744V232.842H171V206.499Z" fill="#D8D9DA"/>
<path d="M179.847 184.453C178.937 178.015 178.817 170.683 179.48 162.453L179.552 161.598L180.882 161.713C180.172 169.913 180.238 177.211 181.079 183.608L181.169 184.266L179.847 184.453Z" fill="#FEC746"/>
<path d="M174.967 167.891L174.064 166.908L180.497 161L186.407 167.433L185.424 168.337L180.417 162.886L174.967 167.891Z" fill="#FEC746"/>
<defs>
<clipPath id="clip0">
<rect width="80" height="130" fill="white" transform="translate(140 26)"/>
</clipPath>
</defs>
</svg>
