<svg width="83" height="114" viewBox="0 0 83 114" fill="none" xmlns="http://www.w3.org/2000/svg">
<g clip-path="url(#clip0)">
<path fill-rule="evenodd" clip-rule="evenodd" d="M21.8458 18H62.1542C63.4915 18 63.9764 18.1392 64.4653 18.4007C64.9542 18.6622 65.3378 19.0458 65.5993 19.5347C65.8608 20.0236 66 20.5085 66 21.8458V92.1542C66 93.4915 65.8608 93.9764 65.5993 94.4653C65.3378 94.9542 64.9542 95.3378 64.4653 95.5993C63.9764 95.8608 63.4915 96 62.1542 96H21.8458C20.5085 96 20.0236 95.8608 19.5347 95.5993C19.0458 95.3378 18.6622 94.9542 18.4007 94.4653C18.1392 93.9764 18 93.4915 18 92.1542V21.8458C18 20.5085 18.1392 20.0236 18.4007 19.5347C18.6622 19.0458 19.0458 18.6622 19.5347 18.4007C20.0236 18.1392 20.5085 18 21.8458 18Z" fill="#525254"/>
<path d="M26.7003 59.9985C28.8542 59.9985 30.6003 58.2524 30.6003 56.0986C30.6003 53.9447 28.8542 52.1986 26.7003 52.1986C24.5464 52.1986 22.8003 53.9447 22.8003 56.0986C22.8003 58.2524 24.5464 59.9985 26.7003 59.9985Z" fill="#39393B"/>
<path d="M36.9 59.9985C39.0539 59.9985 40.8 58.2524 40.8 56.0986C40.8 53.9447 39.0539 52.1986 36.9 52.1986C34.7461 52.1986 33 53.9447 33 56.0986C33 58.2524 34.7461 59.9985 36.9 59.9985Z" fill="#39393B"/>
<path d="M47.0999 59.9985C49.2538 59.9985 50.9999 58.2524 50.9999 56.0986C50.9999 53.9447 49.2538 52.1986 47.0999 52.1986C44.946 52.1986 43.2 53.9447 43.2 56.0986C43.2 58.2524 44.946 59.9985 47.0999 59.9985Z" fill="#39393B"/>
<path d="M57.2994 59.9985C59.4533 59.9985 61.1994 58.2524 61.1994 56.0986C61.1994 53.9447 59.4533 52.1986 57.2994 52.1986C55.1455 52.1986 53.3994 53.9447 53.3994 56.0986C53.3994 58.2524 55.1455 59.9985 57.2994 59.9985Z" fill="#39393B"/>
<path fill-rule="evenodd" clip-rule="evenodd" d="M60.0908 23.4993C60.2899 23.4998 60.3757 23.5052 60.4568 23.5485C60.4973 23.5702 60.5292 23.602 60.5508 23.6426C60.5973 23.7294 60.6001 23.8217 60.6001 24.053V47.5455C60.6001 47.7767 60.5973 47.869 60.5508 47.9558C60.5292 47.9964 60.4973 48.0282 60.4568 48.0499C60.37 48.0963 60.2777 48.0992 60.0464 48.0992H23.9539C23.7226 48.0992 23.6303 48.0963 23.5435 48.0499C23.503 48.0282 23.4711 47.9964 23.4494 47.9558C23.403 47.869 23.4001 47.7767 23.4001 47.5455L23.4002 24.0085C23.4007 23.8094 23.4061 23.7236 23.4494 23.6426C23.4711 23.602 23.503 23.5702 23.5435 23.5485C23.6303 23.5021 23.7226 23.4992 23.9539 23.4992L60.0908 23.4993Z" fill="#202021" stroke="black" stroke-width="1.5"/>
<path d="M16.5 16.5H31.5L49.5 107.25L16.5 111V16.5Z" fill="#D8D9DA" fill-opacity="0.05"/>
</g>
<path opacity="0.4" d="M10.122 33.576C15.5051 33.576 19.869 29.2121 19.869 23.829C19.869 18.4459 15.5051 14.082 10.122 14.082C4.73888 14.082 0.375 18.4459 0.375 23.829C0.375 29.2121 4.73888 33.576 10.122 33.576Z" fill="#F9C447"/>
<path d="M10.1219 30.426C13.7653 30.426 16.7189 27.4724 16.7189 23.829C16.7189 20.1856 13.7653 17.232 10.1219 17.232C6.47848 17.232 3.5249 20.1856 3.5249 23.829C3.5249 27.4724 6.47848 30.426 10.1219 30.426Z" fill="#F9C447"/>
<path d="M10.1211 19.681L14.2681 23.828L10.1211 27.976L5.9751 23.828L10.1211 19.681Z" fill="white"/>
<path opacity="0.4" d="M74.6281 51.965C78.8199 51.965 82.2181 48.5668 82.2181 44.375C82.2181 40.1832 78.8199 36.785 74.6281 36.785C70.4362 36.785 67.0381 40.1832 67.0381 44.375C67.0381 48.5668 70.4362 51.965 74.6281 51.965Z" fill="#F9C447"/>
<path d="M74.628 49.513C77.4656 49.513 79.766 47.2126 79.766 44.375C79.766 41.5374 77.4656 39.237 74.628 39.237C71.7904 39.237 69.49 41.5374 69.49 44.375C69.49 47.2126 71.7904 49.513 74.628 49.513Z" fill="#F9C447"/>
<path d="M74.5881 41.147L77.8531 44.344L74.6561 47.608L71.3921 44.411L74.5881 41.147Z" fill="white"/>
<path opacity="0.4" d="M14.9359 86.349C19.1278 86.349 22.5259 82.9509 22.5259 78.759C22.5259 74.5672 19.1278 71.169 14.9359 71.169C10.7441 71.169 7.34595 74.5672 7.34595 78.759C7.34595 82.9509 10.7441 86.349 14.9359 86.349Z" fill="#F9C447"/>
<path d="M14.9361 83.897C17.7737 83.897 20.0741 81.5966 20.0741 78.759C20.0741 75.9214 17.7737 73.621 14.9361 73.621C12.0985 73.621 9.7981 75.9214 9.7981 78.759C9.7981 81.5966 12.0985 83.897 14.9361 83.897Z" fill="#F9C447"/>
<path d="M14.897 75.525L18.161 78.722L14.965 81.986L11.7 78.789L14.897 75.525Z" fill="white"/>
<path opacity="0.4" d="M64.54 17.997C69.4752 17.997 73.476 13.9962 73.476 9.061C73.476 4.12578 69.4752 0.125 64.54 0.125C59.6048 0.125 55.604 4.12578 55.604 9.061C55.604 13.9962 59.6048 17.997 64.54 17.997Z" fill="#F9C447"/>
<path d="M64.54 15.11C67.8807 15.11 70.589 12.4018 70.589 9.06099C70.589 5.72022 67.8807 3.01199 64.54 3.01199C61.1992 3.01199 58.491 5.72022 58.491 9.06099C58.491 12.4018 61.1992 15.11 64.54 15.11Z" fill="#F9C447"/>
<path d="M64.4969 5.26199L68.3389 9.02399L64.5759 12.867L60.7339 9.10399L64.4969 5.26199Z" fill="white"/>
<path opacity="0.4" d="M53.8491 95.286C58.7843 95.286 62.7851 91.2852 62.7851 86.35C62.7851 81.4148 58.7843 77.414 53.8491 77.414C48.9139 77.414 44.9131 81.4148 44.9131 86.35C44.9131 91.2852 48.9139 95.286 53.8491 95.286Z" fill="#F9C447"/>
<path d="M53.849 92.399C57.1898 92.399 59.898 89.6908 59.898 86.35C59.898 83.0092 57.1898 80.301 53.849 80.301C50.5083 80.301 47.8 83.0092 47.8 86.35C47.8 89.6908 50.5083 92.399 53.849 92.399Z" fill="#F9C447"/>
<path d="M53.803 82.545L57.646 86.308L53.883 90.15L50.04 86.388L53.803 82.545Z" fill="white"/>
<defs>
<clipPath id="clip0">
<rect width="48" height="78" fill="white" transform="translate(18 18)"/>
</clipPath>
</defs>
</svg>
