<svg width="140" height="140" viewBox="0 0 140 140" fill="none" xmlns="http://www.w3.org/2000/svg">
<path fill-rule="evenodd" clip-rule="evenodd" d="M43.1278 18H96.8722C98.6553 18 99.3018 18.1857 99.9537 18.5343C100.606 18.8829 101.117 19.3945 101.466 20.0463C101.814 20.6982 102 21.3447 102 23.1278V116.872C102 118.655 101.814 119.302 101.466 119.954C101.117 120.606 100.606 121.117 99.9537 121.466C99.3018 121.814 98.6553 122 96.8722 122H43.1278C41.3447 122 40.6982 121.814 40.0463 121.466C39.3945 121.117 38.8829 120.606 38.5343 119.954C38.1857 119.302 38 118.655 38 116.872V23.1278C38 21.3447 38.1857 20.6982 38.5343 20.0463C38.8829 19.3945 39.3945 18.8829 40.0463 18.5343C40.6982 18.1857 41.3447 18 43.1278 18Z" fill="#525254"/>
<path d="M49.6004 73.9978C52.4723 73.9978 54.8004 71.6697 54.8004 68.7978C54.8004 65.9259 52.4723 63.5978 49.6004 63.5978C46.7285 63.5978 44.4004 65.9259 44.4004 68.7978C44.4004 71.6697 46.7285 73.9978 49.6004 73.9978Z" fill="#39393B"/>
<path d="M63.2 73.9978C66.0719 73.9978 68.4 71.6697 68.4 68.7978C68.4 65.9259 66.0719 63.5978 63.2 63.5978C60.3281 63.5978 58 65.9259 58 68.7978C58 71.6697 60.3281 73.9978 63.2 73.9978Z" fill="#39393B"/>
<path d="M76.7996 73.9978C79.6715 73.9978 81.9996 71.6697 81.9996 68.7978C81.9996 65.9259 79.6715 63.5978 76.7996 63.5978C73.9277 63.5978 71.5996 65.9259 71.5996 68.7978C71.5996 71.6697 73.9277 73.9978 76.7996 73.9978Z" fill="#39393B"/>
<path d="M90.3992 73.9978C93.2711 73.9978 95.5992 71.6697 95.5992 68.7978C95.5992 65.9259 93.2711 63.5978 90.3992 63.5978C87.5273 63.5978 85.1992 65.9259 85.1992 68.7978C85.1992 71.6697 87.5273 73.9978 90.3992 73.9978Z" fill="#39393B"/>
<path fill-rule="evenodd" clip-rule="evenodd" d="M94.2544 25.3329C94.5199 25.3336 94.6343 25.3408 94.7423 25.3986C94.7964 25.4275 94.8388 25.4699 94.8678 25.524C94.9297 25.6398 94.9335 25.7628 94.9335 26.0712V57.3945C94.9335 57.7029 94.9297 57.8259 94.8678 57.9417C94.8388 57.9958 94.7964 58.0382 94.7423 58.0671C94.6266 58.129 94.5035 58.1329 94.1952 58.1329H46.0718C45.7635 58.1329 45.6404 58.129 45.5247 58.0671C45.4706 58.0382 45.4281 57.9958 45.3992 57.9417C45.3373 57.8259 45.3335 57.7029 45.3335 57.3945L45.3336 26.0119C45.3343 25.7465 45.3415 25.6321 45.3992 25.524C45.4281 25.4699 45.4706 25.4275 45.5247 25.3986C45.6404 25.3367 45.7635 25.3329 46.0718 25.3329L94.2544 25.3329Z" fill="#202021" stroke="black" stroke-width="1.5"/>
<path d="M84.8335 38.6667V45.3333C84.8335 46.1617 84.1619 46.8333 83.3335 46.8333H55.3335C54.5051 46.8333 53.8335 46.1617 53.8335 45.3333V38.6667C53.8335 37.8382 54.5051 37.1667 55.3335 37.1667H83.3335C84.1619 37.1667 84.8335 37.8382 84.8335 38.6667Z" stroke="#00B812" stroke-opacity="0.5"/>
<path d="M56 39.3333H76V44.6667H56V39.3333Z" fill="#00B812"/>
<path d="M92.2764 82.5529C99.0565 82.5529 104.553 77.0565 104.553 70.2764C104.553 63.4963 99.0565 58 92.2764 58C85.4963 58 80 63.4963 80 70.2764C80 77.0565 85.4963 82.5529 92.2764 82.5529Z" fill="#00B812" fill-opacity="0.5"/>
<path d="M120 106.373C114.389 100.762 109.313 88.9398 109.313 88.9398L108.702 86.0759C108.702 86.0759 106.608 81.5236 105.051 79.6825C103.669 76.9482 102.459 74.1092 101.045 71.3963C100.204 69.7814 99.3139 68.0782 98.3646 66.5343C97.4153 64.9898 95.9976 63.639 94.2387 63.2049C92.5272 62.7815 90.3503 63.0095 88.7419 63.7308C87.0748 64.4799 84.6616 65.8065 84.4436 70.3386C84.1013 77.637 86.2126 82.3367 89.1108 89.0689L91.8154 93.1824C91.8154 93.1824 98.3415 117.56 100.691 124.938" fill="white"/>
<path d="M120 106.373C114.389 100.762 109.313 88.9398 109.313 88.9398L108.702 86.0759C108.702 86.0759 106.608 81.5236 105.051 79.6825C103.669 76.9482 102.459 74.1092 101.045 71.3963C100.204 69.7814 99.3139 68.0782 98.3646 66.5343C97.4153 64.9898 95.9976 63.639 94.2387 63.2049C92.5272 62.7815 90.3503 63.0095 88.7419 63.7308C87.0748 64.4799 84.6616 65.8065 84.4436 70.3386C84.1013 77.637 86.2126 82.3367 89.1108 89.0689L91.8154 93.1824C91.8154 93.1824 98.3415 117.56 100.691 124.938" stroke="#D8D9DA" stroke-width="1.661"/>
<path d="M88.5039 76.0978C88.5175 75.7975 88.7568 75.5601 88.9848 75.3646C91.4875 73.2354 95.9614 72.1416 99.2465 72.2127" stroke="#D8D9DA" stroke-width="1.107"/>
<path d="M97.7095 84.0971C98.4486 83.9857 98.7909 83.907 99.5288 83.795C99.9108 83.7382 100.698 83.6754 101.05 83.5197C101.62 83.2833 102.094 82.8627 102.396 82.3252M88.0542 75.6741C87.1072 73.8435 86.4978 71.8595 86.2531 69.817C86.1981 69.3587 86.3755 68.9064 86.7097 68.588L86.786 68.5153C89.0357 66.3718 92.1703 65.4253 95.2304 65.9653V65.9653C95.3367 65.984 95.4298 66.0476 95.486 66.1397L99.4483 72.632C99.3008 73.6517 98.4652 74.6697 97.6041 75.2335C95.352 76.7087 92.6065 77.4217 89.9422 77.0368C89.5063 76.9989 89.0876 76.8479 88.7275 76.5991C88.4408 76.3413 88.2114 76.0262 88.0542 75.6741ZM92.2032 84.6869C94.2191 83.056 96.4653 81.4908 99.0467 81.2296C99.8059 81.1526 100.601 81.187 101.293 80.8678L92.2032 84.6869Z" stroke="#D8D9DA" stroke-width="1.107"/>
</svg>
