<svg width="136" height="81" viewBox="0 0 136 81" fill="none" xmlns="http://www.w3.org/2000/svg">
<path d="M10.8667 4C10.8667 1.99797 12.4897 0.375 14.4917 0.375H121.814C123.816 0.375 125.439 1.99797 125.439 4V73.7606H10.8667V4Z" fill="white" stroke="#BEBDC0" stroke-width="0.75"/>
<rect x="13.6123" y="3.12076" width="109.081" height="67.8941" rx="0.625" fill="#00B812" fill-opacity="0.5" stroke="#7A7F80" stroke-width="0.75"/>
<path d="M98 31C99.1046 31 100 31.8954 100 33V37C100 38.1046 99.1046 39 98 39H37C35.8954 39 35 38.1046 35 37V33C35 31.8954 35.8954 31 37 31H98Z" fill="white"/>
<path d="M39 34H63V36H39V34Z" fill="#00B812"/>
<rect x="5.375" y="73.8242" width="125.555" height="6.80085" rx="3.40042" fill="white" stroke="#BEBDC0" stroke-width="0.75"/>
</svg>
