<svg width="160" height="160" viewBox="0 0 160 160" fill="none" xmlns="http://www.w3.org/2000/svg">
<path fill-rule="evenodd" clip-rule="evenodd" d="M79.9279 9C79.3736 9 78.842 9.2202 78.45 9.61215C78.0581 10.0041 77.8379 10.5357 77.8379 11.09L77.8399 23.274C77.8399 23.5485 77.894 23.8202 77.999 24.0738C78.104 24.3274 78.258 24.5578 78.452 24.7519C78.6461 24.9459 78.8765 25.0999 79.1301 25.2049C79.3837 25.3099 79.6554 25.364 79.9299 25.364C80.2044 25.364 80.4761 25.3099 80.7297 25.2049C80.9833 25.0999 81.2137 24.9459 81.4077 24.7519C81.6018 24.5578 81.7558 24.3274 81.8608 24.0738C81.9658 23.8202 82.0199 23.5485 82.0199 23.274V11.09C82.0199 9.936 81.0829 9 79.9289 9H79.9279Z" fill="#00B812"/>
<path opacity="0.76" fill-rule="evenodd" clip-rule="evenodd" d="M104.342 15.528L99.6821 26.786C99.5753 27.0399 99.5197 27.3124 99.5186 27.5879C99.5174 27.8633 99.5708 28.1363 99.6755 28.391C99.7803 28.6458 99.9343 28.8774 100.129 29.0724C100.323 29.2674 100.555 29.422 100.809 29.5274C101.064 29.6328 101.336 29.6868 101.612 29.6864C101.887 29.6859 102.16 29.6311 102.414 29.5249C102.668 29.4187 102.899 29.2634 103.093 29.0677C103.287 28.8721 103.44 28.6401 103.544 28.385L108.204 17.127C108.311 16.8731 108.366 16.6006 108.368 16.3251C108.369 16.0497 108.315 15.7767 108.211 15.522C108.106 15.2672 107.952 15.0356 107.757 14.8406C107.563 14.6456 107.332 14.491 107.077 14.3856C106.823 14.2802 106.55 14.2262 106.274 14.2266C105.999 14.227 105.726 14.2819 105.472 14.3881C105.218 14.4943 104.987 14.6496 104.793 14.8452C104.599 15.0409 104.446 15.2729 104.342 15.528V15.528Z" fill="#00B812"/>
<path opacity="0.12" fill-rule="evenodd" clip-rule="evenodd" d="M127.132 29.77L118.519 38.388C118.127 38.78 117.907 39.3116 117.907 39.866C117.907 40.4204 118.127 40.952 118.519 41.344C118.911 41.736 119.443 41.9562 119.997 41.9562C120.551 41.9562 121.083 41.736 121.475 41.344L130.089 32.726C130.481 32.3337 130.701 31.802 130.701 31.2475C130.701 30.693 130.481 30.1613 130.089 29.769C129.697 29.3773 129.165 29.1573 128.61 29.1575C128.056 29.1577 127.524 29.378 127.132 29.77V29.77Z" fill="#00B812"/>
<path opacity="0.44" fill-rule="evenodd" clip-rule="evenodd" d="M142.739 51.651L131.484 56.315C130.972 56.5272 130.565 56.9341 130.353 57.4463C130.141 57.9584 130.141 58.5339 130.353 59.046C130.565 59.5581 130.972 59.965 131.484 60.1771C131.996 60.3892 132.572 60.3892 133.084 60.177L144.34 55.514C144.852 55.3017 145.259 54.8946 145.471 54.3824C145.683 53.8701 145.683 53.2946 145.471 52.7825C145.258 52.2704 144.851 51.8636 144.339 51.6515C143.827 51.4395 143.251 51.4397 142.739 51.652V51.651V51.651Z" fill="#00B812"/>
<path opacity="0.92" fill-rule="evenodd" clip-rule="evenodd" d="M148.783 77.838L136.599 77.84C136.325 77.8401 136.053 77.8942 135.799 77.9993C135.546 78.1044 135.315 78.2584 135.121 78.4525C134.729 78.8445 134.509 79.3762 134.51 79.9305C134.51 80.4848 134.73 81.0163 135.122 81.4082C135.514 81.8001 136.046 82.0201 136.6 82.02L148.783 82.019C149.337 82.019 149.869 81.7988 150.261 81.4067C150.653 81.0147 150.874 80.4829 150.874 79.9285C150.874 79.3741 150.653 78.8423 150.261 78.4503C149.869 78.0582 149.337 77.838 148.783 77.838V77.838Z" fill="#00B812"/>
<path opacity="0.28" fill-rule="evenodd" clip-rule="evenodd" d="M130.357 100.813C130.252 101.067 130.198 101.338 130.198 101.613C130.198 101.888 130.252 102.159 130.357 102.413C130.462 102.667 130.616 102.897 130.811 103.091C131.005 103.285 131.235 103.439 131.489 103.544L142.747 108.204C143.259 108.416 143.835 108.416 144.347 108.204C144.859 107.992 145.266 107.585 145.478 107.073C145.69 106.56 145.69 105.985 145.477 105.473C145.265 104.961 144.858 104.554 144.346 104.342L133.088 99.682C132.834 99.5769 132.563 99.5228 132.288 99.5228C132.014 99.5228 131.742 99.5768 131.488 99.6818C131.235 99.7869 131.004 99.9408 130.81 100.135C130.616 100.329 130.462 100.559 130.357 100.813V100.813Z" fill="#00B812"/>
<path opacity="0.6" fill-rule="evenodd" clip-rule="evenodd" d="M118.53 118.52C118.138 118.912 117.918 119.443 117.918 119.997C117.918 120.552 118.138 121.083 118.53 121.475L127.148 130.089C127.54 130.481 128.072 130.701 128.626 130.701C129.181 130.701 129.713 130.481 130.105 130.089C130.497 129.696 130.717 129.165 130.717 128.61C130.716 128.056 130.496 127.524 130.104 127.132L121.486 118.519C121.292 118.325 121.062 118.171 120.808 118.066C120.554 117.961 120.283 117.907 120.008 117.907C119.734 117.907 119.462 117.961 119.208 118.066C118.955 118.171 118.724 118.325 118.53 118.519V118.52V118.52Z" fill="#00B812"/>
<path opacity="0.36" fill-rule="evenodd" clip-rule="evenodd" d="M100.827 130.353C100.573 130.458 100.343 130.612 100.149 130.806C99.9549 131 99.8009 131.231 99.6959 131.484C99.5909 131.738 99.5368 132.01 99.5369 132.284C99.5369 132.559 99.591 132.83 99.6961 133.084L104.36 144.34C104.572 144.852 104.979 145.259 105.492 145.471C106.004 145.683 106.579 145.683 107.092 145.471C107.604 145.258 108.011 144.851 108.223 144.339C108.435 143.827 108.434 143.251 108.222 142.739L103.558 131.484C103.453 131.23 103.299 131 103.105 130.806C102.911 130.612 102.68 130.458 102.427 130.353C102.173 130.248 101.901 130.194 101.627 130.194C101.352 130.194 101.081 130.248 100.827 130.353V130.353Z" fill="#00B812"/>
<path opacity="0.84" fill-rule="evenodd" clip-rule="evenodd" d="M79.943 134.51C79.3887 134.51 78.8571 134.73 78.4652 135.122C78.0732 135.514 77.853 136.046 77.853 136.6L77.855 148.783C77.855 149.337 78.0752 149.869 78.4672 150.261C78.8591 150.653 79.3907 150.873 79.945 150.873C80.4993 150.873 81.0309 150.653 81.4229 150.261C81.8148 149.869 82.035 149.337 82.035 148.783L82.034 136.599C82.034 136.045 81.8138 135.513 81.4219 135.121C81.0299 134.729 80.4983 134.509 79.944 134.509L79.943 134.51V134.51Z" fill="#00B812"/>
<path opacity="0.2" fill-rule="evenodd" clip-rule="evenodd" d="M56.33 131.489L51.667 142.747C51.5619 143.001 51.5078 143.272 51.5078 143.547C51.5078 143.821 51.5618 144.093 51.6669 144.347C51.7719 144.6 51.9258 144.831 52.1199 145.025C52.314 145.219 52.5444 145.373 52.798 145.478C53.0516 145.583 53.3233 145.637 53.5978 145.637C53.8723 145.637 54.1441 145.583 54.3977 145.478C54.6513 145.373 54.8817 145.219 55.0758 145.025C55.2699 144.831 55.4239 144.601 55.529 144.347L60.192 133.088C60.2988 132.834 60.3543 132.562 60.3555 132.286C60.3566 132.011 60.3032 131.738 60.1985 131.483C60.0938 131.228 59.9397 130.997 59.7452 130.802C59.5507 130.607 59.3195 130.452 59.065 130.347C58.8105 130.241 58.5377 130.187 58.2622 130.188C57.9868 130.188 57.7141 130.243 57.4599 130.349C57.2058 130.455 56.9751 130.611 56.7812 130.806C56.5872 131.002 56.4339 131.234 56.33 131.489V131.489Z" fill="#00B812"/>
<path opacity="0.52" fill-rule="evenodd" clip-rule="evenodd" d="M38.398 118.53L29.782 127.148C29.39 127.54 29.1698 128.072 29.1699 128.626C29.17 129.181 29.3904 129.713 29.7825 130.105C30.1746 130.496 30.7064 130.717 31.2608 130.717C31.8153 130.716 32.347 130.496 32.739 130.104L41.355 121.486C41.747 121.094 41.9671 120.562 41.967 120.008C41.9669 119.453 41.7466 118.921 41.3545 118.53C40.9624 118.138 40.4306 117.917 39.8761 117.917C39.3217 117.918 38.79 118.138 38.398 118.53V118.53Z" fill="#00B812"/>
<path opacity="0.68" fill-rule="evenodd" clip-rule="evenodd" d="M26.7901 99.696L15.5341 104.36C15.2804 104.465 15.0499 104.619 14.8558 104.813C14.6617 105.007 14.5077 105.238 14.4028 105.491C14.2978 105.745 14.2439 106.017 14.2441 106.291C14.2444 106.566 14.2987 106.838 14.4041 107.091C14.5089 107.345 14.6627 107.575 14.8567 107.769C15.0507 107.963 15.2811 108.117 15.5346 108.222C15.7882 108.328 16.06 108.382 16.3344 108.381C16.6089 108.381 16.8806 108.327 17.1341 108.222L28.3901 103.558C28.6437 103.453 28.8741 103.299 29.0682 103.105C29.2623 102.911 29.4162 102.68 29.5212 102.427C29.6262 102.173 29.6803 101.901 29.6803 101.627C29.6802 101.352 29.6262 101.081 29.5211 100.827C29.4161 100.573 29.2621 100.343 29.068 100.149C28.8739 99.9549 28.6434 99.8009 28.3898 99.6959C28.1363 99.5909 27.8645 99.5368 27.59 99.5368C27.3155 99.5369 27.0437 99.5909 26.7901 99.696V99.696Z" fill="#00B812"/>
<path fill-rule="evenodd" clip-rule="evenodd" d="M23.274 77.853L11.09 77.855C10.5357 77.855 10.0041 78.0752 9.61215 78.4671C9.2202 78.8591 9 79.3907 9 79.945C9 80.4993 9.2202 81.0309 9.61215 81.4229C10.0041 81.8148 10.5357 82.035 11.09 82.035L23.274 82.034C23.8283 82.034 24.3599 81.8138 24.7519 81.4219C25.1438 81.0299 25.364 80.4983 25.364 79.944C25.364 79.3897 25.1438 78.8581 24.7519 78.4661C24.3599 78.0742 23.8283 77.854 23.274 77.854V77.853V77.853Z" fill="#00B812"/>
<path fill-rule="evenodd" clip-rule="evenodd" d="M17.1191 51.651L28.3741 56.315C28.6277 56.4201 28.8581 56.574 29.0522 56.7681C29.2463 56.9622 29.4002 57.1927 29.5052 57.4463C29.6103 57.6999 29.6643 57.9717 29.6643 58.2461C29.6643 58.5206 29.6102 58.7924 29.5051 59.046C29.4001 59.2996 29.2461 59.53 29.052 59.7241C28.8579 59.9181 28.6275 60.0721 28.3739 60.1771C28.1203 60.2821 27.8485 60.3362 27.574 60.3362C27.2995 60.3361 27.0277 60.2821 26.7741 60.177L15.5181 55.514C15.006 55.3017 14.5992 54.8946 14.3872 54.3824C14.1751 53.8701 14.1753 53.2946 14.3876 52.7825C14.5999 52.2704 15.007 51.8636 15.5192 51.6515C16.0315 51.4395 16.607 51.4397 17.1191 51.652V51.651V51.651Z" fill="#00B812"/>
<path fill-rule="evenodd" clip-rule="evenodd" d="M32.726 29.77L41.3389 38.388C41.7309 38.78 41.9512 39.3116 41.9512 39.866C41.9512 40.4204 41.7309 40.952 41.3389 41.344C40.947 41.736 40.4153 41.9562 39.8609 41.9562C39.3066 41.9562 38.7749 41.736 38.3829 41.344L29.7689 32.726C29.3771 32.3337 29.157 31.802 29.157 31.2475C29.157 30.693 29.3771 30.1613 29.7689 29.769C30.1613 29.3773 30.6932 29.1573 31.2477 29.1575C31.8021 29.1577 32.3338 29.378 32.726 29.77V29.77Z" fill="#00B812"/>
<path fill-rule="evenodd" clip-rule="evenodd" d="M55.516 15.528L60.176 26.786C60.2828 27.0399 60.3383 27.3124 60.3395 27.5879C60.3406 27.8633 60.2873 28.1363 60.1825 28.391C60.0778 28.6458 59.9237 28.8774 59.7292 29.0724C59.5347 29.2674 59.3035 29.422 59.049 29.5274C58.7945 29.6328 58.5217 29.6868 58.2462 29.6864C57.9708 29.6859 57.6981 29.6311 57.4439 29.5249C57.1898 29.4187 56.9591 29.2634 56.7652 29.0677C56.5713 28.8721 56.4179 28.6401 56.314 28.385L51.654 17.127C51.5472 16.8731 51.4916 16.6006 51.4905 16.3251C51.4894 16.0497 51.5427 15.7767 51.6474 15.522C51.7522 15.2672 51.9062 15.0356 52.1008 14.8406C52.2953 14.6456 52.5265 14.491 52.781 14.3856C53.0355 14.2802 53.3083 14.2262 53.5837 14.2266C53.8592 14.227 54.1318 14.2819 54.386 14.3881C54.6402 14.4943 54.8709 14.6496 55.0648 14.8452C55.2587 15.0409 55.412 15.2729 55.516 15.528V15.528Z" fill="#00B812"/>
</svg>
