<svg width="64" height="64" viewBox="0 0 64 64" fill="none" xmlns="http://www.w3.org/2000/svg">
<path fill-rule="evenodd" clip-rule="evenodd" d="M32 64C49.6731 64 64 49.6731 64 32C64 14.3269 49.6731 0 32 0C14.3269 0 0 14.3269 0 32C0 49.6731 14.3269 64 32 64ZM32 62C48.5685 62 62 48.5685 62 32C62 15.4315 48.5685 2 32 2C15.4315 2 2 15.4315 2 32C2 48.5685 15.4315 62 32 62Z" fill="#3C3C43" fill-opacity="0.12"/>
<path fill-rule="evenodd" clip-rule="evenodd" d="M35.5809 33.4292C35.3809 33.4442 34.3475 33.5058 32.0424 33.5058C30.209 33.5058 28.9073 33.4508 28.4506 33.4292C21.3652 33.1175 16.0766 31.8841 16.0766 30.4073C16.0766 28.9306 21.3652 27.6989 28.4506 27.3822V32.2008C28.9139 32.2341 30.2407 32.3124 32.0741 32.3124C34.2742 32.3124 35.3759 32.2208 35.5742 32.2024V27.3855C42.6446 27.7006 47.9215 28.9339 47.9215 30.4073C47.9215 31.8808 42.6462 33.1141 35.5742 33.4275L35.5809 33.4292ZM35.5809 26.8872V22.5753H45.448V16H18.5834V22.5753H28.4489V26.8855C20.4302 27.2539 14.3999 28.8423 14.3999 30.7457C14.3999 32.6491 20.4302 34.2359 28.4489 34.6059V48.4232H35.5792V34.6009C43.5796 34.2325 49.5999 32.6458 49.5999 30.744C49.5999 28.8423 43.5846 27.2555 35.5792 26.8855L35.5809 26.8872Z" fill="#1DCFA0"/>
<circle cx="56" cy="56" r="8" fill="#454E5D"/>
<path d="M53 56.6748L55.9991 58.4881L59 56.6748L55.9991 61L53 56.6748ZM55.9991 51L58.9982 56.0928L55.9991 57.907L53 56.0928L55.9991 51Z" fill="white"/>
</svg>
